<svg width="376" height="299" viewBox="0 0 376 299" fill="none" xmlns="http://www.w3.org/2000/svg">
<path d="M91.2583 222.561C84.6094 227.948 70.3379 231.061 62.8501 228.757C59.0183 227.579 56.1041 225.488 53.0849 221.75C43.6144 210.025 44.5533 201.35 58.6017 170.784C74.5466 136.094 89.5263 107.168 123.802 44.8785C133.041 28.0892 141.296 13.0427 142.147 11.4413C144.086 7.79004 142.449 3.37166 138.545 1.7222C135.862 0.587474 134.508 1.30988 125.155 8.86469C114.459 17.504 95.0322 37.0076 64.5531 69.7079C28.3422 108.556 15.3225 114.793 2.83979 99.2743C-1.76566 93.5503 -5.51781 81.3985 -4.52174 75.4376C-3.46939 69.1447 2.91608 58.8396 19.7173 36.3149C77.7906 -41.536 131.943 -103.301 176.281 -142.259C221.056 -181.601 272.582 -215.299 295.348 -220.13C325.669 -226.564 362.575 -220.291 400.943 -202.182C406.681 -199.473 412.22 -196.591 417.532 -193.562C488.638 -154.275 528.081 -88.7319 539.02 -55.0514C541.056 -50.3819 545.346 -24.8876 547.436 -4.20663C550.285 23.9778 550.174 49.0099 547.053 82.0561C543.446 120.249 536.279 143.586 524.885 154.236C519.819 158.971 518.416 159.614 513.379 159.513C501.373 159.272 487.503 145.44 481.83 128.052C480.417 123.723 477.916 110.334 476.271 98.2982C470.248 54.2348 466.058 46.2518 450.991 50.1512C443.368 52.1242 435.503 58.255 426.149 69.5156C411.172 87.5482 404.359 100.729 383.139 152.736C362.072 204.369 346.01 240.551 330.369 271.608C319.473 293.243 309.753 299.634 296.463 293.905C290.479 291.325 281.375 279.587 281.44 274.536C281.498 269.862 291.443 216.893 303.089 159.222C308.668 131.589 313.057 107.19 312.838 105.002C311.939 95.9852 304.29 93.7262 297.816 100.565C295.701 102.8 277.791 135.123 258.016 172.397C216.55 250.559 198.333 283.278 193.362 288.53C188.406 293.763 175.837 298.653 168.149 298.337C157.216 297.888 147.914 288.743 146.327 276.884C145.244 268.784 150.899 249.828 180.835 161.232C203.239 94.9339 209.744 69.7751 205.744 64.912C199.925 57.8395 195.555 62.3859 168.049 104.12C161.368 114.258 149.759 132.52 142.252 144.704C105.036 205.107 96.2543 218.513 91.2583 222.561Z" fill="#FBD86A"/>
</svg>
