<svg width="349" height="222" viewBox="0 0 349 222" fill="none" xmlns="http://www.w3.org/2000/svg">
<path d="M266.262 97.7967C273.607 93.0355 288.461 91.4111 295.829 94.5634C299.599 96.1758 302.338 98.6171 305.005 102.745C313.372 115.695 311.48 124.419 293.887 153.993C273.92 187.558 255.558 215.363 213.963 275.022C202.751 291.103 192.729 305.516 191.69 307.053C189.323 310.558 190.511 315.229 194.304 317.329C196.911 318.773 198.366 318.184 208.696 311.51C220.51 303.877 242.378 286.137 276.914 256.166C317.945 220.562 331.863 215.623 342.884 232.758C346.95 239.078 349.454 251.844 347.797 257.8C346.047 264.088 338.438 273.88 318.914 294.978C251.431 367.895 189.674 424.873 140.365 459.712C90.569 494.894 34.515 523.606 10.8357 526.061C-20.7021 529.33 -57.566 518.962 -94.6381 496.396C-100.183 493.021 -105.506 489.491 -110.581 485.836C-178.667 438.191 -211.709 367.259 -219.198 331.817C-220.765 326.847 -222.374 300.45 -222.266 279.187C-222.119 250.21 -219.301 224.759 -212.557 191.481C-204.762 153.02 -194.95 130.057 -182.21 120.454C-176.545 116.184 -175.048 115.682 -169.936 116.329C-157.75 117.871 -145.134 133.44 -141.242 151.74C-140.273 156.296 -139.176 170.186 -138.803 182.606C-137.436 228.079 -134.036 236.652 -118.289 234.313C-110.321 233.129 -101.658 227.743 -90.9272 217.299C-73.7439 200.574 -65.3897 187.902 -38.1863 137.292C-11.1782 87.0459 9.06863 51.9766 28.334 22.0749C41.7548 1.24451 52.3324 -4.20666 65.2322 3.05695C71.0404 6.32727 79.0334 19.2507 78.4216 24.3826C77.8572 29.1305 62.0196 81.9368 43.9421 139.342C35.282 166.849 28.1823 191.193 28.1686 193.442C28.1091 202.712 35.6449 205.836 42.9695 199.578C45.3625 197.534 67.072 166.589 91.2143 130.81C141.838 55.7823 163.903 24.468 169.527 19.6626C175.134 14.8741 188.448 11.258 196.234 12.41C207.306 14.0484 215.781 24.3556 216.114 36.5898C216.341 44.9466 208.54 63.6179 168.518 150.505C138.567 215.524 129.232 240.413 132.775 245.792C137.93 253.615 142.867 249.462 175.355 209.981C183.246 200.39 197.027 183.068 205.979 171.485C250.362 114.063 260.743 101.375 266.262 97.7967Z" fill="#FBD86A"/>
</svg>
