<svg width="22" height="24" viewBox="0 0 22 24" fill="none" xmlns="http://www.w3.org/2000/svg">
<path d="M10.667 12C13.9482 12 16.667 9.32812 16.667 6C16.667 2.71875 13.9482 0 10.667 0C7.33887 0 4.66699 2.71875 4.66699 6C4.66699 9.32812 7.33887 12 10.667 12ZM10.667 1.5C13.1045 1.5 15.167 3.5625 15.167 6C15.167 8.48438 13.1045 10.5 10.667 10.5C8.18262 10.5 6.16699 8.48438 6.16699 6C6.16699 3.5625 8.18262 1.5 10.667 1.5ZM13.0107 14.25H8.27637C3.77637 14.25 0.166992 17.9062 0.166992 22.4062C0.166992 23.2969 0.870117 24 1.76074 24H19.5264C20.417 24 21.167 23.2969 21.167 22.4062C21.167 17.9062 17.5107 14.25 13.0107 14.25ZM19.5264 22.5H1.76074C1.71387 22.5 1.66699 22.4531 1.66699 22.4062C1.66699 18.75 4.62012 15.75 8.27637 15.75H13.0107C16.667 15.75 19.667 18.75 19.667 22.4062C19.667 22.4531 19.5732 22.5 19.5264 22.5Z" fill="white"/>
</svg>
