<svg width="26" height="22" viewBox="0 0 26 22" fill="none" xmlns="http://www.w3.org/2000/svg">
<path d="M23.625 7.01562L17.25 0.828125C16.8281 0.40625 16.125 0.40625 15.6562 0.875C15.2344 1.29688 15.2344 2 15.7031 2.46875L22.0312 8.60938C22.8281 9.40625 23.25 10.3906 23.25 11.4688C23.25 12.5469 22.8281 13.5781 22.0312 14.3281L16.8281 19.625C16.3594 20.0469 16.3594 20.75 16.8281 21.2188C17.0156 21.4062 17.2969 21.5 17.625 21.5C17.9062 21.5 18.1875 21.4062 18.4219 21.1719L23.625 15.9219C24.8438 14.75 25.5 13.1562 25.5 11.4688C25.5 9.78125 24.8438 8.23438 23.625 7.01562ZM20.2031 9.59375L11.9062 1.29688C11.4844 0.875 10.6406 0.5 10.0312 0.5H1.3125C0.5625 0.5 0 1.10938 0 1.8125V10.5781C0 11.1875 0.328125 12.0312 0.75 12.4531L9.04688 20.75C10.0781 21.7812 11.7188 21.7812 12.75 20.75L20.2031 13.2969C21.2344 12.2656 21.2344 10.625 20.2031 9.59375ZM5.25 7.25C4.40625 7.25 3.75 6.59375 3.75 5.75C3.75 4.95312 4.40625 4.25 5.25 4.25C6.04688 4.25 6.75 4.95312 6.75 5.75C6.75 6.59375 6.04688 7.25 5.25 7.25Z" fill="white"/>
</svg>
