<svg width="28" height="24" viewBox="0 0 28 24" fill="none" xmlns="http://www.w3.org/2000/svg">
<path d="M27.7864 12C27.7864 12.8438 27.0833 13.5 26.2864 13.5H24.7864V22.5C24.7864 23.3438 24.0833 24 23.3333 24H18.8333C17.9895 24 17.3333 23.3438 17.3333 22.5469V18.0469C17.3333 17.25 16.677 16.5469 15.8333 16.5469H12.8333C11.9895 16.5469 11.3333 17.25 11.3333 18V22.5C11.2864 23.3438 10.6301 24 9.83325 24H5.33325C4.4895 24 3.83325 23.3438 3.83325 22.5V13.5H2.33325C1.4895 13.5 0.833252 12.8438 0.833252 12C0.833252 11.5781 0.973877 11.2031 1.302 10.875L13.302 0.421875C13.6301 0.09375 14.0051 0.046875 14.3333 0.046875C14.6614 0.046875 15.0364 0.140625 15.3176 0.375L27.2708 10.875C27.6458 11.2031 27.8333 11.5781 27.7864 12Z" fill="white"/>
</svg>
