<svg width="24" height="23" viewBox="0 0 24 23" fill="none" xmlns="http://www.w3.org/2000/svg">
<path d="M22.3125 8.48438L14.8594 0.984375C14.5312 0.703125 14.0625 0.703125 13.7812 0.984375C13.5 1.26562 13.5 1.78125 13.7812 2.0625L21.2812 9.5625C22.0312 10.3125 22.5 11.3438 22.5 12.4688C22.5 13.5469 22.0312 14.5781 21.2812 15.375L16.125 20.4844C15.8438 20.7656 15.8438 21.2812 16.125 21.5625C16.3125 21.7031 16.5 21.75 16.6875 21.75C16.875 21.75 17.0625 21.7031 17.2031 21.5625L22.3125 16.4531C23.3906 15.375 24 13.9688 24 12.4688C24 10.9688 23.3906 9.51562 22.3125 8.48438ZM5.20312 5.625C4.54688 5.625 4.07812 6.14062 4.07812 6.75C4.07812 7.40625 4.54688 7.875 5.20312 7.875C5.8125 7.875 6.32812 7.40625 6.32812 6.75C6.32812 6.14062 5.85938 5.625 5.20312 5.625ZM20.2031 10.5938L11.9062 2.29688C11.4844 1.875 10.6406 1.5 10.0312 1.5H1.3125C0.5625 1.5 0 2.10938 0 2.8125V11.5781C0 12.1875 0.328125 13.0312 0.75 13.4531L9.04688 21.75C9.5625 22.2656 10.2188 22.5 10.9219 22.5C11.5781 22.5 12.2344 22.2656 12.75 21.75L20.2031 14.2969C21.2344 13.2656 21.2344 11.625 20.2031 10.5938ZM19.125 13.2656L11.6719 20.6719C11.4844 20.9062 11.2031 21 10.9219 21C10.5938 21 10.3125 20.9062 10.125 20.6719L1.82812 12.375C1.6875 12.2344 1.5 11.8125 1.5 11.5781V3H10.0312C10.2656 3 10.6875 3.23438 10.8281 3.375L19.1719 11.6719C19.3594 11.8594 19.5 12.1406 19.5 12.4688C19.5 12.75 19.3594 13.0312 19.125 13.2656Z" fill="white"/>
</svg>
