<svg width="28" height="24" viewBox="0 0 28 24" fill="none" xmlns="http://www.w3.org/2000/svg">
<path d="M27.5518 11.4375L14.8486 0.1875C14.6611 0.09375 14.4736 0.046875 14.333 0.046875C14.1455 0.046875 13.958 0.09375 13.8174 0.1875L1.06738 11.4375C0.879883 11.625 0.833008 11.8125 0.833008 12C0.833008 12.4219 1.16113 12.75 1.58301 12.75C1.72363 12.75 1.91113 12.7031 2.05176 12.5625L3.83301 11.0156V20.25C3.83301 22.3125 5.47363 23.9531 7.58301 23.9531H21.0361C23.0986 23.9531 24.7861 22.2656 24.7861 20.25V11.0156L26.5674 12.5625C26.708 12.7031 26.8955 12.75 27.0361 12.75C27.4111 12.75 27.7861 12.4219 27.7861 12.0469C27.7861 11.8125 27.7393 11.625 27.5518 11.4375ZM16.583 22.5H12.083V15H16.583V22.5ZM23.2861 9.75V20.25C23.2861 21.5156 22.2549 22.5 21.0361 22.5H18.0361V14.7656C18.083 14.0625 17.5205 13.5 16.8174 13.5H11.8486C11.1455 13.5 10.583 14.0625 10.583 14.7656V22.5H7.58301C6.31738 22.5 5.33301 21.5156 5.33301 20.25V9.75C5.33301 9.75 5.28613 9.75 5.28613 9.70312L14.333 1.78125L23.333 9.70312C23.333 9.75 23.2861 9.75 23.2861 9.75Z" fill="white"/>
</svg>
