<svg width="20" height="17" viewBox="0 0 20 17" fill="none" xmlns="http://www.w3.org/2000/svg">
<path d="M18.2188 5.26172L13.4375 0.621094C13.1211 0.304688 12.5938 0.304688 12.2422 0.65625C11.9258 0.972656 11.9258 1.5 12.2773 1.85156L17.0234 6.45703C17.6211 7.05469 17.9375 7.79297 17.9375 8.60156C17.9375 9.41016 17.6211 10.1836 17.0234 10.7461L13.1211 14.7188C12.7695 15.0352 12.7695 15.5625 13.1211 15.9141C13.2617 16.0547 13.4727 16.125 13.7188 16.125C13.9297 16.125 14.1406 16.0547 14.3164 15.8789L18.2188 11.9414C19.1328 11.0625 19.625 9.86719 19.625 8.60156C19.625 7.33594 19.1328 6.17578 18.2188 5.26172ZM15.6523 7.19531L9.42969 0.972656C9.11328 0.65625 8.48047 0.375 8.02344 0.375H1.48438C0.921875 0.375 0.5 0.832031 0.5 1.35938V7.93359C0.5 8.39062 0.746094 9.02344 1.0625 9.33984L7.28516 15.5625C8.05859 16.3359 9.28906 16.3359 10.0625 15.5625L15.6523 9.97266C16.4258 9.19922 16.4258 7.96875 15.6523 7.19531ZM4.4375 5.4375C3.80469 5.4375 3.3125 4.94531 3.3125 4.3125C3.3125 3.71484 3.80469 3.1875 4.4375 3.1875C5.03516 3.1875 5.5625 3.71484 5.5625 4.3125C5.5625 4.94531 5.03516 5.4375 4.4375 5.4375Z" fill="white"/>
</svg>
