<svg width="35" height="36" viewBox="0 0 35 36" fill="none" xmlns="http://www.w3.org/2000/svg">
<path d="M31.25 35.5C33.2812 35.5 35 33.8594 35 31.75V4.25C35 2.21875 33.2812 0.5 31.25 0.5H3.75C1.64062 0.5 0 2.21875 0 4.25V31.75C0 33.8594 1.64062 35.5 3.75 35.5H31.25ZM19.6875 26.2031C20.4688 26.9062 20.4688 28.1562 19.7656 28.8594L18.9062 29.7188C18.2031 30.4219 16.9531 30.4219 16.25 29.7188L5.85938 19.3281C5.15625 18.625 5.15625 17.4531 5.85938 16.6719L16.25 6.35938C16.9531 5.57812 18.125 5.57812 18.9062 6.35938L19.7656 7.21875C20.4688 7.92188 20.4688 9.17188 19.6875 9.875L13.8281 15.5H28.125C29.1406 15.5 30 16.3594 30 17.375V18.625C30 19.7188 29.1406 20.5 28.125 20.5H13.8281L19.6875 26.2031Z" fill="white"/>
</svg>
