<svg width="35" height="36" viewBox="0 0 35 36" fill="none" xmlns="http://www.w3.org/2000/svg">
<path d="M3.75 0.5C1.64062 0.5 0 2.21875 0 4.25V31.75C0 33.8594 1.64062 35.5 3.75 35.5H31.25C33.2812 35.5 35 33.8594 35 31.75V4.25C35 2.21875 33.2812 0.5 31.25 0.5H3.75ZM15.2344 9.875C14.4531 9.17188 14.4531 7.92188 15.1562 7.21875L16.0156 6.35938C16.7969 5.57812 17.9688 5.57812 18.6719 6.35938L29.0625 16.75C29.7656 17.4531 29.7656 18.625 29.0625 19.3281L18.6719 29.7188C17.9688 30.4219 16.7969 30.4219 16.0156 29.7188L15.1562 28.8594C14.4531 28.1562 14.4531 26.9062 15.2344 26.2031L21.0938 20.5H6.875C5.78125 20.5 5 19.7188 5 18.625V17.375C5 16.3594 5.78125 15.5 6.875 15.5H21.0938L15.2344 9.875Z" fill="white"/>
</svg>
