<svg width="376" height="200" viewBox="0 0 376 200" fill="none" xmlns="http://www.w3.org/2000/svg">
<g clip-path="url(#clip0)">
<rect width="376" height="200" fill="#31AE8A"/>
<path d="M175.632 255.347C179.009 257.685 182.364 263.839 182.311 267.598C182.285 269.522 181.714 271.146 180.399 273.04C176.274 278.981 172.151 279.717 156.18 277.362C138.054 274.689 122.713 271.684 89.4056 264.284C80.428 262.289 72.3857 260.513 71.5334 260.337C69.5905 259.935 67.7757 261.284 67.5417 263.305C67.3803 264.693 67.8954 265.22 72.6348 268.511C78.0546 272.274 89.6544 278.596 108.821 288.232C131.591 299.68 136.218 304.837 130.75 312.677C128.734 315.569 123.642 318.934 120.762 319.277C117.722 319.64 112.115 318.087 99.4774 313.381C55.7974 297.115 20.0549 280.488 -3.86024 265.312C-28.0112 249.985 -50.4721 230.789 -55.7632 220.953C-62.8098 207.853 -64.89 190.009 -61.7154 169.897C-61.2404 166.889 -60.6589 163.95 -59.9788 161.095C-51.4577 123.052 -26.5787 96.0577 -12.538 86.4833C-10.6613 84.9168 0.504221 79.5077 9.74883 75.7601C22.3475 70.6524 33.8928 67.333 49.5347 64.3204C67.6128 60.8385 79.3273 60.9975 85.7671 64.8114C88.6306 66.5073 89.1159 67.0671 89.7473 69.401C91.2531 74.9633 86.7497 83.215 79.5043 88.1694C77.7007 89.4032 71.8699 92.3581 66.5477 94.7365C47.0623 103.445 43.9494 106.449 47.7745 112.864C49.7099 116.11 53.593 118.907 60.0394 121.7C70.3624 126.17 77.3513 127.533 104.164 130.304C130.784 133.055 149.613 135.581 166.025 138.604C177.458 140.709 181.711 144.326 180.861 151.219C180.479 154.323 176.298 160.097 173.962 160.747C171.802 161.35 146.064 163.902 117.931 166.303C104.452 167.455 92.6221 168.719 91.6439 169.114C87.6116 170.743 87.601 174.57 91.623 176.631C92.9372 177.304 110.238 181.201 130.07 185.291C171.656 193.865 189.18 197.85 192.269 199.433C195.347 201.011 199.292 206.142 200.182 209.726C201.447 214.822 198.487 220.339 193.239 222.666C189.653 224.256 180.16 224.204 135.32 222.345C101.765 220.954 89.3004 221.345 87.5991 223.843C85.125 227.475 87.8076 228.876 110.735 235.926C116.305 237.638 126.28 240.526 132.903 242.343C165.737 251.352 173.095 253.591 175.632 255.347Z" fill="#6E5C91"/>
<path d="M184.484 47.6546C180.856 48.6324 174.574 47.34 171.979 45.082C170.651 43.9267 169.854 42.5687 169.308 40.531C167.595 34.1387 169.517 30.824 180.598 21.059C193.175 9.97617 204.339 1.035 229.188 -17.8598C235.886 -22.9526 241.878 -27.5212 242.505 -28.0123C243.933 -29.1324 244.063 -31.1971 242.79 -32.5544C241.916 -33.4876 241.244 -33.4388 236.144 -32.0725C230.313 -30.51 219.043 -26.1423 200.987 -18.4465C179.536 -9.3044 173.2 -9.11965 170.954 -17.5709C170.125 -20.6883 170.783 -26.2335 172.245 -28.4484C173.788 -30.7866 178.186 -33.7852 188.94 -39.833C226.111 -60.7351 258.844 -75.8796 283.576 -83.6187C308.552 -91.4339 335.233 -95.782 345.23 -93.6667C358.544 -90.8491 372.239 -81.7588 384.412 -67.6582C386.233 -65.5491 387.943 -63.4061 389.535 -61.2445C411.076 -32.8142 415.233 0.514998 413.625 15.9803C413.611 18.2169 410.792 29.2126 407.948 37.8848C404.072 49.7035 399.569 59.7299 392.432 72.4367C384.183 87.1225 377.15 95.2118 370.681 97.457C367.804 98.4553 367.127 98.4635 365.123 97.5256C360.348 95.291 357.244 87.2695 358.064 79.2809C358.268 77.292 359.649 71.473 361.132 66.3498C366.562 47.593 366.302 43.6431 359.561 42.5247C356.15 41.9589 351.902 43.0188 346.142 45.8723C336.92 50.4421 331.838 54.5187 314.06 71.6119C296.41 88.5822 283.52 100.243 271.712 109.921C263.486 116.664 258.447 117.498 254.134 112.832C252.192 110.731 250.628 104.399 251.554 102.383C252.41 100.517 265.834 81.0302 280.779 59.959C287.939 49.8624 294.045 40.8518 294.347 39.9347C295.592 36.1558 292.925 33.8872 289.108 35.4789C287.861 35.9991 274.917 45.782 260.343 57.2197C229.782 81.2039 216.644 91.0909 213.713 92.3134C210.792 93.5313 204.877 93.2554 201.848 91.7593C197.54 89.632 195.435 84.3052 196.91 79.2633C197.918 75.8194 203.564 69.2189 231.356 38.9937C252.154 16.3758 259.245 7.43715 258.506 4.77306C257.43 0.898362 254.867 1.94471 236.395 13.7956C231.908 16.6746 223.997 21.9364 218.815 25.4894C193.121 43.1032 187.21 46.9197 184.484 47.6546Z" fill="#F49E7C"/>
<path d="M78.9833 142.418V144.92H72.7193V147.512H78.3533V149.906H72.7193V152.516H79.1813V155H69.9113V142.418H78.9833ZM90.3106 149.78V155H87.5926V149.708C87.5926 148.94 87.4726 148.376 87.2326 148.016C87.0046 147.656 86.6266 147.476 86.0986 147.476C85.5826 147.476 85.1206 147.674 84.7126 148.07C84.3166 148.454 84.1186 149.024 84.1186 149.78V155H81.4186V145.316H84.1186V146.414C84.8626 145.574 85.7146 145.154 86.6746 145.154C87.2866 145.154 87.8386 145.334 88.3306 145.694C88.8346 146.054 89.2126 146.492 89.4646 147.008C89.8366 146.42 90.3346 145.964 90.9586 145.64C91.5946 145.316 92.2306 145.154 92.8666 145.154C94.0066 145.154 94.9246 145.496 95.6206 146.18C96.3166 146.852 96.6646 147.83 96.6646 149.114V155H93.9466V149.708C93.9466 148.22 93.4006 147.476 92.3086 147.476C91.7686 147.476 91.3006 147.674 90.9046 148.07C90.5086 148.454 90.3106 149.024 90.3106 149.78ZM109.446 145.154C110.622 145.154 111.648 145.616 112.524 146.54C113.4 147.452 113.838 148.628 113.838 150.068C113.838 151.508 113.388 152.714 112.488 153.686C111.588 154.658 110.562 155.144 109.41 155.144C108.27 155.144 107.322 154.67 106.566 153.722V155H103.866V141.644H106.566V146.396C107.31 145.568 108.27 145.154 109.446 145.154ZM106.53 150.176C106.53 150.956 106.746 151.598 107.178 152.102C107.622 152.594 108.156 152.84 108.78 152.84C109.404 152.84 109.95 152.594 110.418 152.102C110.886 151.598 111.12 150.956 111.12 150.176C111.12 149.396 110.892 148.742 110.436 148.214C109.98 147.686 109.434 147.422 108.798 147.422C108.162 147.422 107.622 147.686 107.178 148.214C106.746 148.73 106.53 149.384 106.53 150.176ZM120.948 147.692C120.144 147.692 119.544 147.98 119.148 148.556C118.752 149.12 118.554 149.87 118.554 150.806V155H115.854V145.316H118.554V146.594C118.902 146.198 119.334 145.862 119.85 145.586C120.378 145.31 120.912 145.166 121.452 145.154L121.47 147.692H120.948ZM131.643 153.596C130.551 154.628 129.267 155.144 127.791 155.144C126.327 155.144 125.115 154.694 124.155 153.794C123.195 152.882 122.715 151.664 122.715 150.14C122.715 148.616 123.201 147.404 124.173 146.504C125.157 145.604 126.315 145.154 127.647 145.154C128.979 145.154 130.107 145.556 131.031 146.36C131.967 147.164 132.435 148.268 132.435 149.672V151.112H125.379C125.463 151.64 125.739 152.072 126.207 152.408C126.675 152.744 127.203 152.912 127.791 152.912C128.739 152.912 129.519 152.594 130.131 151.958L131.643 153.596ZM129.699 149.186C129.639 148.61 129.423 148.166 129.051 147.854C128.679 147.542 128.223 147.386 127.683 147.386C127.155 147.386 126.669 147.548 126.225 147.872C125.781 148.196 125.523 148.634 125.451 149.186H129.699ZM136.851 155L133.017 145.298H135.825L138.237 151.4L140.649 145.298H143.457L139.623 155H136.851ZM153.176 153.596C152.084 154.628 150.8 155.144 149.324 155.144C147.86 155.144 146.648 154.694 145.688 153.794C144.728 152.882 144.248 151.664 144.248 150.14C144.248 148.616 144.734 147.404 145.706 146.504C146.69 145.604 147.848 145.154 149.18 145.154C150.512 145.154 151.64 145.556 152.564 146.36C153.5 147.164 153.968 148.268 153.968 149.672V151.112H146.912C146.996 151.64 147.272 152.072 147.74 152.408C148.208 152.744 148.736 152.912 149.324 152.912C150.272 152.912 151.052 152.594 151.664 151.958L153.176 153.596ZM151.232 149.186C151.172 148.61 150.956 148.166 150.584 147.854C150.212 147.542 149.756 147.386 149.216 147.386C148.688 147.386 148.202 147.548 147.758 147.872C147.314 148.196 147.056 148.634 146.984 149.186H151.232Z" fill="white"/>
<path d="M132.5 82.375H130.312V71.4375C130.312 60.6367 121.426 51.75 110.625 51.75C99.6875 51.75 90.9375 60.6367 90.9375 71.4375V82.375H88.75C83.8281 82.375 80 86.2031 80 91.125V113C80 117.785 83.8281 121.75 88.75 121.75H132.5C137.285 121.75 141.25 117.785 141.25 113V91.125C141.25 86.3398 137.285 82.375 132.5 82.375ZM99.6875 71.4375C99.6875 65.4219 104.473 60.5 110.625 60.5C116.641 60.5 121.562 65.4219 121.562 71.4375V82.375H99.6875V71.4375Z" fill="white"/>
</g>
<defs>
<clipPath id="clip0">
<rect width="376" height="200" fill="white"/>
</clipPath>
</defs>
</svg>
