<svg width="376" height="200" viewBox="0 0 376 200" fill="none" xmlns="http://www.w3.org/2000/svg">
<g clip-path="url(#clip0)">
<rect width="376" height="200" fill="#6E5C91"/>
<path d="M128.399 284.926C129.467 288.891 128.055 295.757 125.587 298.593C124.324 300.045 122.84 300.916 120.612 301.513C113.626 303.385 110.003 301.285 99.3299 289.173C87.2165 275.426 77.4439 263.225 56.7922 236.065C51.2258 228.744 46.2324 222.195 45.6956 221.509C44.4714 219.948 42.2147 219.806 40.7312 221.198C39.7112 222.154 39.7645 222.888 41.2579 228.462C42.9657 234.835 47.7395 247.153 56.1509 266.888C66.1431 290.333 66.3451 297.259 57.1079 299.714C53.7006 300.62 47.6399 299.9 45.219 298.303C42.6634 296.616 39.386 291.81 32.7758 280.055C9.93012 239.428 -6.62269 203.651 -15.0813 176.619C-23.6233 149.321 -28.3757 120.159 -26.0638 109.233C-22.9841 94.6802 -13.0486 79.7122 2.36322 66.4069C4.66839 64.4169 7.01066 62.5481 9.37332 60.8079C40.4472 37.2643 76.8755 32.7202 93.7789 34.4774C96.2234 34.4932 108.242 37.5739 117.72 40.6827C130.638 44.9189 141.597 49.8404 155.485 57.6417C171.536 66.6579 180.378 74.3444 182.832 81.4151C183.923 84.5591 183.932 85.3 182.907 87.4897C180.464 92.709 171.697 96.1011 162.966 95.2049C160.792 94.9821 154.432 93.4728 148.832 91.8516C128.331 85.9169 124.014 86.2009 122.792 93.5691C122.173 97.2973 123.332 101.94 126.45 108.235C131.445 118.315 135.901 123.869 154.583 143.301C173.132 162.592 185.877 176.68 196.455 189.586C203.825 198.577 204.736 204.085 199.636 208.799C197.34 210.922 190.419 212.631 188.216 211.619C186.177 210.684 164.878 196.012 141.847 179.677C130.812 171.851 120.963 165.177 119.961 164.847C115.83 163.486 113.351 166.402 115.091 170.573C115.659 171.936 126.352 186.083 138.853 202.013C165.067 235.416 175.874 249.776 177.21 252.979C178.541 256.171 178.24 262.637 176.604 265.948C174.279 270.656 168.457 272.956 162.946 271.344C159.182 270.242 151.968 264.072 118.932 233.695C94.2112 210.963 84.4414 203.213 81.5296 204.021C77.2946 205.197 78.4382 207.998 91.3911 228.188C94.5378 233.091 100.289 241.738 104.172 247.403C123.424 275.485 127.595 281.947 128.399 284.926Z" fill="#EA6667"/>
<path d="M436.12 -71.2483C439.371 -73.1317 445.774 -73.5093 448.865 -71.9997C450.446 -71.2276 451.568 -70.1222 452.623 -68.2952C455.932 -62.5641 454.933 -58.8649 446.757 -46.5646C437.477 -32.6041 429.008 -21.0784 409.896 3.60408C404.744 10.2569 400.138 16.2208 399.66 16.8574C398.57 18.309 398.979 20.337 400.56 21.3185C401.646 21.9935 402.283 21.7725 406.855 19.1329C412.083 16.1145 421.838 8.97869 437.287 -3.12806C455.641 -17.5106 461.714 -19.3289 466.07 -11.747C467.678 -8.9503 468.477 -3.42374 467.639 -0.906074C466.754 1.75177 463.282 5.78648 454.459 14.4116C423.965 44.2221 396.267 67.3225 374.38 81.1989C352.278 95.2122 327.632 106.318 317.428 106.862C303.838 107.586 288.257 102.35 272.849 91.8807C270.545 90.3147 268.339 88.6872 266.241 87.0113C238.076 65.1249 225.434 34.0074 222.984 18.653C222.419 16.4889 222.296 5.13832 222.799 -3.97451C223.484 -16.3937 225.238 -27.2438 228.844 -41.365C233.011 -57.6855 237.71 -67.3193 243.378 -71.1623C245.898 -72.8711 246.551 -73.0545 248.728 -72.667C253.919 -71.7445 258.993 -64.7996 260.269 -56.871C260.587 -54.8971 260.759 -48.9189 260.652 -43.5865C260.262 -24.0634 261.535 -20.3153 268.336 -20.9799C271.778 -21.3161 275.607 -23.4394 280.431 -27.6863C288.157 -34.4873 292.01 -39.7403 304.758 -60.8523C317.415 -81.8127 326.847 -96.412 335.748 -108.817C341.949 -117.459 346.6 -119.569 351.974 -116.178C354.394 -114.651 357.543 -108.939 357.171 -106.753C356.827 -104.729 348.904 -82.4316 339.922 -58.2104C335.619 -46.6047 332.053 -36.3207 331.999 -35.3568C331.774 -31.3844 334.938 -29.8834 338.212 -32.4086C339.282 -33.2338 349.253 -46.0335 360.37 -60.8536C383.683 -91.9304 393.814 -104.881 396.328 -106.82C398.834 -108.753 404.62 -110.017 407.933 -109.356C412.644 -108.416 416.056 -103.816 415.936 -98.5637C415.854 -94.9763 412.109 -87.1395 393.087 -50.751C378.851 -23.5209 374.315 -13.0515 375.719 -10.6695C377.761 -7.2053 379.966 -8.87947 394.741 -25.1074C398.33 -29.0495 404.61 -36.1796 408.696 -40.9528C428.955 -64.6164 433.677 -69.833 436.12 -71.2483Z" fill="#4ABF9F"/>
<path d="M78.9833 142.418V144.92H72.7193V147.512H78.3533V149.906H72.7193V152.516H79.1813V155H69.9113V142.418H78.9833ZM90.3106 149.78V155H87.5926V149.708C87.5926 148.94 87.4726 148.376 87.2326 148.016C87.0046 147.656 86.6266 147.476 86.0986 147.476C85.5826 147.476 85.1206 147.674 84.7126 148.07C84.3166 148.454 84.1186 149.024 84.1186 149.78V155H81.4186V145.316H84.1186V146.414C84.8626 145.574 85.7146 145.154 86.6746 145.154C87.2866 145.154 87.8386 145.334 88.3306 145.694C88.8346 146.054 89.2126 146.492 89.4646 147.008C89.8366 146.42 90.3346 145.964 90.9586 145.64C91.5946 145.316 92.2306 145.154 92.8666 145.154C94.0066 145.154 94.9246 145.496 95.6206 146.18C96.3166 146.852 96.6646 147.83 96.6646 149.114V155H93.9466V149.708C93.9466 148.22 93.4006 147.476 92.3086 147.476C91.7686 147.476 91.3006 147.674 90.9046 148.07C90.5086 148.454 90.3106 149.024 90.3106 149.78ZM109.446 145.154C110.622 145.154 111.648 145.616 112.524 146.54C113.4 147.452 113.838 148.628 113.838 150.068C113.838 151.508 113.388 152.714 112.488 153.686C111.588 154.658 110.562 155.144 109.41 155.144C108.27 155.144 107.322 154.67 106.566 153.722V155H103.866V141.644H106.566V146.396C107.31 145.568 108.27 145.154 109.446 145.154ZM106.53 150.176C106.53 150.956 106.746 151.598 107.178 152.102C107.622 152.594 108.156 152.84 108.78 152.84C109.404 152.84 109.95 152.594 110.418 152.102C110.886 151.598 111.12 150.956 111.12 150.176C111.12 149.396 110.892 148.742 110.436 148.214C109.98 147.686 109.434 147.422 108.798 147.422C108.162 147.422 107.622 147.686 107.178 148.214C106.746 148.73 106.53 149.384 106.53 150.176ZM120.948 147.692C120.144 147.692 119.544 147.98 119.148 148.556C118.752 149.12 118.554 149.87 118.554 150.806V155H115.854V145.316H118.554V146.594C118.902 146.198 119.334 145.862 119.85 145.586C120.378 145.31 120.912 145.166 121.452 145.154L121.47 147.692H120.948ZM131.643 153.596C130.551 154.628 129.267 155.144 127.791 155.144C126.327 155.144 125.115 154.694 124.155 153.794C123.195 152.882 122.715 151.664 122.715 150.14C122.715 148.616 123.201 147.404 124.173 146.504C125.157 145.604 126.315 145.154 127.647 145.154C128.979 145.154 130.107 145.556 131.031 146.36C131.967 147.164 132.435 148.268 132.435 149.672V151.112H125.379C125.463 151.64 125.739 152.072 126.207 152.408C126.675 152.744 127.203 152.912 127.791 152.912C128.739 152.912 129.519 152.594 130.131 151.958L131.643 153.596ZM129.699 149.186C129.639 148.61 129.423 148.166 129.051 147.854C128.679 147.542 128.223 147.386 127.683 147.386C127.155 147.386 126.669 147.548 126.225 147.872C125.781 148.196 125.523 148.634 125.451 149.186H129.699ZM136.851 155L133.017 145.298H135.825L138.237 151.4L140.649 145.298H143.457L139.623 155H136.851ZM153.176 153.596C152.084 154.628 150.8 155.144 149.324 155.144C147.86 155.144 146.648 154.694 145.688 153.794C144.728 152.882 144.248 151.664 144.248 150.14C144.248 148.616 144.734 147.404 145.706 146.504C146.69 145.604 147.848 145.154 149.18 145.154C150.512 145.154 151.64 145.556 152.564 146.36C153.5 147.164 153.968 148.268 153.968 149.672V151.112H146.912C146.996 151.64 147.272 152.072 147.74 152.408C148.208 152.744 148.736 152.912 149.324 152.912C150.272 152.912 151.052 152.594 151.664 151.958L153.176 153.596ZM151.232 149.186C151.172 148.61 150.956 148.166 150.584 147.854C150.212 147.542 149.756 147.386 149.216 147.386C148.688 147.386 148.202 147.548 147.758 147.872C147.314 148.196 147.056 148.634 146.984 149.186H151.232Z" fill="white"/>
<path d="M132.5 82.375H130.312V71.4375C130.312 60.6367 121.426 51.75 110.625 51.75C99.6875 51.75 90.9375 60.6367 90.9375 71.4375V82.375H88.75C83.8281 82.375 80 86.2031 80 91.125V113C80 117.785 83.8281 121.75 88.75 121.75H132.5C137.285 121.75 141.25 117.785 141.25 113V91.125C141.25 86.3398 137.285 82.375 132.5 82.375ZM99.6875 71.4375C99.6875 65.4219 104.473 60.5 110.625 60.5C116.641 60.5 121.562 65.4219 121.562 71.4375V82.375H99.6875V71.4375Z" fill="white"/>
</g>
<defs>
<clipPath id="clip0">
<rect width="376" height="200" fill="white"/>
</clipPath>
</defs>
</svg>
