<svg width="376" height="200" viewBox="0 0 376 200" fill="none" xmlns="http://www.w3.org/2000/svg">
<g clip-path="url(#clip0)">
<rect width="376" height="200" fill="#876CB0"/>
<path d="M131.413 362.134C133.471 365.687 133.884 372.685 132.234 376.063C131.39 377.792 130.182 379.018 128.185 380.171C121.921 383.787 117.878 382.696 104.434 373.759C89.1753 363.616 76.5778 354.36 49.6002 333.47C42.3288 327.84 35.8104 322.806 35.1146 322.283C33.528 321.092 31.3114 321.539 30.2386 323.267C29.5008 324.454 29.7424 325.15 32.6274 330.147C35.9265 335.861 43.7258 346.524 56.9584 363.409C72.6783 383.47 74.6657 390.107 66.3787 394.869C63.322 396.626 57.2815 397.499 54.5298 396.583C51.6248 395.615 47.2149 391.821 37.7878 382.178C5.20532 348.847 -20.0431 318.574 -35.2099 294.653C-50.5262 270.495 -62.6642 243.557 -63.2591 232.405C-64.0508 217.551 -58.3278 200.521 -46.8849 183.681C-45.1733 181.162 -43.3945 178.75 -41.5627 176.458C-17.6412 145.674 16.3698 131.856 33.1519 129.179C35.5173 128.561 47.9233 128.427 57.8835 128.976C71.4575 129.725 83.3165 131.642 98.7507 135.583C116.589 140.138 127.118 145.274 131.319 151.469C133.186 154.223 133.387 154.936 132.963 157.317C131.955 162.99 124.364 168.536 115.699 169.93C113.541 170.278 107.007 170.466 101.179 170.349C79.8404 169.923 75.7437 171.315 76.4701 178.748C76.8376 182.509 79.1584 186.694 83.8002 191.968C91.2336 200.411 96.975 204.623 120.05 218.557C142.96 232.39 158.916 242.7 172.475 252.428C181.92 259.205 184.226 264.289 180.52 270.163C178.852 272.808 172.609 276.25 170.218 275.843C168.007 275.467 143.636 266.807 117.163 256.99C104.478 252.287 93.2374 248.389 92.1839 248.33C87.8422 248.085 86.2016 251.542 88.9616 255.121C89.8635 256.29 103.853 267.188 120.052 279.34C154.018 304.82 168.173 315.893 170.292 318.641C172.405 321.381 173.787 327.704 173.064 331.325C172.037 336.474 167.008 340.203 161.268 340.072C157.347 339.983 148.782 335.89 109.01 315.098C79.2474 299.539 67.8045 294.581 65.2011 296.116C61.4147 298.347 63.2446 300.758 80.9814 316.906C85.2901 320.829 93.0832 327.693 98.3003 332.159C124.164 354.302 129.866 359.464 131.413 362.134Z" fill="#6BC2EF"/>
<path d="M184.483 47.6546C180.856 48.6324 174.574 47.34 171.979 45.0819C170.651 43.9267 169.854 42.5687 169.308 40.5309C167.595 34.1387 169.517 30.8239 180.598 21.059C193.175 9.97611 204.338 1.03493 229.188 -17.8599C235.885 -22.9527 241.878 -27.5213 242.505 -28.0124C243.933 -29.1325 244.063 -31.1972 242.79 -32.5545C241.915 -33.4877 241.243 -33.4389 236.144 -32.0726C230.313 -30.5101 219.043 -26.1424 200.987 -18.4466C179.536 -9.30446 173.2 -9.11971 170.954 -17.571C170.125 -20.6884 170.783 -26.2336 172.245 -28.4485C173.788 -30.7866 178.186 -33.7852 188.94 -39.833C226.111 -60.7351 258.844 -75.8797 283.576 -83.6187C308.552 -91.434 335.233 -95.782 345.23 -93.6668C358.544 -90.8492 372.239 -81.7589 384.412 -67.6583C386.233 -65.5492 387.943 -63.4062 389.535 -61.2445C411.075 -32.8143 415.233 0.514922 413.625 15.9802C413.611 18.2168 410.792 29.2125 407.948 37.8847C404.072 49.7034 399.569 59.7298 392.432 72.4366C384.182 87.1224 377.15 95.2117 370.681 97.4569C367.804 98.4552 367.126 98.4635 365.123 97.5255C360.348 95.2909 357.244 87.2695 358.064 79.2809C358.268 77.292 359.649 71.4729 361.132 66.3498C366.562 47.5929 366.302 43.643 359.561 42.5247C356.15 41.9588 351.901 43.0187 346.142 45.8722C336.92 50.442 331.838 54.5186 314.06 71.6118C296.41 88.5822 283.52 100.243 271.712 109.921C263.486 116.664 258.447 117.498 254.134 112.832C252.191 110.731 250.628 104.399 251.554 102.383C252.41 100.517 265.834 81.0301 280.778 59.9589C287.939 49.8623 294.045 40.8517 294.347 39.9347C295.592 36.1558 292.924 33.8871 289.108 35.4788C287.861 35.999 274.917 45.7819 260.343 57.2196C229.781 81.2038 216.643 91.0909 213.713 92.3133C210.792 93.5313 204.877 93.2553 201.847 91.7593C197.54 89.6319 195.435 84.3051 196.91 79.2632C197.918 75.8194 203.564 69.2189 231.356 38.9936C252.154 16.3757 259.245 7.43708 258.506 4.773C257.43 0.898295 254.866 1.94464 236.395 13.7956C231.908 16.6746 223.997 21.9364 218.814 25.4893C193.121 43.1031 187.209 46.9197 184.483 47.6546Z" fill="#4ABF9F"/>
<path d="M78.9833 142.418V144.92H72.7193V147.512H78.3533V149.906H72.7193V152.516H79.1813V155H69.9113V142.418H78.9833ZM90.3106 149.78V155H87.5926V149.708C87.5926 148.94 87.4726 148.376 87.2326 148.016C87.0046 147.656 86.6266 147.476 86.0986 147.476C85.5826 147.476 85.1206 147.674 84.7126 148.07C84.3166 148.454 84.1186 149.024 84.1186 149.78V155H81.4186V145.316H84.1186V146.414C84.8626 145.574 85.7146 145.154 86.6746 145.154C87.2866 145.154 87.8386 145.334 88.3306 145.694C88.8346 146.054 89.2126 146.492 89.4646 147.008C89.8366 146.42 90.3346 145.964 90.9586 145.64C91.5946 145.316 92.2306 145.154 92.8666 145.154C94.0066 145.154 94.9246 145.496 95.6206 146.18C96.3166 146.852 96.6646 147.83 96.6646 149.114V155H93.9466V149.708C93.9466 148.22 93.4006 147.476 92.3086 147.476C91.7686 147.476 91.3006 147.674 90.9046 148.07C90.5086 148.454 90.3106 149.024 90.3106 149.78ZM109.446 145.154C110.622 145.154 111.648 145.616 112.524 146.54C113.4 147.452 113.838 148.628 113.838 150.068C113.838 151.508 113.388 152.714 112.488 153.686C111.588 154.658 110.562 155.144 109.41 155.144C108.27 155.144 107.322 154.67 106.566 153.722V155H103.866V141.644H106.566V146.396C107.31 145.568 108.27 145.154 109.446 145.154ZM106.53 150.176C106.53 150.956 106.746 151.598 107.178 152.102C107.622 152.594 108.156 152.84 108.78 152.84C109.404 152.84 109.95 152.594 110.418 152.102C110.886 151.598 111.12 150.956 111.12 150.176C111.12 149.396 110.892 148.742 110.436 148.214C109.98 147.686 109.434 147.422 108.798 147.422C108.162 147.422 107.622 147.686 107.178 148.214C106.746 148.73 106.53 149.384 106.53 150.176ZM120.948 147.692C120.144 147.692 119.544 147.98 119.148 148.556C118.752 149.12 118.554 149.87 118.554 150.806V155H115.854V145.316H118.554V146.594C118.902 146.198 119.334 145.862 119.85 145.586C120.378 145.31 120.912 145.166 121.452 145.154L121.47 147.692H120.948ZM131.643 153.596C130.551 154.628 129.267 155.144 127.791 155.144C126.327 155.144 125.115 154.694 124.155 153.794C123.195 152.882 122.715 151.664 122.715 150.14C122.715 148.616 123.201 147.404 124.173 146.504C125.157 145.604 126.315 145.154 127.647 145.154C128.979 145.154 130.107 145.556 131.031 146.36C131.967 147.164 132.435 148.268 132.435 149.672V151.112H125.379C125.463 151.64 125.739 152.072 126.207 152.408C126.675 152.744 127.203 152.912 127.791 152.912C128.739 152.912 129.519 152.594 130.131 151.958L131.643 153.596ZM129.699 149.186C129.639 148.61 129.423 148.166 129.051 147.854C128.679 147.542 128.223 147.386 127.683 147.386C127.155 147.386 126.669 147.548 126.225 147.872C125.781 148.196 125.523 148.634 125.451 149.186H129.699ZM136.851 155L133.017 145.298H135.825L138.237 151.4L140.649 145.298H143.457L139.623 155H136.851ZM153.176 153.596C152.084 154.628 150.8 155.144 149.324 155.144C147.86 155.144 146.648 154.694 145.688 153.794C144.728 152.882 144.248 151.664 144.248 150.14C144.248 148.616 144.734 147.404 145.706 146.504C146.69 145.604 147.848 145.154 149.18 145.154C150.512 145.154 151.64 145.556 152.564 146.36C153.5 147.164 153.968 148.268 153.968 149.672V151.112H146.912C146.996 151.64 147.272 152.072 147.74 152.408C148.208 152.744 148.736 152.912 149.324 152.912C150.272 152.912 151.052 152.594 151.664 151.958L153.176 153.596ZM151.232 149.186C151.172 148.61 150.956 148.166 150.584 147.854C150.212 147.542 149.756 147.386 149.216 147.386C148.688 147.386 148.202 147.548 147.758 147.872C147.314 148.196 147.056 148.634 146.984 149.186H151.232Z" fill="white"/>
<path d="M132.5 82.375H130.312V71.4375C130.312 60.6367 121.426 51.75 110.625 51.75C99.6875 51.75 90.9375 60.6367 90.9375 71.4375V82.375H88.75C83.8281 82.375 80 86.2031 80 91.125V113C80 117.785 83.8281 121.75 88.75 121.75H132.5C137.285 121.75 141.25 117.785 141.25 113V91.125C141.25 86.3398 137.285 82.375 132.5 82.375ZM99.6875 71.4375C99.6875 65.4219 104.473 60.5 110.625 60.5C116.641 60.5 121.562 65.4219 121.562 71.4375V82.375H99.6875V71.4375Z" fill="white"/>
</g>
<defs>
<clipPath id="clip0">
<rect width="376" height="200" fill="white"/>
</clipPath>
</defs>
</svg>
