<svg width="376" height="200" viewBox="0 0 376 200" fill="none" xmlns="http://www.w3.org/2000/svg">
<g clip-path="url(#clip0)">
<rect width="376" height="200" fill="#86CFC7"/>
<path d="M129.003 264.127C131.911 267.026 134.121 273.679 133.401 277.369C133.034 279.257 132.184 280.754 130.553 282.385C125.439 287.499 121.251 287.491 105.952 282.339C88.5882 276.49 74.0243 270.81 42.5594 257.615C34.0785 254.058 26.4792 250.883 25.6718 250.558C23.831 249.818 21.8055 250.823 21.2166 252.77C20.8112 254.108 21.2247 254.717 25.3047 258.797C29.9703 263.463 40.2636 271.744 57.4155 284.629C77.7918 299.937 81.4293 305.834 74.6572 312.578C72.1594 315.067 66.5509 317.474 63.6557 317.301C60.5993 317.118 55.3575 314.594 43.7558 307.72C3.65708 283.958 -28.5664 261.251 -49.4077 242.07C-70.4544 222.7 -89.1509 199.822 -92.612 189.203C-97.2213 175.06 -96.1008 157.13 -89.4065 137.901C-88.4051 135.025 -87.3111 132.236 -86.135 129.547C-70.9961 93.621 -41.7203 71.4715 -26.203 64.5416C-24.078 63.3331 -12.1296 59.9919 -2.36657 57.9449C10.9387 55.1547 22.8899 53.9375 38.8182 53.7495C57.2272 53.532 68.7274 55.768 74.388 60.6644C76.9049 62.8417 77.2832 63.4788 77.4902 65.8877C77.9847 71.629 72.088 78.9502 64.0782 82.5398C62.0842 83.4337 55.8215 85.3067 50.1617 86.7026C29.4399 91.8134 25.8431 94.2179 28.4686 101.21C29.7971 104.748 33.122 108.19 38.9704 112.082C48.3359 118.314 54.9717 120.896 80.8669 128.383C106.576 135.816 124.657 141.644 140.272 147.532C151.149 151.633 154.693 155.947 152.633 162.58C151.706 165.567 146.567 170.507 144.152 170.733C141.919 170.942 116.137 168.885 88.0251 166.254C74.5551 164.994 62.689 164.139 61.6561 164.354C57.3988 165.241 56.709 169.005 60.3012 171.748C61.475 172.644 77.8089 179.55 96.6002 187.095C136.004 202.915 152.542 209.948 155.301 212.054C158.05 214.153 161.022 219.903 161.261 223.588C161.601 228.828 157.71 233.731 152.131 235.09C148.321 236.018 138.987 234.282 95.1894 224.493C62.4144 217.167 50.0782 215.339 47.9605 217.495C44.8808 220.631 47.2722 222.486 68.5842 233.493C73.7613 236.167 83.0654 240.78 89.2606 243.744C119.974 258.438 126.818 261.948 129.003 264.127Z" fill="#F27877"/>
<path d="M37.4453 80.1445C37.5625 81.2461 37.6445 83.2969 37.6914 86.2969C37.7617 89.2969 37.8203 92.4141 37.8672 95.6484C37.9141 98.8828 37.9609 101.812 38.0078 104.438C38.0781 107.039 38.1719 108.504 38.2891 108.832C38.4531 109.371 39.2266 109.676 40.6094 109.746C42.0156 109.793 43.5742 109.77 45.2852 109.676C47.0195 109.582 48.6836 109.488 50.2773 109.395C51.8711 109.277 52.9609 109.312 53.5469 109.5C54.3906 109.781 55.0703 111.012 55.5859 113.191C56.125 115.348 56.4648 117.691 56.6055 120.223C56.7695 122.73 56.7109 125.051 56.4297 127.184C56.1484 129.293 55.6094 130.441 54.8125 130.629C53.6172 130.934 51.2266 131.227 47.6406 131.508C44.0781 131.766 40.3047 131.918 36.3203 131.965C32.3359 132.012 28.6445 131.895 25.2461 131.613C21.8477 131.332 19.75 130.77 18.9531 129.926C18.1562 129.082 17.5352 126.352 17.0898 121.734C16.668 117.117 16.375 112.043 16.2109 106.512C16.0703 100.98 16.0117 95.7188 16.0352 90.7266C16.082 85.7344 16.1992 82.4297 16.3867 80.8125C16.4805 79.8516 17.6172 79.1484 19.7969 78.7031C21.9766 78.2578 24.3555 78.0352 26.9336 78.0352C29.5117 78.0117 31.8789 78.1875 34.0352 78.5625C36.2148 78.9375 37.3516 79.4648 37.4453 80.1445ZM81.3555 113.297C85.457 113.25 89.1602 113.133 92.4648 112.945C95.7695 112.758 97.7148 112.98 98.3008 113.613C98.9336 114.129 99.3906 116.367 99.6719 120.328C99.9766 124.289 99.8711 127.16 99.3555 128.941C99.1211 129.691 97.2812 130.312 93.8359 130.805C90.3906 131.297 86.5234 131.637 82.2344 131.824C77.9453 131.988 73.832 132.012 69.8945 131.895C65.957 131.777 63.3906 131.461 62.1953 130.945C61.4922 130.664 60.9062 128.777 60.4375 125.285C59.9922 121.77 59.6406 117.668 59.3828 112.98C59.125 108.27 58.9727 103.477 58.9258 98.6016C58.8789 93.7031 58.9258 89.7188 59.0664 86.6484C59.0664 84.9609 59.207 83.4258 59.4883 82.043C59.7695 80.6367 60.2031 79.7578 60.7891 79.4062C61.375 79.0547 63.4375 78.75 66.9766 78.4922C70.5156 78.2344 74.3359 78.082 78.4375 78.0352C82.5391 77.9648 86.3359 78.0352 89.8281 78.2461C93.3203 78.4336 95.3242 78.7852 95.8398 79.3008C96.4727 79.8164 96.8242 81.8555 96.8945 85.418C96.9883 88.957 96.7773 91.6289 96.2617 93.4336C96.0039 94.2773 94.3516 94.8047 91.3047 95.0156C88.2812 95.2031 84.7422 95.3672 80.6875 95.5078C80.6875 95.7891 80.6992 96.1172 80.7227 96.4922C80.7461 96.8672 80.7695 97.1953 80.793 97.4766C83.4414 97.5234 85.5977 97.7227 87.2617 98.0742C87.6602 98.1914 88.0469 98.8945 88.4219 100.184C88.8203 101.449 89.0898 102.844 89.2305 104.367C89.3945 105.867 89.3945 107.262 89.2305 108.551C89.0664 109.84 88.6562 110.531 88 110.625C87.5312 110.766 86.6758 110.895 85.4336 111.012C84.2148 111.105 82.8555 111.176 81.3555 111.223C81.3555 111.527 81.3555 111.879 81.3555 112.277C81.3555 112.676 81.3555 113.016 81.3555 113.297ZM155.957 108.902C154.738 116.285 151.152 122.238 145.199 126.762C139.27 131.285 132.367 132.891 124.492 131.578C116.898 130.312 110.922 126.691 106.562 120.715C102.203 114.738 100.609 108.117 101.781 100.852C102.883 94.1016 106.141 88.4414 111.555 83.8711C116.992 79.2773 123.309 77.2969 130.504 77.9297C139.176 78.6797 145.914 81.9727 150.719 87.8086C155.547 93.6445 157.293 100.676 155.957 108.902ZM135.777 105.914C136.105 103.898 135.719 102.188 134.617 100.781C133.539 99.3516 131.957 98.4609 129.871 98.1094C127.902 97.7812 126.168 98.2148 124.668 99.4102C123.168 100.582 122.277 102.07 121.996 103.875C121.621 106.055 122.23 107.988 123.824 109.676C125.418 111.34 127.387 112.031 129.73 111.75C131.348 111.586 132.695 110.953 133.773 109.852C134.852 108.75 135.52 107.438 135.777 105.914Z" fill="white"/>
<path d="M234.646 -96.8689C231.281 -100.224 228.724 -107.921 229.557 -112.191C229.982 -114.376 230.965 -116.108 232.852 -117.995C238.77 -123.913 243.616 -123.904 261.318 -117.942C281.409 -111.175 298.261 -104.602 334.669 -89.3342C344.482 -85.2188 353.275 -81.5444 354.209 -81.1684C356.339 -80.3123 358.683 -81.4755 359.364 -83.7282C359.833 -85.2763 359.355 -85.9815 354.634 -90.7024C349.235 -96.1009 337.325 -105.683 317.479 -120.592C293.902 -138.305 289.693 -145.128 297.529 -152.932C300.419 -155.811 306.908 -158.596 310.258 -158.396C313.795 -158.185 319.86 -155.264 333.284 -147.31C379.682 -119.816 416.968 -93.5416 441.083 -71.3477C465.436 -48.9347 487.069 -22.4623 491.074 -10.1756C496.407 6.18888 495.111 26.9359 487.365 49.1851C486.206 52.5129 484.94 55.7407 483.58 58.8513C466.062 100.421 432.188 126.05 414.233 134.069C411.774 135.467 397.949 139.333 386.652 141.702C371.257 144.93 357.428 146.339 338.998 146.556C317.697 146.808 304.39 144.221 297.84 138.555C294.928 136.036 294.49 135.299 294.251 132.511C293.679 125.868 300.502 117.397 309.77 113.243C312.077 112.209 319.323 110.042 325.872 108.427C349.849 102.513 354.011 99.7306 350.973 91.64C349.436 87.5462 345.589 83.5637 338.822 79.0602C327.985 71.8492 320.307 68.8613 290.344 60.1987C260.596 51.5982 239.674 44.8543 221.607 38.0417C209.021 33.2959 204.921 28.3042 207.304 20.6294C208.377 17.1738 214.323 11.4573 217.117 11.1964C219.701 10.9542 249.533 13.3343 282.061 16.3784C297.647 17.836 311.377 18.8262 312.572 18.5768C317.498 17.5507 318.296 13.195 314.14 10.0217C312.782 8.98502 293.882 0.99425 272.139 -7.73593C226.545 -26.042 207.409 -34.1792 204.217 -36.6159C201.036 -39.0449 197.597 -45.698 197.32 -49.9618C196.927 -56.0248 201.43 -61.6984 207.885 -63.2711C212.294 -64.345 223.093 -62.3354 273.771 -51.0088C311.695 -42.532 325.969 -40.4176 328.419 -42.912C331.983 -46.5404 329.216 -48.6864 304.556 -61.4234C298.565 -64.5169 287.8 -69.8545 280.631 -73.2839C245.093 -90.2866 237.175 -94.348 234.646 -96.8689Z" fill="#5AC1EE"/>
</g>
<defs>
<clipPath id="clip0">
<rect width="376" height="200" fill="white"/>
</clipPath>
</defs>
</svg>
