<svg width="376" height="200" viewBox="0 0 376 200" fill="none" xmlns="http://www.w3.org/2000/svg">
<g clip-path="url(#clip0)">
<rect width="376" height="200" fill="#47B2D6"/>
<path d="M198.118 105.245C201.671 103.186 208.669 102.774 212.047 104.423C213.776 105.267 215.002 106.476 216.155 108.472C219.771 114.736 218.68 118.78 209.743 132.224C199.6 147.482 190.344 160.08 169.455 187.057C163.824 194.329 158.79 200.847 158.267 201.543C157.076 203.13 157.523 205.346 159.251 206.419C160.438 207.157 161.134 206.915 166.131 204.03C171.845 200.731 182.508 192.932 199.393 179.699C219.454 163.979 226.091 161.992 230.853 170.279C232.61 173.336 233.483 179.376 232.567 182.128C231.6 185.033 227.805 189.443 218.162 198.87C184.832 231.452 154.558 256.701 130.637 271.867C106.479 287.184 79.5414 299.322 68.3888 299.917C53.5349 300.708 36.5055 294.985 19.6647 283.542C17.1459 281.831 14.7346 280.052 12.4422 278.22C-18.3418 254.299 -32.1594 220.288 -34.8369 203.506C-35.4543 201.14 -35.5891 188.734 -35.0396 178.774C-34.291 165.2 -32.3736 153.341 -28.4326 137.907C-23.8781 120.069 -18.7418 109.539 -12.5472 105.339C-9.79266 103.471 -9.07938 103.271 -6.69899 103.694C-1.02532 104.702 4.52026 112.293 5.91447 120.959C6.26187 123.116 6.45015 129.65 6.33352 135.479C5.90705 156.817 7.29871 160.914 14.7322 160.187C18.4934 159.82 22.6786 157.499 27.9517 152.857C36.3954 145.424 40.6071 139.683 54.5408 116.607C68.3744 93.698 78.6839 77.7412 88.4124 64.1827C95.1894 54.7374 100.274 52.4314 106.147 56.1375C108.792 57.8061 112.234 64.0489 111.827 66.4392C111.451 68.6506 102.791 93.0215 92.9742 119.495C88.2711 132.18 84.3734 143.42 84.3142 144.474C84.0688 148.815 87.5264 150.456 91.1053 147.696C92.2744 146.794 103.173 132.804 115.324 116.606C140.804 82.6395 151.878 68.4847 154.626 66.3651C157.365 64.253 163.688 62.871 167.309 63.5935C172.459 64.621 176.188 69.6492 176.057 75.3895C175.967 79.3104 171.874 87.8759 151.083 127.648C135.523 157.41 130.566 168.853 132.1 171.457C134.332 175.243 136.742 173.413 152.891 155.676C156.813 151.367 163.677 143.574 168.143 138.357C190.286 112.493 195.448 106.792 198.118 105.245Z" fill="#FBD86A"/>
<path d="M260.817 -90.3141C258.157 -92.9669 256.135 -99.0534 256.793 -102.43C257.13 -104.157 257.907 -105.527 259.399 -107.019C264.078 -111.698 267.91 -111.691 281.907 -106.977C297.794 -101.626 311.119 -96.4289 339.907 -84.3563C347.666 -81.1022 354.619 -78.1968 355.358 -77.8995C357.042 -77.2225 358.895 -78.1423 359.434 -79.9235C359.805 -81.1476 359.426 -81.7052 355.693 -85.4381C351.425 -89.7068 342.007 -97.2831 326.315 -109.072C307.672 -123.078 304.344 -128.473 310.54 -134.644C312.825 -136.92 317.956 -139.123 320.605 -138.965C323.402 -138.797 328.197 -136.488 338.812 -130.199C375.499 -108.458 404.981 -87.6831 424.05 -70.1341C443.306 -52.4119 460.412 -31.4797 463.578 -21.7645C467.796 -8.82489 466.77 7.58006 460.646 25.1728C459.729 27.8041 458.728 30.3564 457.652 32.816C443.801 65.6859 417.016 85.951 402.819 92.2913C400.875 93.3971 389.943 96.454 381.011 98.3268C368.837 100.88 357.903 101.993 343.33 102.165C326.487 102.364 315.965 100.319 310.786 95.8387C308.483 93.8467 308.137 93.2638 307.948 91.0598C307.495 85.807 312.89 79.1086 320.219 75.8244C322.043 75.0065 327.773 73.2928 332.951 72.0157C351.91 67.3397 355.201 65.1397 352.799 58.7424C351.583 55.5054 348.541 52.3564 343.19 48.7954C334.622 43.0936 328.55 40.731 304.858 33.8813C281.336 27.0808 264.793 21.7484 250.507 16.3615C240.555 12.6089 237.313 8.66193 239.198 2.59337C240.046 -0.139031 244.748 -4.65914 246.957 -4.86543C249 -5.05691 272.588 -3.17495 298.309 -0.767948C310.633 0.384601 321.49 1.16755 322.435 0.970379C326.33 0.159061 326.961 -3.28507 323.674 -5.79427C322.6 -6.61397 307.656 -12.9324 290.463 -19.8354C254.412 -34.3103 239.28 -40.7445 236.757 -42.6712C234.241 -44.5918 231.523 -49.8526 231.304 -53.224C230.992 -58.0181 234.553 -62.5043 239.657 -63.7478C243.143 -64.597 251.682 -63.0079 291.754 -54.0518C321.741 -47.3491 333.028 -45.6773 334.965 -47.6496C337.783 -50.5187 335.595 -52.2155 316.096 -62.2868C311.359 -64.7329 302.847 -68.9534 297.179 -71.6651C269.078 -85.1093 262.817 -88.3208 260.817 -90.3141Z" fill="#97C982"/>
<path d="M78.9833 142.418V144.92H72.7193V147.512H78.3533V149.906H72.7193V152.516H79.1813V155H69.9113V142.418H78.9833ZM90.3106 149.78V155H87.5926V149.708C87.5926 148.94 87.4726 148.376 87.2326 148.016C87.0046 147.656 86.6266 147.476 86.0986 147.476C85.5826 147.476 85.1206 147.674 84.7126 148.07C84.3166 148.454 84.1186 149.024 84.1186 149.78V155H81.4186V145.316H84.1186V146.414C84.8626 145.574 85.7146 145.154 86.6746 145.154C87.2866 145.154 87.8386 145.334 88.3306 145.694C88.8346 146.054 89.2126 146.492 89.4646 147.008C89.8366 146.42 90.3346 145.964 90.9586 145.64C91.5946 145.316 92.2306 145.154 92.8666 145.154C94.0066 145.154 94.9246 145.496 95.6206 146.18C96.3166 146.852 96.6646 147.83 96.6646 149.114V155H93.9466V149.708C93.9466 148.22 93.4006 147.476 92.3086 147.476C91.7686 147.476 91.3006 147.674 90.9046 148.07C90.5086 148.454 90.3106 149.024 90.3106 149.78ZM109.446 145.154C110.622 145.154 111.648 145.616 112.524 146.54C113.4 147.452 113.838 148.628 113.838 150.068C113.838 151.508 113.388 152.714 112.488 153.686C111.588 154.658 110.562 155.144 109.41 155.144C108.27 155.144 107.322 154.67 106.566 153.722V155H103.866V141.644H106.566V146.396C107.31 145.568 108.27 145.154 109.446 145.154ZM106.53 150.176C106.53 150.956 106.746 151.598 107.178 152.102C107.622 152.594 108.156 152.84 108.78 152.84C109.404 152.84 109.95 152.594 110.418 152.102C110.886 151.598 111.12 150.956 111.12 150.176C111.12 149.396 110.892 148.742 110.436 148.214C109.98 147.686 109.434 147.422 108.798 147.422C108.162 147.422 107.622 147.686 107.178 148.214C106.746 148.73 106.53 149.384 106.53 150.176ZM120.948 147.692C120.144 147.692 119.544 147.98 119.148 148.556C118.752 149.12 118.554 149.87 118.554 150.806V155H115.854V145.316H118.554V146.594C118.902 146.198 119.334 145.862 119.85 145.586C120.378 145.31 120.912 145.166 121.452 145.154L121.47 147.692H120.948ZM131.643 153.596C130.551 154.628 129.267 155.144 127.791 155.144C126.327 155.144 125.115 154.694 124.155 153.794C123.195 152.882 122.715 151.664 122.715 150.14C122.715 148.616 123.201 147.404 124.173 146.504C125.157 145.604 126.315 145.154 127.647 145.154C128.979 145.154 130.107 145.556 131.031 146.36C131.967 147.164 132.435 148.268 132.435 149.672V151.112H125.379C125.463 151.64 125.739 152.072 126.207 152.408C126.675 152.744 127.203 152.912 127.791 152.912C128.739 152.912 129.519 152.594 130.131 151.958L131.643 153.596ZM129.699 149.186C129.639 148.61 129.423 148.166 129.051 147.854C128.679 147.542 128.223 147.386 127.683 147.386C127.155 147.386 126.669 147.548 126.225 147.872C125.781 148.196 125.523 148.634 125.451 149.186H129.699ZM136.851 155L133.017 145.298H135.825L138.237 151.4L140.649 145.298H143.457L139.623 155H136.851ZM153.176 153.596C152.084 154.628 150.8 155.144 149.324 155.144C147.86 155.144 146.648 154.694 145.688 153.794C144.728 152.882 144.248 151.664 144.248 150.14C144.248 148.616 144.734 147.404 145.706 146.504C146.69 145.604 147.848 145.154 149.18 145.154C150.512 145.154 151.64 145.556 152.564 146.36C153.5 147.164 153.968 148.268 153.968 149.672V151.112H146.912C146.996 151.64 147.272 152.072 147.74 152.408C148.208 152.744 148.736 152.912 149.324 152.912C150.272 152.912 151.052 152.594 151.664 151.958L153.176 153.596ZM151.232 149.186C151.172 148.61 150.956 148.166 150.584 147.854C150.212 147.542 149.756 147.386 149.216 147.386C148.688 147.386 148.202 147.548 147.758 147.872C147.314 148.196 147.056 148.634 146.984 149.186H151.232Z" fill="white"/>
<path d="M132.5 82.375H130.312V71.4375C130.312 60.6367 121.426 51.75 110.625 51.75C99.6875 51.75 90.9375 60.6367 90.9375 71.4375V82.375H88.75C83.8281 82.375 80 86.2031 80 91.125V113C80 117.785 83.8281 121.75 88.75 121.75H132.5C137.285 121.75 141.25 117.785 141.25 113V91.125C141.25 86.3398 137.285 82.375 132.5 82.375ZM99.6875 71.4375C99.6875 65.4219 104.473 60.5 110.625 60.5C116.641 60.5 121.562 65.4219 121.562 71.4375V82.375H99.6875V71.4375Z" fill="white"/>
</g>
<defs>
<clipPath id="clip0">
<rect width="376" height="200" fill="white"/>
</clipPath>
</defs>
</svg>
