<svg width="376" height="200" viewBox="0 0 376 200" fill="none" xmlns="http://www.w3.org/2000/svg">
<g clip-path="url(#clip0)">
<rect width="376" height="200" fill="#47B2D6"/>
<path d="M187.91 154.259C191.875 153.19 198.742 154.603 201.578 157.071C203.029 158.334 203.901 159.818 204.497 162.045C206.369 169.032 204.269 172.655 192.157 183.328C178.41 195.441 166.209 205.214 139.049 225.866C131.729 231.432 125.179 236.425 124.494 236.962C122.933 238.186 122.79 240.443 124.182 241.927C125.138 242.946 125.873 242.893 131.446 241.4C137.819 239.692 150.137 234.918 169.872 226.507C193.318 216.515 200.243 216.313 202.698 225.55C203.604 228.957 202.884 235.018 201.287 237.439C199.601 239.994 194.794 243.272 183.04 249.882C142.412 272.728 106.635 289.28 79.6037 297.739C52.3053 306.281 23.1436 311.033 12.217 308.721C-2.3356 305.642 -17.3035 295.706 -30.6089 280.294C-32.5988 277.989 -34.4676 275.647 -36.2078 273.284C-59.7515 242.21 -64.2956 205.782 -62.5384 188.879C-62.5225 186.434 -59.4418 174.416 -56.3331 164.938C-52.0968 152.02 -47.1754 141.061 -39.3741 127.173C-30.3579 111.121 -22.6713 102.28 -15.6006 99.8259C-12.4566 98.7348 -11.7158 98.7258 -9.52608 99.7509C-4.30671 102.193 -0.91469 110.961 -1.81088 119.692C-2.0337 121.866 -3.54298 128.226 -5.16411 133.826C-11.0988 154.327 -10.8149 158.644 -3.4467 159.866C0.281516 160.485 4.92472 159.326 11.2195 156.207C21.2994 151.213 26.8536 146.757 46.2848 128.074C65.5764 109.526 79.6646 96.7811 92.5707 86.2025C101.561 78.8331 107.069 77.9215 111.784 83.0215C113.906 85.3178 115.615 92.2387 114.603 94.4422C113.668 96.4809 98.9958 117.78 82.6613 140.811C74.8353 151.846 68.1612 161.695 67.8314 162.697C66.4707 166.827 69.3858 169.307 73.557 167.567C74.9198 166.999 89.0675 156.306 104.997 143.805C138.4 117.59 152.76 106.784 155.963 105.448C159.156 104.117 165.621 104.418 168.932 106.053C173.64 108.379 175.94 114.201 174.328 119.711C173.227 123.475 167.056 130.69 136.68 163.725C113.948 188.447 106.197 198.216 107.005 201.128C108.181 205.363 110.983 204.219 131.172 191.267C136.076 188.12 144.723 182.369 150.387 178.485C178.47 159.234 184.931 155.062 187.91 154.259Z" fill="#6E5C91"/>
<path d="M184.484 47.6546C180.856 48.6324 174.574 47.34 171.979 45.082C170.651 43.9267 169.854 42.5687 169.308 40.531C167.595 34.1387 169.517 30.824 180.598 21.059C193.175 9.97617 204.339 1.035 229.188 -17.8598C235.886 -22.9526 241.878 -27.5212 242.505 -28.0123C243.933 -29.1324 244.063 -31.1971 242.79 -32.5544C241.916 -33.4876 241.244 -33.4388 236.144 -32.0725C230.313 -30.51 219.043 -26.1423 200.987 -18.4465C179.536 -9.3044 173.2 -9.11965 170.954 -17.5709C170.125 -20.6883 170.783 -26.2335 172.245 -28.4484C173.788 -30.7866 178.186 -33.7852 188.94 -39.833C226.111 -60.7351 258.844 -75.8796 283.576 -83.6187C308.552 -91.4339 335.233 -95.782 345.23 -93.6667C358.544 -90.8491 372.239 -81.7588 384.412 -67.6582C386.233 -65.5491 387.943 -63.4061 389.535 -61.2445C411.076 -32.8142 415.233 0.514998 413.625 15.9803C413.611 18.2169 410.792 29.2126 407.948 37.8848C404.072 49.7035 399.569 59.7299 392.432 72.4367C384.183 87.1225 377.15 95.2118 370.681 97.457C367.804 98.4553 367.127 98.4635 365.123 97.5256C360.348 95.291 357.244 87.2695 358.064 79.2809C358.268 77.292 359.649 71.473 361.132 66.3498C366.562 47.593 366.302 43.6431 359.561 42.5247C356.15 41.9589 351.902 43.0188 346.142 45.8723C336.92 50.4421 331.838 54.5187 314.06 71.6119C296.41 88.5822 283.52 100.243 271.712 109.921C263.486 116.664 258.447 117.498 254.134 112.832C252.192 110.731 250.628 104.399 251.554 102.383C252.41 100.517 265.834 81.0302 280.779 59.959C287.939 49.8624 294.045 40.8518 294.347 39.9347C295.592 36.1558 292.925 33.8872 289.108 35.4789C287.861 35.9991 274.917 45.782 260.343 57.2197C229.782 81.2039 216.644 91.0909 213.713 92.3134C210.792 93.5313 204.877 93.2554 201.848 91.7593C197.54 89.632 195.435 84.3052 196.91 79.2633C197.918 75.8194 203.564 69.2189 231.356 38.9937C252.154 16.3758 259.245 7.43715 258.506 4.77306C257.43 0.898362 254.867 1.94471 236.395 13.7956C231.908 16.6746 223.997 21.9364 218.815 25.4894C193.121 43.1032 187.21 46.9197 184.484 47.6546Z" fill="#6E5C91"/>
<path d="M52.4922 96.4922C51.4609 96.5391 50.4297 96.5977 49.3984 96.668C48.3906 96.7383 47.4062 96.8555 46.4453 97.0195C43.9844 97.5117 41.7461 98.6836 39.7305 100.535C37.7383 102.363 37.0117 104.637 37.5508 107.355C37.8086 108.598 38.3945 109.57 39.3086 110.273C40.7617 111.422 42.6953 111.973 45.1094 111.926C47.5234 111.855 49.6094 111.621 51.3672 111.223C52.3516 110.895 53.3125 110.941 54.25 111.363C55.1172 111.785 55.9023 112.512 56.6055 113.543C57.707 115.23 58.457 117.48 58.8555 120.293C59.2773 123.105 59.125 125.426 58.3984 127.254C57.8125 128.754 56.9219 129.645 55.7266 129.926C51.8828 131.332 47.6523 132.023 43.0352 132C38.418 131.953 34.2812 131.098 30.625 129.434C25.6797 127.207 21.8945 123.926 19.2695 119.59C16.6445 115.254 15.6016 110.309 16.1406 104.754C17.0547 95.9648 20.5352 89.0977 26.582 84.1523C32.6289 79.207 40.1523 77.2148 49.1523 78.1758C50.6523 78.3398 51.9766 79.125 53.125 80.5312C54.25 81.9375 55.1758 84.3867 55.9023 87.8789C56.6523 91.3711 56.2188 93.9258 54.6016 95.543C53.9922 96.1523 53.2891 96.4688 52.4922 96.4922ZM115.387 108.902C114.168 116.285 110.582 122.238 104.629 126.762C98.6992 131.285 91.7969 132.891 83.9219 131.578C76.3281 130.312 70.3516 126.691 65.9922 120.715C61.6328 114.738 60.0391 108.117 61.2109 100.852C62.3125 94.1016 65.5703 88.4414 70.9844 83.8711C76.4219 79.2773 82.7383 77.2969 89.9336 77.9297C98.6055 78.6797 105.344 81.9727 110.148 87.8086C114.977 93.6445 116.723 100.676 115.387 108.902ZM95.207 105.914C95.5352 103.898 95.1484 102.188 94.0469 100.781C92.9688 99.3516 91.3867 98.4609 89.3008 98.1094C87.332 97.7812 85.5977 98.2148 84.0977 99.4102C82.5977 100.582 81.707 102.07 81.4258 103.875C81.0508 106.055 81.6602 107.988 83.2539 109.676C84.8477 111.34 86.8164 112.031 89.1602 111.75C90.7773 111.586 92.125 110.953 93.2031 109.852C94.2812 108.75 94.9492 107.438 95.207 105.914ZM142.457 130.242C141.965 131.18 139.516 131.742 135.109 131.93C130.703 132.094 127.586 131.789 125.758 131.016C124.938 130.664 124.164 128.25 123.438 123.773C122.711 119.297 122.09 114.27 121.574 108.691C121.059 103.113 120.684 97.7461 120.449 92.5898C120.215 87.4102 120.203 83.9531 120.414 82.2188C120.578 80.7891 121.891 79.7109 124.352 78.9844C126.836 78.2344 129.543 77.8242 132.473 77.7539C135.426 77.6602 138.121 77.8945 140.559 78.457C143.02 79.0195 144.32 79.8984 144.461 81.0938C144.836 84.4688 145.035 88.793 145.059 94.0664C145.105 99.3398 145.023 104.543 144.812 109.676C144.602 114.809 144.285 119.344 143.863 123.281C143.441 127.219 142.973 129.539 142.457 130.242ZM199.41 130.242C199.129 130.805 198.285 131.215 196.879 131.473C195.473 131.73 193.914 131.883 192.203 131.93C190.516 131.977 188.887 131.93 187.316 131.789C185.77 131.648 184.715 131.449 184.152 131.191C183.355 130.84 182.195 129.914 180.672 128.414C179.148 126.891 177.59 125.25 175.996 123.492C174.402 121.711 172.949 120.035 171.637 118.465C170.324 116.895 169.492 115.863 169.141 115.371C168.789 119.543 168.426 123.129 168.051 126.129C167.676 129.105 167.195 130.734 166.609 131.016C164.875 131.812 161.887 132.117 157.645 131.93C153.426 131.742 151.094 131.18 150.648 130.242C150.133 129.539 149.688 127.184 149.312 123.176C148.961 119.168 148.715 114.562 148.574 109.359C148.457 104.156 148.469 98.8828 148.609 93.5391C148.75 88.1953 149.09 83.8359 149.629 80.4609C149.723 79.7812 150.543 79.2656 152.09 78.9141C153.66 78.5391 155.453 78.3281 157.469 78.2812C159.508 78.2109 161.547 78.293 163.586 78.5273C165.648 78.7617 167.23 79.1133 168.332 79.582C169.949 80.3086 171.965 82.2422 174.379 85.3828C176.816 88.5234 178.586 90.9023 179.688 92.5195C179.617 90.0117 179.535 87.7969 179.441 85.875C179.371 83.9297 179.383 82.5 179.477 81.5859C179.523 80.4609 180.602 79.6055 182.711 79.0195C184.82 78.4336 187.129 78.1055 189.637 78.0352C192.168 77.9414 194.488 78.1055 196.598 78.5273C198.73 78.9492 199.855 79.5938 199.973 80.4609C200.324 83.9062 200.535 88.3125 200.605 93.6797C200.699 99.0469 200.699 104.332 200.605 109.535C200.535 114.738 200.383 119.332 200.148 123.316C199.914 127.277 199.668 129.586 199.41 130.242Z" fill="white"/>
</g>
<defs>
<clipPath id="clip0">
<rect width="376" height="200" fill="white"/>
</clipPath>
</defs>
</svg>
