<svg width="376" height="200" viewBox="0 0 376 200" fill="none" xmlns="http://www.w3.org/2000/svg">
<g clip-path="url(#clip0)">
<rect width="376" height="200" fill="#EA6667"/>
<path d="M70.8197 72.212C74.4326 70.2599 81.4395 70.0551 84.7673 71.8045C86.4703 72.6993 87.6598 73.9434 88.753 75.9736C92.182 82.3422 90.9712 86.3512 81.6395 99.5241C71.048 114.475 61.4222 126.792 39.7415 153.138C33.8977 160.239 28.6723 166.605 28.129 167.285C26.8913 168.836 27.2721 171.065 28.9677 172.188C30.1326 172.961 30.8352 172.74 35.9155 170.005C41.7252 166.877 52.6147 159.397 69.8852 146.672C90.4034 131.554 97.0964 129.764 101.61 138.189C103.276 141.296 103.97 147.36 102.973 150.084C101.919 152.959 97.9952 157.254 88.0768 166.391C53.7943 197.97 22.785 222.309 -1.5759 236.759C-26.1772 251.352 -53.4635 262.685 -64.6289 262.949C-79.4997 263.299 -96.3518 257.073 -112.846 245.136C-115.313 243.35 -117.67 241.501 -119.907 239.602C-149.968 214.777 -162.77 180.371 -164.948 163.517C-165.495 161.134 -165.262 148.73 -164.417 138.79C-163.266 125.244 -160.997 113.448 -156.6 98.1371C-151.518 80.442 -146.072 70.0694 -139.755 66.0547C-136.947 64.2696 -136.228 64.0904 -133.861 64.5843C-128.22 65.7606 -122.902 73.5124 -121.765 82.2159C-121.482 84.3827 -121.488 90.9194 -121.777 96.7417C-122.837 118.058 -121.567 122.194 -114.115 121.689C-110.345 121.433 -106.093 119.237 -100.684 114.754C-92.0237 107.575 -87.6435 101.961 -73.0312 79.3092C-58.5239 56.8204 -47.7454 41.1766 -37.6189 27.9127C-30.5645 18.6727 -25.4143 16.5186 -19.653 20.3973C-17.059 22.1436 -13.8038 28.4859 -14.2816 30.863C-14.7229 33.0622 -24.102 57.1655 -34.7004 83.336C-39.7778 95.8758 -44.0074 106.995 -44.0979 108.047C-44.4719 112.379 -41.0645 114.122 -37.4054 111.469C-36.21 110.602 -24.9015 96.942 -12.2748 81.1115C14.2021 47.916 25.6906 34.0961 28.5004 32.059C31.3011 30.0291 37.6624 28.8353 41.2607 29.6649C46.3773 30.8448 49.9555 35.9815 49.6542 41.7153C49.4482 45.6318 45.1026 54.0721 23.1404 93.2097C6.70498 122.497 1.40971 133.788 2.86596 136.436C4.98452 140.287 7.44814 138.529 24.116 121.279C28.1645 117.089 35.2566 109.503 39.8757 104.421C62.7764 79.2251 68.105 73.6791 70.8197 72.212Z" fill="#636B9E"/>
<path d="M234.646 -96.8689C231.281 -100.224 228.724 -107.921 229.557 -112.191C229.982 -114.376 230.965 -116.108 232.852 -117.995C238.77 -123.913 243.616 -123.904 261.318 -117.942C281.409 -111.175 298.261 -104.602 334.669 -89.3342C344.482 -85.2188 353.275 -81.5444 354.209 -81.1684C356.339 -80.3123 358.683 -81.4755 359.364 -83.7282C359.833 -85.2763 359.355 -85.9815 354.634 -90.7024C349.235 -96.1009 337.325 -105.683 317.479 -120.592C293.902 -138.305 289.693 -145.128 297.529 -152.932C300.419 -155.811 306.908 -158.596 310.258 -158.396C313.795 -158.185 319.86 -155.264 333.284 -147.31C379.682 -119.816 416.968 -93.5416 441.083 -71.3477C465.436 -48.9347 487.069 -22.4623 491.074 -10.1756C496.407 6.18888 495.111 26.9359 487.365 49.1851C486.206 52.5129 484.94 55.7407 483.58 58.8513C466.062 100.421 432.188 126.05 414.233 134.069C411.774 135.467 397.949 139.333 386.652 141.702C371.257 144.93 357.428 146.339 338.998 146.556C317.697 146.808 304.39 144.221 297.84 138.555C294.928 136.036 294.49 135.299 294.251 132.511C293.679 125.868 300.502 117.397 309.77 113.243C312.077 112.209 319.323 110.042 325.872 108.427C349.849 102.513 354.011 99.7306 350.973 91.64C349.436 87.5462 345.589 83.5637 338.822 79.0602C327.985 71.8492 320.307 68.8613 290.344 60.1987C260.596 51.5982 239.674 44.8543 221.607 38.0417C209.021 33.2959 204.921 28.3042 207.304 20.6294C208.377 17.1738 214.323 11.4573 217.117 11.1964C219.701 10.9542 249.533 13.3343 282.061 16.3784C297.647 17.836 311.377 18.8262 312.572 18.5768C317.498 17.5507 318.296 13.195 314.14 10.0217C312.782 8.98502 293.882 0.99425 272.139 -7.73593C226.545 -26.042 207.409 -34.1792 204.217 -36.6159C201.036 -39.0449 197.597 -45.698 197.32 -49.9618C196.927 -56.0248 201.43 -61.6984 207.885 -63.2711C212.294 -64.345 223.093 -62.3354 273.771 -51.0088C311.695 -42.532 325.969 -40.4176 328.419 -42.912C331.983 -46.5404 329.216 -48.6864 304.556 -61.4234C298.565 -64.5169 287.8 -69.8545 280.631 -73.2839C245.093 -90.2866 237.175 -94.348 234.646 -96.8689Z" fill="#F9CE6B"/>
<path d="M132.5 82.375H130.312V71.4375C130.312 60.6367 121.426 51.75 110.625 51.75C99.6875 51.75 90.9375 60.6367 90.9375 71.4375V82.375H88.75C83.8281 82.375 80 86.2031 80 91.125V113C80 117.785 83.8281 121.75 88.75 121.75H132.5C137.285 121.75 141.25 117.785 141.25 113V91.125C141.25 86.3398 137.285 82.375 132.5 82.375ZM99.6875 71.4375C99.6875 65.4219 104.473 60.5 110.625 60.5C116.641 60.5 121.562 65.4219 121.562 71.4375V82.375H99.6875V71.4375Z" fill="white"/>
<path d="M78.9833 142.418V144.92H72.7193V147.512H78.3533V149.906H72.7193V152.516H79.1813V155H69.9113V142.418H78.9833ZM90.3106 149.78V155H87.5926V149.708C87.5926 148.94 87.4726 148.376 87.2326 148.016C87.0046 147.656 86.6266 147.476 86.0986 147.476C85.5826 147.476 85.1206 147.674 84.7126 148.07C84.3166 148.454 84.1186 149.024 84.1186 149.78V155H81.4186V145.316H84.1186V146.414C84.8626 145.574 85.7146 145.154 86.6746 145.154C87.2866 145.154 87.8386 145.334 88.3306 145.694C88.8346 146.054 89.2126 146.492 89.4646 147.008C89.8366 146.42 90.3346 145.964 90.9586 145.64C91.5946 145.316 92.2306 145.154 92.8666 145.154C94.0066 145.154 94.9246 145.496 95.6206 146.18C96.3166 146.852 96.6646 147.83 96.6646 149.114V155H93.9466V149.708C93.9466 148.22 93.4006 147.476 92.3086 147.476C91.7686 147.476 91.3006 147.674 90.9046 148.07C90.5086 148.454 90.3106 149.024 90.3106 149.78ZM109.446 145.154C110.622 145.154 111.648 145.616 112.524 146.54C113.4 147.452 113.838 148.628 113.838 150.068C113.838 151.508 113.388 152.714 112.488 153.686C111.588 154.658 110.562 155.144 109.41 155.144C108.27 155.144 107.322 154.67 106.566 153.722V155H103.866V141.644H106.566V146.396C107.31 145.568 108.27 145.154 109.446 145.154ZM106.53 150.176C106.53 150.956 106.746 151.598 107.178 152.102C107.622 152.594 108.156 152.84 108.78 152.84C109.404 152.84 109.95 152.594 110.418 152.102C110.886 151.598 111.12 150.956 111.12 150.176C111.12 149.396 110.892 148.742 110.436 148.214C109.98 147.686 109.434 147.422 108.798 147.422C108.162 147.422 107.622 147.686 107.178 148.214C106.746 148.73 106.53 149.384 106.53 150.176ZM120.948 147.692C120.144 147.692 119.544 147.98 119.148 148.556C118.752 149.12 118.554 149.87 118.554 150.806V155H115.854V145.316H118.554V146.594C118.902 146.198 119.334 145.862 119.85 145.586C120.378 145.31 120.912 145.166 121.452 145.154L121.47 147.692H120.948ZM131.643 153.596C130.551 154.628 129.267 155.144 127.791 155.144C126.327 155.144 125.115 154.694 124.155 153.794C123.195 152.882 122.715 151.664 122.715 150.14C122.715 148.616 123.201 147.404 124.173 146.504C125.157 145.604 126.315 145.154 127.647 145.154C128.979 145.154 130.107 145.556 131.031 146.36C131.967 147.164 132.435 148.268 132.435 149.672V151.112H125.379C125.463 151.64 125.739 152.072 126.207 152.408C126.675 152.744 127.203 152.912 127.791 152.912C128.739 152.912 129.519 152.594 130.131 151.958L131.643 153.596ZM129.699 149.186C129.639 148.61 129.423 148.166 129.051 147.854C128.679 147.542 128.223 147.386 127.683 147.386C127.155 147.386 126.669 147.548 126.225 147.872C125.781 148.196 125.523 148.634 125.451 149.186H129.699ZM136.851 155L133.017 145.298H135.825L138.237 151.4L140.649 145.298H143.457L139.623 155H136.851ZM153.176 153.596C152.084 154.628 150.8 155.144 149.324 155.144C147.86 155.144 146.648 154.694 145.688 153.794C144.728 152.882 144.248 151.664 144.248 150.14C144.248 148.616 144.734 147.404 145.706 146.504C146.69 145.604 147.848 145.154 149.18 145.154C150.512 145.154 151.64 145.556 152.564 146.36C153.5 147.164 153.968 148.268 153.968 149.672V151.112H146.912C146.996 151.64 147.272 152.072 147.74 152.408C148.208 152.744 148.736 152.912 149.324 152.912C150.272 152.912 151.052 152.594 151.664 151.958L153.176 153.596ZM151.232 149.186C151.172 148.61 150.956 148.166 150.584 147.854C150.212 147.542 149.756 147.386 149.216 147.386C148.688 147.386 148.202 147.548 147.758 147.872C147.314 148.196 147.056 148.634 146.984 149.186H151.232Z" fill="white"/>
</g>
<defs>
<clipPath id="clip0">
<rect width="376" height="200" fill="white"/>
</clipPath>
</defs>
</svg>
