<svg width="200" height="63" viewBox="0 0 200 63" fill="none" xmlns="http://www.w3.org/2000/svg">
<path fill-rule="evenodd" clip-rule="evenodd" d="M22.7785 5.60675C18.2577 8.6489 13.9111 11.5575 13.1192 12.0706C6.99354 16.0396 0.241789 20.7282 0.412649 20.8945C0.526466 21.0054 3.41962 22.9563 6.84214 25.23L13.0648 29.3637L20.762 24.2488C24.9956 21.4359 28.4595 19.0743 28.4595 19.001C28.4597 18.9277 27.0236 17.9289 25.2683 16.7811C23.5131 15.6336 22.0804 14.6141 22.0846 14.5154C22.095 14.2702 30.1361 8.87174 30.4906 8.87201C30.6468 8.87201 32.156 9.80147 33.8446 10.9378C35.5335 12.0741 39.5739 14.7916 42.8234 16.9768C46.0732 19.162 48.7275 21.0212 48.7219 21.1083C48.7099 21.2946 48.933 21.1403 38.8696 27.932C34.5448 30.851 29.2671 34.4284 27.1414 35.8822C25.0156 37.3357 22.4093 39.08 21.3497 39.7584C20.2902 40.4365 19.4226 41.1114 19.422 41.258C19.421 41.4776 24.5793 45.0625 25.296 45.3402C25.4154 45.3864 30.4074 42.1347 36.3894 38.1143C42.3716 34.0939 50.5552 28.596 54.5756 25.8969C58.596 23.1978 61.9218 20.8719 61.966 20.7282C62.0106 20.5845 61.4799 20.1042 60.7871 19.6612C60.0943 19.2179 55.1493 15.9071 49.7982 12.3039C44.4472 8.70061 38.1726 4.47524 35.8544 2.91405C33.5365 1.35312 31.4952 0.0758057 31.3188 0.0758057C31.1423 0.0758057 27.2992 2.5646 22.7785 5.60675ZM56.3288 4.23534C53.1035 6.37548 50.3681 8.21656 50.2503 8.32691C50.1325 8.43726 51.1486 9.29476 52.5085 10.2325C56.8397 13.2192 55.9492 13.1486 59.5023 10.7874L62.5855 8.73873L62.589 4.54054C62.5911 2.23141 62.5029 0.34289 62.3928 0.343423C62.2827 0.343956 59.554 2.09547 56.3288 4.23534ZM77.5196 14.7361V26.7795L83.9835 26.6843C90.039 26.5955 90.5313 26.551 91.7769 25.9809C94.4438 24.7598 95.3785 23.2597 95.3785 20.2004C95.3785 17.2089 94.3123 15.4361 92.04 14.6495L90.9908 14.2862L91.9837 13.8152C94.1497 12.7874 95.3236 10.495 94.9888 7.94574C94.714 5.85064 93.7811 4.51149 91.9803 3.62734L90.4473 2.8746L83.9835 2.7837L77.5196 2.69281V14.7361ZM88.2094 7.48327C88.8102 8.15578 88.9813 8.60439 88.9813 9.50666C88.9813 11.6039 87.5345 12.6992 84.9575 12.5525L83.517 12.4705L83.4413 9.44216L83.3656 6.41387L85.4015 6.51676C87.3031 6.61271 87.4884 6.67642 88.2094 7.48327ZM136.294 7.06532C134.848 7.5779 133.97 8.40234 133.261 9.91395C132.596 11.3333 132.558 11.6484 132.476 16.5306C132.375 22.4731 132.672 24.0953 134.131 25.5536C135.713 27.1364 140.116 27.7913 142.869 26.8533C145.034 26.1158 146.556 23.8501 146.556 21.3663V20.3337H144.424C143.251 20.3337 142.207 20.3039 142.103 20.2671C141.999 20.2303 141.775 20.8929 141.606 21.7392C141.436 22.5853 141.083 23.515 140.82 23.805C140.191 24.4999 138.983 24.4783 138.314 23.76C137.484 22.8686 137.145 19.074 137.467 14.2795C137.725 10.4412 138.061 9.67166 139.48 9.67166C140.861 9.67166 141.358 10.3431 141.552 12.4705L141.625 13.2701H144.024H146.423L146.384 12.0466C146.342 10.7507 145.612 9.03833 144.781 8.28692C143.6 7.21885 141.972 6.75079 139.493 6.76652C138.173 6.77478 136.734 6.90939 136.294 7.06532ZM152.303 7.12289C150.646 7.73596 149.947 8.37915 149.089 10.0835C148.323 11.6039 148.285 11.8422 148.194 15.7301C148.054 21.7195 148.629 24.212 150.533 25.8601C152.669 27.7089 158.407 27.7423 160.965 25.9206C161.449 25.576 162.121 24.6686 162.517 23.8231C163.196 22.3747 163.216 22.1871 163.216 17.1351C163.216 10.2277 162.753 8.87227 159.884 7.38198C158.621 6.72573 153.82 6.5618 152.303 7.12289ZM101.684 7.20606C101.565 7.39984 100.731 10.0715 98.5428 17.2684C97.9633 19.1742 97.1479 21.8131 96.731 23.1325C96.3141 24.4519 95.8898 25.806 95.788 26.1416C95.603 26.7504 95.6073 26.7515 98.0894 26.6747L100.576 26.5977L101.142 24.5985L101.707 22.5994L104.397 22.5234L107.087 22.4477L107.485 23.8562C107.705 24.6311 107.962 25.5946 108.057 25.9979L108.231 26.731H110.885C113.461 26.731 113.535 26.7144 113.362 26.1707C113.264 25.8625 112.966 24.8731 112.7 23.9716C112.434 23.0704 111.414 19.694 110.435 16.4687C109.455 13.2434 108.474 9.94487 108.256 9.13856C108.037 8.33224 107.734 7.52272 107.583 7.33933C107.28 6.97176 101.903 6.85021 101.684 7.20606ZM114.752 7.19753C114.576 7.4886 114.574 25.3958 114.751 26.1312C114.884 26.6862 115.042 26.731 116.865 26.731H118.835V20.2892C118.835 16.7465 118.908 13.9208 118.998 14.0101C119.087 14.0996 120.325 16.9682 121.748 20.3852L124.337 26.5977L127.32 26.6731L130.303 26.7485L130.233 16.944L130.164 7.13942H128.164H126.165L126.032 13.2568L125.899 19.3739L123.982 14.8561C122.928 12.371 121.769 9.61835 121.407 8.73873L120.75 7.13942L117.814 7.06425C116.2 7.02294 114.822 7.08291 114.752 7.19753ZM156.807 9.83719C157.807 10.2208 158.116 11.5162 158.23 15.8023C158.397 22.029 157.755 24.332 155.854 24.332C154.631 24.332 153.788 23.3487 153.454 21.5332C153.11 19.6564 153.284 12.2777 153.698 11.2456C154.257 9.85078 155.442 9.31368 156.807 9.83719ZM105.367 15.4582C106.389 19.645 106.463 19.3182 104.495 19.3248C103.572 19.3278 102.757 19.2718 102.686 19.2001C102.573 19.0871 103.721 13.397 104.067 12.3593C104.3 11.6572 104.631 12.4467 105.367 15.4582ZM87.8765 16.7153C88.8224 17.2044 89.2479 18.1643 89.2479 19.8089C89.2479 20.8863 89.1069 21.2829 88.4703 21.9954C87.7179 22.8382 87.6264 22.866 85.6049 22.866H83.517L83.4421 19.6007L83.3672 16.3354H85.2547C86.3667 16.3354 87.4436 16.4914 87.8765 16.7153ZM27.7347 23.2191C22.5729 26.6899 14.3336 32.2286 9.42449 35.5272C4.51541 38.8257 0.499278 41.6445 0.499811 41.7911C0.500344 41.9377 2.14683 43.1391 4.1585 44.4606C6.17043 45.7825 13.0472 50.3802 19.4402 54.6783L31.0639 62.4928L46.5618 52.1661C55.0856 46.4862 62.0596 41.6914 62.0596 41.5104C62.0596 41.3297 61.8762 41.1114 61.6518 41.0253C61.4276 40.9392 58.9386 39.33 56.1208 37.4493C53.3031 35.5687 50.6251 33.8114 50.1695 33.544L49.3414 33.0584L41.7076 38.1849C37.5092 41.0045 34.1295 43.4019 34.1978 43.5122C34.266 43.6226 35.703 44.5998 37.3908 45.6841C39.0789 46.7682 40.4617 47.7331 40.4644 47.828C40.4668 47.9229 38.5684 49.2831 36.2454 50.8507L32.0219 53.7009L25.3835 49.2351C13.9932 41.5728 13.7168 41.3708 14.1211 40.9979C14.3186 40.8155 16.1594 39.5302 18.2119 38.1415C20.2643 36.7528 24.2226 34.0758 27.0081 32.1926C29.7936 30.3094 33.9318 27.5045 36.2041 25.9593C38.4765 24.4144 40.9655 22.7393 41.7351 22.2369C42.5046 21.7344 43.1345 21.2344 43.1345 21.1256C43.1345 20.9705 38.699 17.8367 37.3945 17.0703C37.2431 16.9813 32.8962 19.7481 27.7347 23.2191ZM114.634 50.1208L114.704 62.049L120.035 62.1293C125.887 62.2172 127.872 61.9773 129.764 60.953C131.212 60.1685 132.035 59.0295 132.428 57.266C133.1 54.2441 132.088 51.5554 129.849 50.4202L128.468 49.72L129.751 48.8886C131.235 47.9269 131.938 46.6829 132.105 44.7211C132.361 41.7072 130.892 39.4273 128.175 38.6205C127.037 38.2822 125.459 38.1927 120.65 38.1927H114.565L114.634 50.1208ZM124.978 42.2661C126.768 43.6764 126.739 46.7383 124.927 47.6752C124.511 47.8906 123.437 48.0551 122.447 48.0551H120.701V44.9897V41.9244L122.633 41.9329C123.736 41.9377 124.743 42.0806 124.978 42.2661ZM98.3106 42.6118C96.6806 43.195 95.49 44.4047 94.8039 46.1756C94.2993 47.4775 94.2292 48.1995 94.2206 52.1866C94.2087 57.7144 94.5834 59.3627 96.2022 60.9029C97.5267 62.1628 98.5918 62.4457 102.025 62.4473C104.298 62.4486 105.015 62.3476 105.95 61.895C108.657 60.5846 109.367 58.5892 109.358 52.3199C109.349 46.049 108.743 44.3753 105.963 42.9469C104.445 42.167 100.088 41.9761 98.3106 42.6118ZM77.5196 52.3492V62.2407L82.3842 62.1293C86.7951 62.0282 87.3676 61.9605 88.5226 61.4008C91.5202 59.9483 92.2868 57.8842 92.1367 51.6687C92.0368 47.5286 92.0027 47.3039 91.2401 45.7771C90.3975 44.0901 89.3484 43.1918 87.68 42.7283C87.1496 42.5809 84.6467 42.4599 82.1176 42.4591L77.5196 42.4575V52.3492ZM134.295 52.33V62.2023L136.761 62.1258L139.226 62.049L139.36 53.7859L139.493 45.5228L140.147 45.4303C141.205 45.2811 142.791 45.8896 143.277 46.6314C143.863 47.5262 143.865 49.6469 143.281 50.5388C142.955 51.0354 142.509 51.2684 141.63 51.4C140.968 51.4995 140.426 51.6447 140.426 51.7228C140.426 51.8009 141.218 53.6766 142.186 55.8909C143.154 58.1051 144.168 60.4295 144.439 61.0564L144.933 62.1964L148.992 62.1226L153.05 62.049L153.735 59.9166L154.42 57.7842L157.004 57.708L159.589 57.632L160.151 59.5738C160.46 60.6419 160.766 61.6759 160.832 61.871C160.928 62.1586 162.362 62.209 168.347 62.1359C175.45 62.0493 175.789 62.0216 176.887 61.437C178.772 60.4329 179.626 58.3368 179.228 55.6867C178.963 53.9168 177.725 52.6765 174.584 51.0341C171.054 49.1879 170.351 48.2931 171.115 46.6162C171.532 45.7009 171.895 45.5868 174.944 45.4104L177.61 45.2563V43.9235V42.5908L174.048 42.5161C167.254 42.3741 165.141 43.4152 164.762 47.0923C164.462 49.9964 165.728 51.5863 169.92 53.5724C173.242 55.1461 174.011 55.8091 174.011 57.1002C174.011 58.8661 173.469 59.1047 169.252 59.1935C167.252 59.2356 165.488 59.1756 165.334 59.0602C165.179 58.9448 164.682 57.591 164.229 56.0516C162.685 50.8094 161.98 48.4576 161.047 45.4477L160.116 42.4404L157.15 42.5156L154.184 42.5908L153.02 46.3225C152.38 48.3749 151.185 52.2133 150.365 54.8521C149.546 57.491 148.793 59.7447 148.692 59.8604C148.59 59.9763 147.769 58.4269 146.866 56.4176C145.963 54.4083 145.254 52.7544 145.29 52.7421C145.327 52.7299 145.837 52.4798 146.423 52.1866C149.105 50.8453 149.524 45.8584 147.136 43.6983C146.009 42.6798 144.764 42.4815 139.426 42.4692L134.295 42.4575V52.33ZM181.334 42.7816C181.261 42.9714 181.233 47.3842 181.271 52.5878L181.341 62.049H183.74H186.139V52.3199V42.5908L183.803 42.5137C182.079 42.457 181.431 42.5271 181.334 42.7816ZM189.205 52.3154V62.1932L194.602 62.1213L200 62.049L199.963 60.9828C199.943 60.3964 199.913 59.7708 199.897 59.5928C199.876 59.3673 199.038 59.246 197.135 59.1929L194.402 59.117L194.269 50.8539L194.136 42.5908L191.67 42.514L189.205 42.4375V52.3154ZM103.417 45.9227C104.069 46.7988 104.39 49.5435 104.294 53.4109C104.182 57.9297 103.709 59.2889 102.109 59.6906C101.07 59.9513 100.111 59.286 99.7372 58.0444C99.323 56.6703 99.2793 48.6788 99.6772 47.0984C99.8425 46.4422 100.232 45.7254 100.544 45.505C101.38 44.9132 102.823 45.123 103.417 45.9227ZM85.5161 45.7289C86.8364 46.3854 87.165 47.6531 87.1533 52.0453C87.1376 58.0193 86.741 58.9466 84.1562 59.0562L82.7174 59.117L82.6462 52.2533L82.575 45.3896L83.7124 45.3936C84.338 45.3957 85.1496 45.5466 85.5161 45.7289ZM157.981 51.0468C158.441 52.9122 158.818 54.5014 158.818 54.5787C158.818 54.6557 157.976 54.7189 156.947 54.7189C155.143 54.7189 155.081 54.6975 155.217 54.1191C155.698 52.0709 156.685 47.5206 156.685 47.3514C156.685 47.24 156.789 47.2629 156.915 47.402C157.041 47.5412 157.521 49.1815 157.981 51.0468ZM3.15173 52.1445L0.0863902 54.3278L0.0120225 58.1675C-0.0287599 60.2794 0.0376117 62.1069 0.159692 62.2289C0.397723 62.467 12.481 54.6192 12.481 54.226C12.481 53.9861 7.17959 50.2653 6.55799 50.0691C6.37061 50.01 4.83767 50.944 3.15173 52.1445ZM125.247 52.0613C126.013 52.471 126.565 53.7417 126.565 55.0928C126.565 57.6125 125.571 58.4506 122.58 58.4506H120.701V55.1187V51.7868H122.718C123.827 51.7868 124.965 51.9102 125.247 52.0613Z" fill="white"/>
</svg>
