<svg width="120" height="121" viewBox="0 0 120 121" fill="none" xmlns="http://www.w3.org/2000/svg">
<path fill-rule="evenodd" clip-rule="evenodd" d="M56.1186 0.165037C55.8797 0.224208 54.1207 0.466983 52.2096 0.704248C47.6671 1.26869 42.7745 2.33493 40.917 3.16507C40.5985 3.30748 39.3664 3.7823 38.179 4.22057C36.9918 4.65856 35.6888 5.19052 35.2834 5.40226C34.8783 5.61399 34.3841 5.78803 34.1848 5.78919C33.9859 5.79006 33.8229 5.88955 33.8229 6.01021C33.8229 6.13087 33.3993 6.41077 32.8819 6.63238C31.276 7.3198 26.8189 10.0286 24.8774 11.4969C23.859 12.267 22.6212 13.174 22.1266 13.5122C20.387 14.702 14.3796 20.9306 12.4254 23.5704C8.41739 28.9848 5.49694 34.2139 3.72573 39.1472C3.52536 39.7055 3.25347 40.4234 3.12144 40.7425C2.33674 42.6426 0.992919 48.1435 0.500387 51.4745C0.311597 52.7507 0.0990647 56.2543 0.0281238 59.2601C-0.121576 65.6004 0.311308 69.731 1.6893 75.1139C2.20905 77.1448 3.46021 81.0823 3.86935 81.9739C4.09984 82.4766 4.28834 83.0031 4.28834 83.1437C4.28834 83.5678 7.23195 89.317 8.72982 91.8184C11.9004 97.1133 17.3927 103.389 22.3855 107.422C24.558 109.176 29.5665 112.531 30.0138 112.531C30.1977 112.531 30.3494 112.629 30.3509 112.748C30.3526 112.868 30.9389 113.224 31.6539 113.539C32.369 113.854 32.9542 114.212 32.9542 114.336C32.9542 114.46 33.1042 114.561 33.2872 114.561C33.4705 114.561 34.285 114.87 35.0969 115.247C35.9091 115.624 37.16 116.161 37.8767 116.442C38.5933 116.722 39.4403 117.053 39.7588 117.177C41.1026 117.702 42.1832 118.037 43.9573 118.48C44.9925 118.738 46.2955 119.07 46.8529 119.217C49.1325 119.819 53.3186 120.339 57.2768 120.511C65.3974 120.864 74.285 119.575 80.2964 117.172C80.6149 117.044 81.3316 116.777 81.889 116.578C83.0941 116.147 86.4266 114.669 87.2457 114.202C87.5642 114.02 88.4016 113.561 89.1064 113.182C90.9372 112.198 94.1339 110.101 96.6562 108.231C98.7691 106.664 105.706 99.9208 107.003 98.1732C108.703 95.8818 111.385 91.9765 111.882 91.0669C112.187 90.5085 112.505 89.9864 112.588 89.9066C112.948 89.5597 115.621 83.7589 116.329 81.7851C116.53 81.2268 116.808 80.5089 116.947 80.1898C117.653 78.5751 118.783 74.0093 119.46 70.0379C120.366 64.7215 120.086 52.0569 118.969 47.8488C118.821 47.2904 118.484 45.9852 118.22 44.9482C117.712 42.948 116.632 39.5692 116.04 38.1285C114.651 34.7436 113.233 31.908 111.804 29.6618C111.276 28.832 110.844 28.0758 110.844 27.9818C110.844 27.8875 110.708 27.6529 110.541 27.4603C110.374 27.2677 109.82 26.5054 109.31 25.7667C107.116 22.5877 105.593 20.8065 102.148 17.3931C98.3739 13.6537 93.1807 9.73305 89.4174 7.78186C88.3822 7.24526 87.4701 6.74057 87.3905 6.66051C87.3109 6.58075 86.92 6.36292 86.5218 6.17699C83.4508 4.74238 82.5121 4.34356 81.814 4.17707C81.3744 4.07207 80.9433 3.87019 80.8558 3.72835C80.7681 3.58652 80.4047 3.47049 80.0477 3.47049C79.6907 3.47049 79.2749 3.3536 79.1237 3.2109C78.8379 2.94115 75.3027 1.97759 72.0441 1.28146C67.664 0.345451 58.0945 -0.325444 56.1186 0.165037ZM81.3098 30.4389C92.0048 30.8052 101.619 31.5765 103.848 32.2468C105.166 32.6436 106.697 34.0503 107.032 35.1734C107.672 37.3158 108.539 51.7892 108.539 60.3211C108.539 64.8535 107.954 78.5472 107.64 81.35C107.126 85.9547 107.081 86.1153 106.044 87.1549C104.454 88.747 103.585 88.9042 91.2995 89.8187C81.1005 90.5781 39.0082 90.5767 28.7557 89.8167C17.0354 88.9477 15.7744 88.7453 14.4227 87.5143C13.2703 86.4646 12.9269 85.6147 12.644 83.1142C11.6335 74.179 11.6346 47.4186 12.646 37.6232C12.8612 35.5403 13.0514 34.8958 13.7044 34.0384C14.6034 32.8576 16.4256 31.9118 17.8195 31.9022C18.3343 31.8987 19.6373 31.767 20.7151 31.6098C23.8362 31.1547 30.5434 30.6988 37.5871 30.4632C47.4375 30.134 72.0056 30.1201 81.3098 30.4389ZM57.558 36.0607C57.4737 36.1457 56.4965 36.3548 55.3863 36.5259C54.2762 36.6968 53.1072 36.9512 52.7887 37.0907C52.4702 37.2302 51.4953 37.625 50.6223 37.9675C47.2189 39.3038 43.1164 42.4372 40.5863 45.6336C39.8262 46.5937 37.716 50.492 36.9536 52.3446C35.9152 54.8669 35.5258 62.6534 36.2812 65.7936C36.5357 66.8517 36.8528 67.9785 36.986 68.2976C37.1192 68.6167 37.4672 69.4651 37.7594 70.183C40.0223 75.7445 45.7195 81.109 51.6305 83.2441C51.949 83.359 52.5684 83.5974 53.0068 83.7734C55.3151 84.701 62.7471 84.8733 65.8187 84.0705C66.4557 83.904 67.3354 83.6983 67.7732 83.6136C68.211 83.5289 68.5694 83.3439 68.5694 83.2026C68.5694 83.0611 68.7808 82.9453 69.0391 82.9453C69.5571 82.9453 73.3925 80.9286 74.4112 80.1208C78.3523 76.9943 81.5797 72.6887 83.0559 68.5877C83.1705 68.2686 83.4062 67.6534 83.5794 67.2203C84.1631 65.7599 84.5117 60.6242 84.2294 57.6497C83.9465 54.6746 83.6697 53.5823 82.5688 51.1041C82.195 50.262 81.889 49.5128 81.889 49.4391C81.889 49.0424 79.1411 45.1533 77.8453 43.7161C76.1355 41.8197 71.4514 38.6149 69.2933 37.8648C68.4971 37.5881 67.585 37.2438 67.2664 37.0997C65.8601 36.4633 57.994 35.6215 57.558 36.0607Z" fill="white"/>
</svg>
