<svg width="29" height="29" viewBox="0 0 29 29" fill="none" xmlns="http://www.w3.org/2000/svg">
<path d="M15 7.38135C11 7.38135 7.8125 10.6313 7.8125 14.5688C7.8125 18.5688 11 21.7563 15 21.7563C18.9375 21.7563 22.1875 18.5688 22.1875 14.5688C22.1875 10.6313 18.9375 7.38135 15 7.38135ZM15 19.2563C12.4375 19.2563 10.3125 17.1938 10.3125 14.5688C10.3125 12.0063 12.375 9.94385 15 9.94385C17.5625 9.94385 19.625 12.0063 19.625 14.5688C19.625 17.1938 17.5625 19.2563 15 19.2563ZM24.125 7.13135C24.125 6.19385 23.375 5.44385 22.4375 5.44385C21.5 5.44385 20.75 6.19385 20.75 7.13135C20.75 8.06885 21.5 8.81885 22.4375 8.81885C23.375 8.81885 24.125 8.06885 24.125 7.13135ZM28.875 8.81885C28.75 6.56885 28.25 4.56885 26.625 2.94385C25 1.31885 23 0.818848 20.75 0.693848C18.4375 0.568848 11.5 0.568848 9.1875 0.693848C6.9375 0.818848 5 1.31885 3.3125 2.94385C1.6875 4.56885 1.1875 6.56885 1.0625 8.81885C0.9375 11.1313 0.9375 18.0688 1.0625 20.3813C1.1875 22.6313 1.6875 24.5688 3.3125 26.2563C5 27.8813 6.9375 28.3813 9.1875 28.5063C11.5 28.6313 18.4375 28.6313 20.75 28.5063C23 28.3813 25 27.8813 26.625 26.2563C28.25 24.5688 28.75 22.6313 28.875 20.3813C29 18.0688 29 11.1313 28.875 8.81885ZM25.875 22.8188C25.4375 24.0688 24.4375 25.0063 23.25 25.5063C21.375 26.2563 17 26.0688 15 26.0688C12.9375 26.0688 8.5625 26.2563 6.75 25.5063C5.5 25.0063 4.5625 24.0688 4.0625 22.8188C3.3125 21.0063 3.5 16.6313 3.5 14.5688C3.5 12.5688 3.3125 8.19385 4.0625 6.31885C4.5625 5.13135 5.5 4.19385 6.75 3.69385C8.5625 2.94385 12.9375 3.13135 15 3.13135C17 3.13135 21.375 2.94385 23.25 3.69385C24.4375 4.13135 25.375 5.13135 25.875 6.31885C26.625 8.19385 26.4375 12.5688 26.4375 14.5688C26.4375 16.6313 26.625 21.0063 25.875 22.8188Z" fill="white"/>
</svg>
