<svg width="62" height="71" viewBox="0 0 62 71" fill="none" xmlns="http://www.w3.org/2000/svg">
<path d="M52.5 31.375H50.3125V20.4375C50.3125 9.63672 41.4258 0.75 30.625 0.75C19.6875 0.75 10.9375 9.63672 10.9375 20.4375V31.375H8.75C3.82812 31.375 0 35.2031 0 40.125V62C0 66.7852 3.82812 70.75 8.75 70.75H52.5C57.2852 70.75 61.25 66.7852 61.25 62V40.125C61.25 35.3398 57.2852 31.375 52.5 31.375ZM19.6875 20.4375C19.6875 14.4219 24.4727 9.5 30.625 9.5C36.6406 9.5 41.5625 14.4219 41.5625 20.4375V31.375H19.6875V20.4375Z" fill="white"/>
</svg>
