<svg width="112" height="36" viewBox="0 0 112 36" fill="none" xmlns="http://www.w3.org/2000/svg">
<path fill-rule="evenodd" clip-rule="evenodd" d="M64.1739 0.0281026C60.9825 0.488267 58.835 2.01626 57.7931 4.56827C57.1599 6.11914 57.0166 8.14951 57.4473 9.47021C57.7555 10.4158 58.2246 11.1891 58.9187 11.8962C60.2079 13.2095 61.681 13.9095 63.6061 14.1236C64.4129 14.2133 64.7717 14.2087 65.786 14.0956C66.469 14.0196 67.0439 13.9932 67.0999 14.0356C67.4623 14.3096 70.2927 14.3412 70.5596 14.0743C70.7745 13.8594 70.9204 12.9461 71.0286 11.1365C71.1578 8.97719 71.0781 7.45662 70.8234 7.21929C70.5663 6.97976 69.5531 6.835 68.5069 6.88826C67.4302 6.94302 66.792 7.07921 66.4129 7.33499C66.1641 7.50281 66.1086 7.61622 65.9739 8.23254C65.7855 9.09395 65.6329 9.2494 64.9751 9.2494C63.8413 9.2494 62.9063 8.62955 62.5862 7.66603C62.3067 6.82457 62.6409 5.80559 63.373 5.26726C63.8266 4.93366 64.7146 4.65659 65.3302 4.65659C65.788 4.65659 65.8102 4.66772 65.932 4.95919C66.0439 5.22707 66.1075 5.26938 66.4851 5.32688C67.3916 5.46501 69.6914 5.06103 70.1382 4.68512C70.363 4.49593 70.4007 4.40266 70.4007 4.0348C70.4007 2.06378 69.3017 0.814091 67.0526 0.227978C66.4034 0.058839 64.7549 -0.0557161 64.1739 0.0281026ZM52.6919 0.116426C51.8993 0.230716 50.7669 0.540554 50.5114 0.713049L50.2188 0.91054V1.70165C50.2188 2.13673 50.2486 2.83051 50.285 3.24342L50.351 3.99417L49.7618 3.33174C48.6282 2.05733 47.7481 1.24776 47.208 0.982523C46.6954 0.730891 46.6594 0.726209 45.2286 0.727534C43.3415 0.729212 42.0028 1.00929 41.8388 1.43677C41.8087 1.51538 41.784 2.20244 41.784 2.96361C41.7842 6.14669 42.4476 11.9519 43.0342 13.9035C43.2853 14.739 43.3617 14.7716 45.0519 14.7633C46.5269 14.7562 47.3532 14.5817 47.5846 14.2284C47.7086 14.0392 47.8615 12.1877 47.8744 10.7177L47.8782 10.287L49.5816 11.9554C51.6088 13.941 51.9067 14.1588 52.7128 14.2451C53.853 14.3673 55.6467 14.1494 56.0251 13.8427L56.2248 13.6809L56.2196 9.14668C56.214 4.32732 56.0437 0.935624 55.7876 0.544087C55.7221 0.443928 55.4988 0.311178 55.2914 0.249087C54.9095 0.13462 53.1782 0.0462972 52.6919 0.116426ZM77.6925 0.690792C76.6713 0.774787 76.0586 0.894377 75.6459 1.09019C75.4046 1.20466 75.2726 1.39146 74.9137 2.12622C73.6518 4.7095 72.0524 10.1109 71.7268 12.8884C71.5634 14.2817 71.7092 14.3838 73.9446 14.4421L75.4129 14.4803L75.675 14.0951C75.8191 13.8831 76.1219 13.3684 76.3479 12.9511C76.9523 11.8352 76.924 11.8513 78.2272 11.8736C78.8284 11.8839 79.396 11.9328 79.4888 11.9825C79.7094 12.1006 79.9796 12.6694 80.2393 13.5625C80.4824 14.3989 80.6569 14.7003 80.9656 14.8177C81.2648 14.9314 84.4918 14.9246 84.9067 14.8094C85.521 14.6388 85.5431 14.3471 85.106 12.1835C84.2869 8.12885 83.1669 4.19025 82.3126 2.36019C81.6578 0.95744 81.3943 0.822482 78.968 0.647249C78.7494 0.631439 78.1754 0.651046 77.6925 0.690792ZM14.9263 1.05989C14.517 1.33564 14.1046 2.15819 14.1054 2.69723C14.106 3.10228 14.4154 4.06324 15.9023 8.27785C16.2023 9.12796 16.6377 10.4197 16.8701 11.1483C17.8265 14.1482 17.8764 14.5423 17.2994 14.5475C16.9028 14.551 15.9273 13.2364 13.5651 9.51437C10.4084 4.54062 9.70328 3.51316 9.26343 3.24563C8.61946 2.854 7.80309 2.94789 7.34831 3.46582C7.0285 3.83006 6.77059 4.63955 6.83092 5.08955C6.89151 5.54106 7.77386 7.72883 9.96286 12.8546C11.0068 15.299 11.8819 17.456 11.9076 17.6481C11.9865 18.2361 11.5731 18.5215 11.0956 18.2086C10.9797 18.1328 9.95774 16.952 8.82437 15.5848C6.45916 12.7314 4.257 10.1475 4.03028 9.95961C3.78527 9.75646 2.84966 9.738 2.48639 9.92914C1.67955 10.3536 1.60801 11.0829 2.23696 12.4732C3.1398 14.469 4.27714 16.6882 5.97356 19.7643C7.68226 22.8627 8.05852 23.7182 8.34937 25.166C8.53096 26.07 8.5201 26.6981 8.31501 27.1498C7.9097 28.0425 7.35264 27.9318 4.95484 26.4829C4.29993 26.0871 3.54476 25.6796 3.2767 25.5775C2.20004 25.1673 0.973144 25.2995 0.48613 25.8783C0.28175 26.1211 0.257726 26.2153 0.289257 26.651C0.360181 27.6309 1.2201 28.9058 2.94902 30.5943C4.44495 32.0553 5.66726 33.0515 7.16125 34.0275C8.36907 34.8166 9.96895 35.7061 10.0446 35.6306C10.0708 35.6043 10.0244 35.3513 9.94157 35.0684C9.51568 33.6148 9.7545 31.6934 10.56 30.0937C10.8584 29.5012 11.5286 28.4871 11.7606 28.2771C11.8859 28.1637 11.9309 28.0047 11.9313 27.6732C11.9334 26.1087 13.2146 23.2002 15.0085 20.6873C15.6096 19.8452 16.9879 18.164 17.147 18.079C17.5618 17.8569 18.1146 18.1018 18.1116 18.5063C18.1107 18.6371 17.9545 19.0025 17.7647 19.3182C16.4492 21.5063 16.1845 22.0563 16.4469 22.0563C16.502 22.0563 17.0885 21.5297 17.7503 20.886C18.412 20.2424 19.3259 19.4276 19.7811 19.0754C20.6314 18.4174 20.9102 18.3176 21.2265 18.5578C21.4312 18.7132 21.5132 19.16 21.382 19.4052C21.3241 19.5135 20.7333 20.1841 20.0691 20.8954C18.452 22.6273 18.1469 23.0084 18.2753 23.1368C18.424 23.2856 18.7257 23.1193 20.9551 21.6606C22.0804 20.9242 23.0039 20.3781 23.1237 20.3781C23.3775 20.3781 23.766 20.7462 23.766 20.9866C23.766 21.3732 23.5418 21.6331 21.8992 23.1506C19.8919 25.0052 19.7031 25.1959 19.7031 25.3698C19.7031 25.6326 20.131 25.4858 21.8922 24.6184C22.8777 24.1332 23.7736 23.7137 23.8833 23.6862C24.0124 23.6538 24.1671 23.7024 24.3218 23.8241C24.7584 24.1675 24.629 24.4344 23.596 25.3209C23.1868 25.672 22.4515 26.2601 21.962 26.6277C20.2331 27.9261 19.6829 28.4946 19.5599 29.1098C19.5178 29.3201 19.5481 29.3961 19.7159 29.5017C19.8907 29.6117 20.0719 29.6181 20.8513 29.5414C21.6428 29.4636 21.8272 29.4708 22.1098 29.5908C22.5469 29.7762 22.6969 30.0922 22.4946 30.401C22.1463 30.9326 20.5725 31.5859 18.8641 31.9082C17.9242 32.0855 16.1602 32.0417 15.3753 31.8217C15.1081 31.7468 14.8833 31.6851 14.8757 31.6846C14.8681 31.6839 14.7351 31.9879 14.5803 32.3599C13.8985 33.9975 14.4361 35.3679 15.9262 35.7912C17.6874 36.2916 20.1885 35.8808 22.662 34.685C25.0682 33.5216 26.8365 31.9614 27.7214 30.2209C28.3858 28.914 28.7739 25.0552 28.6183 21.3038C28.4642 17.5891 27.5809 12.4907 26.0644 6.5634C25.6257 4.84852 25.3734 4.12771 25.1067 3.82706C24.854 3.54231 24.1099 3.24519 23.6471 3.2443C22.3925 3.24174 22.1828 4.12665 22.6532 7.43877C23.0493 10.2267 23.2361 11.9507 23.2361 12.8168C23.2361 13.5741 23.2179 13.6691 23.0561 13.7557C22.8207 13.8817 22.5394 13.787 22.4372 13.5475C22.3924 13.4424 21.9818 12.4423 21.5247 11.325C19.8289 7.17981 19.0043 5.30082 17.9354 3.14635C16.9937 1.24811 16.6056 0.858694 15.6562 0.858694C15.3535 0.858694 15.1357 0.918754 14.9263 1.05989ZM36.617 1.31329C35.1059 1.41319 32.2811 1.78635 31.0085 2.05415C29.862 2.29545 29.7298 2.38969 29.6331 3.03445C29.5244 3.75958 30.0324 8.24702 30.5635 11.2545C30.8516 12.8847 31.2451 14.5774 31.4646 15.1292C31.711 15.7487 31.9053 15.8711 32.6425 15.8709C34.8182 15.8706 40.2425 15.0825 41.2145 14.6256C41.5444 14.4705 41.6017 14.4012 41.6535 14.095C41.732 13.6305 41.6313 12.4796 41.4305 11.5458C41.1885 10.4203 41.1403 10.3292 40.7501 10.2558C40.4671 10.2026 37.3403 10.4841 36.6932 10.621C36.5389 10.6537 36.4973 10.6123 36.4653 10.3947C36.4337 10.1793 36.4612 10.1213 36.61 10.0909C36.711 10.0702 37.1054 9.99343 37.4864 9.9203C38.289 9.76627 38.4027 9.6934 38.4796 9.28305C38.5567 8.87226 38.2871 7.44098 38.0407 6.953L37.84 6.55554L36.9226 6.53019C35.9964 6.50458 35.8705 6.45865 35.8676 6.1451C35.8666 6.02861 36.0199 5.97985 36.6391 5.89974C38.2661 5.68944 39.5836 5.45203 39.8291 5.32511C40.0499 5.21091 40.0931 5.12532 40.1467 4.69643C40.2544 3.83466 40.0026 1.69167 39.7658 1.45488C39.5366 1.22568 38.5874 1.18302 36.617 1.31329ZM92.2165 1.74237C89.8603 1.97033 87.6891 3.27645 86.5712 5.13857C85.9278 6.21011 85.4169 8.05395 85.416 9.30787C85.415 10.5322 85.9238 11.9626 86.699 12.9148C87.8423 14.3192 89.0777 15.1104 90.8545 15.5757C91.6285 15.7785 91.9162 15.8067 93.3205 15.8174C94.1949 15.824 94.9615 15.8625 95.024 15.903C95.2331 16.0381 96.6678 16.2262 97.4918 16.2266C98.4375 16.227 98.4686 16.2031 98.6964 15.2995C98.8774 14.5819 99.1691 12.1104 99.2366 10.7205C99.3035 9.34726 99.2617 9.24914 98.5121 9.01702C98.1199 8.89567 97.6947 8.85839 96.6768 8.85636C94.7183 8.85239 94.3989 8.98655 94.1904 9.90078C94.1179 10.2184 93.9753 10.5841 93.8735 10.7137C93.6988 10.9357 93.6548 10.9467 93.1055 10.9075C92.4074 10.8575 91.8372 10.6207 91.4325 10.2126C90.3136 9.08397 90.6852 7.30223 92.1779 6.63865C92.7053 6.40424 93.4705 6.29234 93.9695 6.3766C94.2706 6.42747 94.3301 6.47314 94.3531 6.6708C94.3973 7.04945 94.6829 7.1269 96.0412 7.12832C98.1335 7.13061 98.9298 6.83376 98.9284 6.05192C98.9264 4.92386 98.5463 3.84861 97.9417 3.26082C97.1792 2.51944 95.6964 1.907 94.2676 1.74334C93.4257 1.64689 93.205 1.6468 92.2165 1.74237ZM102.089 3.0462C101.582 3.11332 101.409 3.57622 101.007 5.93675C100.444 9.24808 100.079 12.801 100.078 14.9723C100.077 16.4991 100.099 16.5361 101.185 16.8287C102.777 17.258 106.485 17.7936 108.442 17.8772C109.944 17.9413 110.062 17.8962 110.279 17.1767C110.475 16.5252 110.675 15.1449 110.676 14.4384C110.676 13.4787 110.643 13.4618 107.886 13.0462C106.927 12.9016 106.133 12.7731 106.121 12.7608C106.109 12.7483 106.12 12.6258 106.147 12.4886C106.193 12.2484 106.21 12.2408 106.603 12.2879C108.003 12.4558 108 12.4559 108.188 12.2671C108.44 12.0159 108.562 11.5439 108.615 10.6184C108.646 10.075 108.623 9.7138 108.542 9.47701C108.418 9.11241 108.236 9.01879 107.077 8.72079C106.741 8.63441 106.702 8.59678 106.702 8.36105C106.702 8.13388 106.729 8.10394 106.9 8.14209C108.088 8.4068 110.639 8.61612 110.91 8.4711C111.253 8.28747 111.77 6.20437 111.718 5.21294C111.693 4.7208 111.679 4.69457 111.369 4.54283C110.39 4.06447 105.883 3.21896 103.699 3.10396C103.237 3.07958 102.74 3.04955 102.594 3.03701C102.449 3.02456 102.221 3.02871 102.089 3.0462ZM78.9018 6.40098C79.0292 6.53461 79.2795 6.95176 79.4579 7.32802C79.9688 8.40591 79.7947 8.66647 78.5673 8.66081C77.8913 8.65763 77.5074 8.55306 77.3563 8.33084C77.2571 8.18502 77.3692 7.76522 77.6638 7.17919C78.2016 6.1096 78.4655 5.94373 78.9018 6.40098ZM60.2877 16.2672C59.3138 16.4369 58.9593 16.5537 58.6759 16.798L58.4329 17.0075L58.4364 19.4756L58.4399 21.9437L57.4745 22.0023C56.9436 22.0345 56.4981 22.0499 56.4847 22.0365C56.4713 22.0231 56.4145 21.3762 56.3584 20.5989C56.3023 19.8217 56.2008 18.7324 56.1327 18.1783C55.9874 16.9962 55.884 16.8343 55.1248 16.6004C54.4194 16.383 51.7848 16.3917 50.9746 16.6142C49.5973 16.9925 49.0306 17.2919 48.8452 17.7396C48.7082 18.0702 48.775 19.1117 49.0765 21.3497C49.8442 27.0467 50.8993 32.1476 51.4046 32.605C51.7214 32.8917 52.7195 32.9681 54.11 32.8122C55.595 32.6456 56.0459 32.489 56.1761 32.0947C56.3225 31.6512 56.4399 30.5654 56.4429 29.6281C56.4461 28.6095 56.3747 28.6746 57.7263 28.4574C58.2121 28.3793 58.6934 28.2953 58.796 28.2707C58.9731 28.2281 58.9898 28.2842 59.1343 29.4027C59.4043 31.4933 59.5948 32.1475 59.9934 32.3536C60.384 32.5556 61.6772 32.6818 62.8049 32.628C63.983 32.5718 64.3516 32.4647 64.5256 32.1281C65.0294 31.1539 65.7236 23.9434 65.7519 19.3916C65.7656 17.1741 65.7594 17.1544 64.9207 16.739C63.9259 16.2465 61.7047 16.0202 60.2877 16.2672ZM68.1971 16.5838C67.0652 16.7387 66.9287 16.9225 66.7673 18.5088C66.5424 20.7206 66.8043 28.9542 67.1681 31.1094C67.3467 32.1672 67.4896 32.4488 67.9047 32.5606C68.6083 32.75 69.9969 32.8411 72.962 32.8921C75.9747 32.944 77.8665 32.8625 78.6456 32.6475C79.1006 32.5219 79.2109 32.2277 79.3377 30.8033C79.468 29.337 79.3429 27.9232 79.0625 27.6962C78.7961 27.4805 77.9029 27.3557 76.6202 27.3552C75.9927 27.355 75.0917 27.3291 74.6181 27.2977L73.757 27.2407V26.9556V26.6704L74.8724 26.6333C76.1536 26.5906 76.2589 26.5315 76.3696 25.793C76.4506 25.253 76.3564 23.6892 76.2171 23.2611C76.0664 22.7982 75.8564 22.6857 74.9392 22.5761C73.7282 22.4315 73.757 22.4421 73.757 22.1429V21.8796L75.9871 21.8747C78.4451 21.8691 78.7562 21.8202 78.9537 21.4076C79.2807 20.7244 79.4609 17.8769 79.2087 17.3785C78.9271 16.8221 76.7563 16.5619 72.123 16.5294C70.277 16.5164 68.5104 16.5408 68.1971 16.5838ZM82.1153 17.2104C81.4359 17.2977 80.9538 17.4918 80.8666 17.7132C80.8346 17.7944 80.745 18.5962 80.6674 19.4949C80.56 20.7365 80.5251 22.3166 80.5215 26.075C80.5154 32.5727 80.5477 32.7621 81.7275 33.1611C82.8399 33.5371 86.7423 33.8941 90.0227 33.9198L92.0537 33.9357L92.2226 33.7283C92.6178 33.2428 92.8628 31.8296 92.8607 30.0495C92.8588 28.5049 92.7399 27.8818 92.3911 27.5883C92.1661 27.3989 92.0213 27.367 91.1823 27.3212C88.441 27.172 87.8971 27.1165 87.6615 26.9622L87.4253 26.8074L87.4863 25.5579C87.5197 24.8708 87.6238 23.1956 87.7175 21.8355C87.8111 20.4753 87.888 19.0354 87.8882 18.6355L87.8887 17.9087L87.5575 17.7427C86.5713 17.2484 83.8738 16.9846 82.1153 17.2104ZM43.153 17.6501C41.1315 17.9429 39.5864 20.1063 39.9198 22.1769C40.0649 23.078 40.4426 23.7949 41.0858 24.3905C41.3802 24.663 41.7757 24.9649 41.9648 25.0614C43.094 25.6375 44.7162 25.6361 45.8493 25.058C46.4327 24.7604 47.157 23.9602 47.5034 23.2308C47.7705 22.6684 47.8212 22.4581 47.8575 21.7633C47.9319 20.3401 47.5833 19.4407 46.6194 18.5683C46.022 18.0277 45.4491 17.7724 44.5372 17.6406C43.8744 17.5446 43.8811 17.5446 43.153 17.6501ZM37.4119 18.1825C35.0862 18.438 32.4394 18.8814 31.904 19.105L31.602 19.2313L31.6478 19.9593C31.673 20.3597 31.7795 20.975 31.8845 21.3268C32.1115 22.0873 32.1537 22.108 33.3087 22.0261L34.0848 21.9709L34.1446 22.3448C34.2388 22.9331 34.7012 24.9698 34.85 25.4514C35.0837 26.2083 35.1784 26.2958 35.7637 26.2958C36.4052 26.2958 37.2651 26.1432 37.5102 25.9858C37.8143 25.7906 37.8275 25.1198 37.5846 22.2108L37.5201 21.438H37.7577C37.8885 21.438 38.2693 21.3757 38.604 21.2995C39.1711 21.1706 39.2196 21.1407 39.3109 20.8638C39.5235 20.2198 39.3944 18.7697 39.0809 18.2805C38.9377 18.0571 38.6869 18.0424 37.4119 18.1825ZM96.4119 18.4903C95.4264 18.6844 95.2707 18.738 94.9984 18.977C94.5348 19.3841 94.4382 20.0292 93.9683 25.8542C93.9075 26.6071 93.8561 28.5546 93.8542 30.182C93.8499 33.6709 93.8802 33.8707 94.4567 34.1414C94.8681 34.3345 95.8693 34.5497 96.9837 34.6844C98.5546 34.8743 99.1012 34.7731 99.3719 34.2424C99.5544 33.8848 99.8838 32.8914 100.103 32.0368C100.172 31.7696 100.264 31.5577 100.308 31.5659C102.134 31.908 103.433 31.724 104.88 30.9177C106.39 30.0761 107.475 28.6845 108.069 26.8257C108.272 26.1914 108.309 25.9175 108.311 25.0593C108.313 24.196 108.28 23.9557 108.096 23.4588C107.673 22.3155 106.962 21.4043 105.831 20.5562C104.533 19.5836 102.55 18.907 99.9889 18.563C99.1507 18.4505 96.8516 18.4037 96.4119 18.4903ZM44.3732 20.6534C44.7146 20.828 44.8712 21.1054 44.8733 21.539C44.8782 22.5567 43.604 22.9361 43.0453 22.0833C42.7478 21.6292 42.9196 20.9359 43.3951 20.6718C43.6453 20.5329 44.12 20.524 44.3732 20.6534ZM101.917 23.7824C103.214 24.1674 103.68 25.5101 102.832 26.417C102.494 26.7781 102.113 26.914 101.437 26.914C100.882 26.914 100.833 26.8972 100.564 26.6118C100.254 26.2832 100.165 25.9889 100.166 25.2911C100.167 24.4136 100.443 23.9088 101.015 23.7374C101.376 23.6293 101.407 23.6309 101.917 23.7824ZM46.2884 27.2953C46.0213 27.4057 45.5066 27.6894 45.1447 27.9261C44.2354 28.5207 43.1257 29.0639 42.1683 29.3829C41.4749 29.6139 41.2303 29.6521 40.441 29.6521C39.4406 29.6521 38.1546 29.4482 36.861 29.0845C35.8538 28.8013 35.4539 28.7955 35.0637 29.0585C34.025 29.7585 34.1878 31.1841 35.3981 31.9868C37.9962 33.71 43.2655 33.5126 46.2528 31.5802C48.145 30.3561 48.8366 28.6628 47.8652 27.6323C47.5967 27.3474 47.1272 27.0883 46.8874 27.0928C46.8252 27.094 46.5556 27.1851 46.2884 27.2953Z" fill="white"/>
</svg>
