<svg width="80" height="80" viewBox="0 0 80 80" fill="none" xmlns="http://www.w3.org/2000/svg">
<circle cx="40" cy="40" r="38.5" fill="#636B9E" stroke="#F7AA6B" stroke-width="3"/>
<path d="M59.4531 54.6094L51.6406 46.7969C51.25 46.4844 50.7812 46.25 50.3125 46.25H49.0625C51.1719 43.5156 52.5 40.0781 52.5 36.25C52.5 27.3438 45.1562 20 36.25 20C27.2656 20 20 27.3438 20 36.25C20 45.2344 27.2656 52.5 36.25 52.5C40 52.5 43.4375 51.25 46.25 49.0625V50.3906C46.25 50.8594 46.4062 51.3281 46.7969 51.7188L54.5312 59.4531C55.3125 60.2344 56.4844 60.2344 57.1875 59.4531L59.375 57.2656C60.1562 56.5625 60.1562 55.3906 59.4531 54.6094ZM36.25 46.25C30.7031 46.25 26.25 41.7969 26.25 36.25C26.25 30.7812 30.7031 26.25 36.25 26.25C41.7188 26.25 46.25 30.7812 46.25 36.25C46.25 41.7969 41.7188 46.25 36.25 46.25Z" fill="white"/>
</svg>
