<svg width="120" height="67" viewBox="0 0 120 67" fill="none" xmlns="http://www.w3.org/2000/svg">
<path fill-rule="evenodd" clip-rule="evenodd" d="M31.6643 0.916638C28.5033 1.60265 24.1936 3.96452 22.3652 6.01339C21.8276 6.61575 21.8353 6.62078 23.5475 6.81467C32.3131 7.80688 38.173 12.6784 40.4988 20.9058C41.4183 24.1588 41.6577 29.7397 41.6669 48.1213L41.6749 64.5991H49.6835H57.6919L57.5571 43.8356C57.4117 21.3882 57.3287 20.0788 55.7341 15.0905C53.3944 7.77171 47.8862 2.41546 41.1733 0.931417C38.6075 0.364225 34.2414 0.357426 31.6643 0.916638ZM62.4526 22.5548C62.6084 43.0467 62.7228 45.4591 63.7292 49.4717C65.8738 58.0236 71.6675 64.0839 79.2118 65.6664C84.1835 66.7094 90.2864 65.6699 94.3088 63.0947C96.2492 61.8527 98.1281 60.2377 98.1281 59.8121C98.1281 59.6815 97.4178 59.5745 96.5498 59.5745C94.4075 59.5745 90.7945 58.6106 88.5771 57.4479C86.3299 56.2694 82.9114 52.9316 81.6236 50.659C81.102 49.738 80.4035 48.2085 80.0716 47.26C78.6278 43.1327 78.59 42.5513 78.4153 21.6681L78.25 1.939H70.2727H62.2957L62.4526 22.5548ZM103.97 25.2149C103.876 47.993 103.861 48.5389 103.238 50.75C102.888 51.9923 102.177 53.8544 101.657 54.888C100.762 56.6673 99.1345 59.0153 98.6474 59.2295C98.5244 59.2839 98.4236 59.4698 98.4236 59.643C98.4236 60.2247 103.031 59.6454 105.688 58.7294C109.129 57.5436 111.181 56.2588 113.785 53.6611C117.308 50.1468 118.981 46.7555 119.684 41.7072C119.881 40.2876 120 32.3897 120 20.6862V1.939H112.033H104.066L103.97 25.2149ZM15.9937 7.2725C9.14394 9.06629 3.6464 13.9251 1.43882 20.1364C0.128866 23.8222 0.00443462 26.0575 0.00207008 45.9045L0 64.5991H7.967H15.9337L16.0395 41.471C16.1359 20.4084 16.1926 18.1582 16.6756 16.274C17.3338 13.7055 19.1175 9.92935 20.5501 8.07201L21.6331 6.66807L19.9052 6.68432C18.955 6.69319 17.1946 6.95802 15.9937 7.2725Z" fill="white"/>
</svg>
