<svg width="172" height="229" viewBox="0 0 172 229" fill="none" xmlns="http://www.w3.org/2000/svg">
<path d="M106.547 226.107L100.26 221.49L92.7663 226.107V185.827L112.336 183.234C112.741 198.693 110.811 212.984 106.547 226.107Z" fill="#FFCACF"/>
<path d="M112.336 183.222C112.741 198.68 110.811 212.971 106.547 226.094L100.261 221.476L92.7668 226.094V185.815L112.336 183.222Z" stroke="#000018" stroke-width="4.5" stroke-linecap="round" stroke-linejoin="round"/>
<path d="M107.665 212.421C102.821 213.127 98.2688 212.893 94.01 211.717" stroke="black" stroke-width="4.5" stroke-linecap="round" stroke-linejoin="round"/>
<path d="M116.312 139.967C120.219 138.435 124.082 138.902 127.9 141.366C130.72 147.472 132.718 152.301 133.894 155.854C135.937 162.026 137.169 168.354 137.591 174.837C139.078 175.392 140.544 176.291 141.987 177.535C144.895 179.999 146.282 182.908 146.149 186.261C146.083 187.859 145.361 189.391 143.985 190.857C142.364 192.566 140.544 193.055 138.523 192.322C137.546 191.967 137.014 191.29 136.925 190.29C136.903 190.224 136.958 189.269 137.091 187.426C137.247 184.895 135.682 183.541 132.396 183.363C129.932 183.23 128.7 184.296 128.7 186.56C128.722 187.16 128.766 188.059 128.833 189.258C128.81 190.191 128.544 190.812 128.034 191.123C126.812 191.856 125.458 192.033 123.971 191.656C122.483 191.256 121.351 190.435 120.574 189.191C118.887 186.571 118.976 183.818 120.84 180.932C121.418 180.044 122.128 179.189 122.972 178.367L124.104 177.402L111.649 142.965C112.826 141.721 114.38 140.722 116.312 139.967Z" fill="#FFCACF"/>
<path d="M111.649 142.965C112.826 141.721 114.38 140.722 116.312 139.967C120.219 138.435 124.082 138.902 127.9 141.366C130.72 147.472 132.718 152.301 133.894 155.854C135.937 162.026 137.169 168.354 137.591 174.837C139.078 175.392 140.544 176.291 141.987 177.535C144.895 179.999 146.282 182.908 146.149 186.261C146.083 187.859 145.361 189.391 143.985 190.857C142.364 192.566 140.543 193.055 138.523 192.322C137.546 191.967 137.014 191.29 136.925 190.29C136.903 190.224 136.958 189.269 137.091 187.426C137.247 184.895 135.682 183.541 132.396 183.363C129.932 183.23 128.699 184.296 128.699 186.56C128.722 187.16 128.766 188.059 128.833 189.258C128.811 190.191 128.544 190.812 128.033 191.123C126.812 191.856 125.458 192.033 123.971 191.656C122.483 191.256 121.351 190.435 120.574 189.191C118.887 186.571 118.976 183.818 120.84 180.932C121.418 180.044 122.128 179.189 122.972 178.367L124.104 177.402L111.649 142.965Z" stroke="#000018" stroke-width="4.5" stroke-linecap="round" stroke-linejoin="round"/>
<path d="M134.655 166.183L130.56 166.136C127.448 166.612 124.909 168.072 122.94 170.517" stroke="#000018" stroke-width="4.5" stroke-linecap="round" stroke-linejoin="round"/>
<path d="M130.102 151.393L126.007 151.345C122.896 151.821 120.356 153.282 118.387 155.727" stroke="#000018" stroke-width="4.5" stroke-linecap="round" stroke-linejoin="round"/>
<path d="M61.065 139.967C57.1577 138.435 53.2949 138.902 49.4764 141.366C46.6569 147.472 44.6588 152.301 43.4822 155.854C41.4398 162.026 40.2076 168.354 39.7858 174.837C38.2984 175.392 36.8331 176.291 35.3901 177.535C32.4818 179.999 31.0943 182.908 31.2275 186.261C31.2941 187.859 32.0156 189.391 33.3921 190.857C35.0127 192.566 36.8331 193.055 38.8534 192.322C39.8302 191.967 40.363 191.29 40.4518 190.29C40.474 190.224 40.4185 189.269 40.2853 187.426C40.1299 184.895 41.6951 183.541 44.9808 183.363C47.445 183.23 48.6771 184.296 48.6771 186.56C48.6549 187.16 48.6105 188.059 48.5439 189.258C48.5661 190.191 48.8325 190.812 49.3431 191.123C50.5641 191.856 51.9184 192.033 53.4058 191.656C54.8932 191.256 56.0255 190.435 56.8025 189.191C58.4898 186.571 58.401 183.818 56.5361 180.932C55.9589 180.044 55.2484 179.189 54.4048 178.367L53.2726 177.402L65.7271 142.965C64.5505 141.721 62.9964 140.722 61.065 139.967Z" fill="#FFCACF"/>
<path d="M65.7271 142.965C64.5505 141.721 62.9964 140.722 61.065 139.967C57.1577 138.435 53.2949 138.902 49.4764 141.366C46.6569 147.472 44.6588 152.301 43.4822 155.854C41.4398 162.026 40.2076 168.354 39.7858 174.837C38.2984 175.392 36.8331 176.291 35.3901 177.535C32.4818 179.999 31.0943 182.908 31.2275 186.261C31.2941 187.859 32.0156 189.391 33.3921 190.857C35.0127 192.566 36.8331 193.055 38.8534 192.322C39.8302 191.967 40.363 191.29 40.4518 190.29C40.474 190.224 40.4185 189.269 40.2853 187.426C40.1299 184.895 41.6951 183.541 44.9807 183.363C47.445 183.23 48.6771 184.296 48.6771 186.56C48.6549 187.16 48.6105 188.059 48.5439 189.258C48.5661 190.191 48.8325 190.812 49.3431 191.123C50.5641 191.856 51.9184 192.033 53.4058 191.656C54.8932 191.256 56.0255 190.435 56.8025 189.191C58.4898 186.571 58.401 183.818 56.5361 180.932C55.9589 180.044 55.2484 179.189 54.4048 178.367L53.2726 177.402L65.7271 142.965Z" stroke="#000018" stroke-width="4.5" stroke-linecap="round" stroke-linejoin="round"/>
<path d="M42.7026 166.183L46.7981 166.136C49.9093 166.612 52.4492 168.073 54.4175 170.517" stroke="#000018" stroke-width="4.5" stroke-linecap="round" stroke-linejoin="round"/>
<path d="M47.303 151.393L51.3984 151.345C54.5097 151.821 57.0495 153.282 59.0179 155.727" stroke="#000018" stroke-width="4.5" stroke-linecap="round" stroke-linejoin="round"/>
<path d="M69.8641 226.107L76.1505 221.49L83.6445 226.107V185.827L64.0749 183.234C63.6698 198.693 65.5996 212.984 69.8641 226.107Z" fill="#FFCACF"/>
<path d="M64.0825 183.222C63.6774 198.68 65.607 212.971 69.8715 226.094L76.1577 221.476L83.6516 226.094V185.815L64.0825 183.222Z" stroke="#000018" stroke-width="4.5" stroke-linecap="round" stroke-linejoin="round"/>
<path d="M68.731 212.445C73.5758 213.151 78.1276 212.917 82.3865 211.741" stroke="black" stroke-width="4.5" stroke-linecap="round" stroke-linejoin="round"/>
<path d="M72.5822 129.883C68.1937 129.883 63.7239 133.056 59.1729 139.402C54.529 145.843 51.8471 152.805 51.1273 160.288C50.2682 168.931 52.5089 175.905 57.8494 181.21C64.258 187.532 74.6023 190.693 88.8824 190.693C103.162 190.693 113.484 187.532 119.846 181.21C125.14 175.905 127.334 168.931 126.428 160.288C125.616 152.805 122.864 145.843 118.174 139.402C113.576 133.056 109.083 129.883 104.695 129.883H72.5822Z" fill="#FFCACF"/>
<path d="M104.721 129.871C109.11 129.871 113.602 133.044 118.2 139.391C122.89 145.832 125.642 152.793 126.455 160.276C127.36 168.919 125.166 175.893 119.872 181.197C113.51 187.52 103.189 190.681 88.9085 190.681C74.6285 190.681 64.2842 187.52 57.8756 181.197C52.5351 175.893 50.2943 168.919 51.1534 160.276C51.8732 152.793 54.5552 145.832 59.1991 139.391C63.7502 133.044 68.2199 129.871 72.6084 129.871H104.721Z" stroke="#000018" stroke-width="4.5" stroke-linecap="round" stroke-linejoin="round"/>
<path d="M165.757 90.5855C165.757 76.9364 163.711 64.6768 159.618 53.8067C155.711 43.474 150.077 34.6842 142.717 27.4375C135.626 20.4671 127.197 15.1779 117.428 11.5698C107.862 8.03858 97.4199 6.27295 86.102 6.27295C63.1124 6.27295 45.1165 13.2894 32.1144 27.3223C18.5059 42.0308 11.7017 63.1185 11.7017 90.5855C11.7017 95.5293 12.4511 100.504 13.9501 105.509C16.0217 112.479 19.3733 118.659 24.0049 124.048C36.8555 139.017 58.0766 146.502 87.6683 146.502C117.311 146.502 138.885 139.017 152.393 124.048C157.277 118.628 160.873 112.449 163.18 105.509C164.898 100.35 165.757 95.3757 165.757 90.5855Z" fill="#FFCACF"/>
<path d="M86.1112 6.276C63.1218 6.276 45.1261 13.2924 32.124 27.3252C18.5156 42.0334 11.7114 63.1209 11.7114 90.5877C11.7114 95.5314 12.4609 100.506 13.9599 105.511C16.0314 112.481 19.3831 118.661 24.0146 124.05C36.8651 139.019 58.0861 146.504 87.6775 146.504C117.32 146.504 138.894 139.019 152.402 124.05C157.286 118.63 160.882 112.451 163.189 105.511C164.907 100.352 165.766 95.3778 165.766 90.5877C165.766 76.9387 163.719 64.6793 159.627 53.8093C155.719 43.4766 150.086 34.687 142.726 27.4403C135.635 20.47 127.206 15.1808 117.437 11.5728C107.871 8.04162 97.4291 6.276 86.1112 6.276Z" stroke="black" stroke-width="4.5" stroke-linecap="round" stroke-linejoin="round"/>
<path d="M115.696 81.817C115.584 79.1647 114.916 76.9156 113.69 75.0698C112.297 73.0549 110.486 72.0748 108.257 72.1295C106.084 72.1828 104.273 73.2517 102.824 75.3363C101.598 77.2422 100.929 79.5241 100.818 82.1819C100.762 84.8672 101.32 87.119 102.49 88.9373C103.883 90.9522 105.805 91.9295 108.257 91.8694C110.764 91.8079 112.687 90.7362 114.024 88.6544C115.194 86.7787 115.751 84.4996 115.696 81.817Z" fill="#000018"/>
<path d="M108.252 72.0718C106.079 72.1252 104.269 73.1941 102.82 75.2787C101.594 77.1846 100.925 79.4664 100.814 82.1241C100.758 84.8094 101.315 87.0612 102.486 88.8794C103.879 90.8942 105.801 91.8715 108.252 91.8114C110.76 91.7498 112.682 90.6782 114.019 88.5964C115.19 86.7207 115.747 84.4416 115.691 81.7591C115.58 79.1068 114.911 76.8577 113.685 75.012C112.292 72.9972 110.481 72.0171 108.252 72.0718Z" stroke="#000018" stroke-width="4.5" stroke-linecap="round" stroke-linejoin="round"/>
<path d="M76.8004 81.817C76.689 79.1647 76.0203 76.9156 74.7944 75.0698C73.4013 73.0549 71.5903 72.0748 69.3615 72.1295C67.1883 72.1828 65.3773 73.2517 63.9285 75.3363C62.7026 77.2422 62.0339 79.5241 61.9225 82.1819C61.8668 84.8672 62.424 87.119 63.5942 88.9373C64.9872 90.9522 66.9097 91.9295 69.3615 91.8694C71.869 91.8079 73.7914 90.7362 75.1287 88.6544C76.2989 86.7787 76.8561 84.4996 76.8004 81.817Z" fill="#000018"/>
<path d="M69.2448 72.0734C67.0718 72.1268 65.2607 73.1957 63.812 75.2802C62.5862 77.1862 61.9175 79.468 61.806 82.1257C61.7503 84.811 62.3076 87.0628 63.4777 88.881C64.8707 90.8958 66.7932 91.8731 69.2448 91.813C71.7522 91.7514 73.6745 90.6798 75.0118 88.598C76.1819 86.7223 76.7392 84.4432 76.6835 81.7607C76.572 79.1084 75.9034 76.8593 74.6775 75.0136C73.2845 72.9988 71.4736 72.0187 69.2448 72.0734Z" stroke="#000018" stroke-width="4.5" stroke-linecap="round" stroke-linejoin="round"/>
<path d="M65.361 117.354C69.3793 121.661 77.0496 123.815 88.3719 123.815C106.288 123.815 115.246 118.564 115.246 108.062C115.246 104.598 114.546 101.479 113.148 98.7032C111.794 96.0832 109.851 93.8518 107.32 92.009C104.878 90.2327 101.981 88.8895 98.6286 87.9791C95.3429 87.091 91.7464 86.647 87.8391 86.647C79.9357 86.647 73.7417 88.4232 69.2572 91.9757C64.5729 95.728 62.2307 101.09 62.2307 108.062C62.2307 111.992 63.2741 115.089 65.361 117.354Z" fill="#DE838B"/>
<path d="M87.8391 86.647C79.9357 86.647 73.7417 88.4232 69.2572 91.9757C64.5729 95.728 62.2307 101.09 62.2307 108.062C62.2307 111.992 63.2741 115.089 65.361 117.354C69.3793 121.661 77.0496 123.815 88.3719 123.815C106.288 123.815 115.246 118.564 115.246 108.062C115.246 104.598 114.546 101.479 113.148 98.7032C111.794 96.0832 109.851 93.8518 107.32 92.009C104.878 90.2327 101.981 88.8895 98.6286 87.9791C95.3429 87.091 91.7464 86.647 87.8391 86.647Z" stroke="black" stroke-width="4.5" stroke-linecap="round" stroke-linejoin="round"/>
<path d="M82.1604 99.0519V110.489" stroke="black" stroke-width="4.5" stroke-linecap="round" stroke-linejoin="round"/>
<path d="M95.3845 99.0519V110.489" stroke="black" stroke-width="4.5" stroke-linecap="round" stroke-linejoin="round"/>
<path d="M107.391 63.5037C109.812 63.9895 112.151 64.0936 114.407 63.816C117.203 63.4962 118.765 62.7613 119.093 61.6114C119.408 60.4465 118.405 59.2275 116.084 57.9543C114.148 56.8865 111.938 56.1513 109.453 55.7489C107.217 55.3778 105.375 55.3969 103.926 55.8062C102.404 56.2523 101.49 57.1046 101.183 58.3631C100.878 59.6226 101.302 60.7047 102.455 61.6092C103.569 62.45 105.214 63.0815 107.391 63.5037Z" fill="#000018"/>
<path d="M119.101 61.5997C119.427 60.4356 118.429 59.2169 116.108 57.9438C114.173 56.876 111.963 56.1409 109.477 55.7384C107.242 55.3673 105.394 55.386 103.935 55.7946C102.424 56.2414 101.514 57.098 101.205 58.3645C100.902 59.616 101.327 60.694 102.48 61.5986C103.593 62.4394 105.233 63.0705 107.4 63.4919C109.831 63.9785 112.175 64.083 114.432 63.8054C117.227 63.4856 118.784 62.7504 119.101 61.5997Z" stroke="#000018" stroke-width="4.5" stroke-linecap="round" stroke-linejoin="round"/>
<path d="M75.0413 62.3951C76.1983 61.5032 76.6216 60.433 76.3112 59.1844C76.0149 57.9084 75.1119 57.0509 73.6022 56.6118C72.1207 56.2002 70.2654 56.1796 68.0362 56.5501C65.5671 56.948 63.359 57.682 61.4119 58.7523C59.0839 60.042 58.0963 61.2563 58.449 62.3951C58.7312 63.5476 60.2761 64.2817 63.0839 64.5973C65.3554 64.8991 67.7046 64.8031 70.1314 64.3091C72.2901 63.8838 73.9267 63.2458 75.0413 62.3951Z" fill="#000018"/>
<path d="M58.4502 62.407C58.0975 61.2681 59.0852 60.0539 61.4131 58.7641C63.3602 57.6939 65.5681 56.9599 68.0372 56.562C70.2664 56.1915 72.1219 56.2121 73.6034 56.6237C75.113 57.0628 76.016 57.9203 76.3123 59.1963C76.6227 60.4449 76.1993 61.5151 75.0424 62.407C73.9278 63.2576 72.2912 63.8956 70.1325 64.321C67.7057 64.8149 65.3566 64.911 63.085 64.6091C60.2773 64.2936 58.7324 63.5595 58.4502 62.407Z" stroke="#000018" stroke-width="4.5" stroke-linecap="round" stroke-linejoin="round"/>
<path d="M45.5383 84.5532C42.4654 83.8181 39.6843 83.815 37.1951 84.5437C34.4611 85.3984 32.7851 87.0382 32.167 89.463C31.5644 91.8272 32.236 94.1278 34.1818 96.3648C35.9911 98.3034 38.4014 99.7615 41.4125 100.739C44.4721 101.665 47.2223 101.79 49.6629 101.112C52.3969 100.258 54.1038 98.4965 54.7838 95.8291C55.4791 93.1012 54.8384 90.6793 52.8617 88.5636C51.07 86.6949 48.6289 85.3581 45.5383 84.5532Z" fill="#FF9FAE"/>
<path d="M132.038 84.5532C135.111 83.8182 137.893 83.815 140.382 84.5437C143.116 85.3984 144.792 87.0382 145.41 89.4631C146.013 91.8273 145.341 94.1279 143.395 96.3648C141.586 98.3035 139.176 99.7616 136.164 100.739C133.105 101.665 130.355 101.79 127.914 101.112C125.18 100.258 123.473 98.4965 122.793 95.8292C122.098 93.1012 122.738 90.6794 124.715 88.5637C126.507 86.695 128.948 85.3581 132.038 84.5532Z" fill="#FF9FAE"/>
<path d="M52.5068 156.387L68.8242 160.683L69.2905 163.281C69.8233 165.368 70.6336 167.288 71.7214 169.042C75.2291 174.593 80.8902 177.368 88.7048 177.368C96.5194 177.368 102.181 174.593 105.688 169.042C107.442 166.245 108.419 163.458 108.619 160.683L124.903 156.387" stroke="black" stroke-width="4.5" stroke-linecap="round" stroke-linejoin="round"/>
<path d="M53.8367 13.5153L71.6378 19.6468L72.2045 21.9725C72.7601 23.805 73.5268 25.4964 74.5047 27.0469C77.6382 31.9521 82.2718 34.4048 88.4055 34.4048C94.5392 34.4048 99.1729 31.9521 102.306 27.0469C103.884 24.5661 104.851 22.0994 105.207 19.6468L122.941 13.5153" stroke="black" stroke-width="4.5" stroke-linecap="round" stroke-linejoin="round"/>
<path d="M22.8694 20.5487C21.7803 21.9458 20.3123 23.1772 18.4654 24.2428C16.737 25.2373 14.8428 25.853 12.7828 26.0898C10.6282 26.1845 9.11279 26.2911 8.23673 26.4095C6.76872 26.5989 5.67955 27.1317 4.96923 28.0079C4.06948 29.0972 3.44202 30.9916 3.08686 33.6911C2.7317 36.509 3.4657 39.5993 5.28887 42.9619C7.04101 46.206 9.49164 49.1187 12.6408 51.6998C15.9083 54.3757 19.3533 56.199 22.976 57.1699C26.9775 58.2592 30.7067 58.1289 34.1636 56.7792C40.2014 54.4348 44.2266 47.3545 46.2392 35.5382C46.8785 31.8678 47.2692 27.9369 47.4112 23.7455L47.4467 18.5596C47.5888 15.6469 48.7372 13.4447 50.8918 11.9528C51.5785 11.4792 52.3362 11.1122 53.1649 10.8517C53.5674 10.7096 53.9344 10.6149 54.2659 10.5675C53.5319 9.57297 52.4901 8.53105 51.1404 7.44177C49.9092 6.42353 48.6543 5.55921 47.3757 4.84881C42.4981 2.07824 37.8928 2.42159 33.5599 5.87888C30.0556 8.6968 27.2735 12.2015 25.2135 16.3928C24.2901 18.3346 23.5087 19.7199 22.8694 20.5487Z" fill="#FFCACF"/>
<path d="M47.3764 4.87178C42.4989 2.10125 37.8937 2.44462 33.5608 5.90185C30.0566 8.71974 27.2745 12.2243 25.2146 16.4156C24.2912 18.3574 23.5098 19.7426 22.8706 20.5714C21.7814 21.9685 20.3135 23.1999 18.4667 24.2655C16.7383 25.26 14.844 25.8757 12.7841 26.1125C10.6295 26.2072 9.11414 26.3137 8.23809 26.4321C6.7701 26.6216 5.68097 27.1544 4.97065 28.0305C4.07092 29.1198 3.44348 31.0142 3.08832 33.7137C2.73316 36.5315 3.46718 39.6217 5.29032 42.9843C7.04243 46.2284 9.49303 49.141 12.6421 51.7221C15.9095 54.3979 19.3546 56.2212 22.9772 57.1921C26.9787 58.2814 30.7077 58.1511 34.1646 56.8014C40.2022 54.4571 44.2274 47.3768 46.24 35.5607C46.8793 31.8903 47.2699 27.9595 47.412 23.7682L47.4475 18.5823C47.5895 15.6697 48.738 13.4675 50.8926 11.9757C51.5793 11.5021 52.3369 11.1351 53.1656 10.8746C53.5681 10.7325 53.9351 10.6378 54.2665 10.5904C53.5326 9.59587 52.4908 8.55399 51.1412 7.46472C49.91 6.44649 48.655 5.58217 47.3764 4.87178Z" stroke="black" stroke-width="4.5" stroke-linecap="round" stroke-linejoin="round"/>
<path d="M124.624 4.8878C123.346 5.5982 122.091 6.46254 120.86 7.48079C119.51 8.57007 118.468 9.61197 117.734 10.6065C118.066 10.6539 118.433 10.7486 118.835 10.8907C119.664 11.1512 120.422 11.5182 121.108 11.9918C123.263 13.4837 124.411 15.6859 124.553 18.5986L124.589 23.7845C124.731 27.9759 125.122 31.9068 125.761 35.5772C127.773 47.3935 131.799 54.4739 137.836 56.8182C141.293 58.1679 145.023 58.2982 149.024 57.2089C152.647 56.2381 156.092 54.4147 159.359 51.7388C162.508 49.1577 164.959 46.2451 166.711 43.0009C168.534 39.6383 169.268 36.548 168.913 33.7301C168.558 31.0306 167.931 29.1362 167.031 28.0469C166.321 27.1707 165.231 26.6379 163.763 26.4485C162.887 26.3301 161.372 26.2236 159.217 26.1288C157.157 25.892 155.263 25.2763 153.535 24.2818C151.688 23.2162 150.22 21.9848 149.131 20.5877C148.491 19.7589 147.71 18.3736 146.787 16.4318C144.727 12.2405 141.944 8.73582 138.44 5.91789C134.107 2.4606 129.502 2.11723 124.624 4.8878Z" fill="#FFCACF"/>
<path d="M124.624 4.87826C129.502 2.10773 134.107 2.45108 138.44 5.90831C141.944 8.7262 144.726 12.2308 146.786 16.4221C147.71 18.3638 148.491 19.7491 149.13 20.5779C150.22 21.975 151.687 23.2063 153.534 24.2719C155.263 25.2665 157.157 25.8821 159.217 26.1189C161.371 26.2136 162.887 26.3202 163.763 26.4386C165.231 26.6281 166.32 27.1608 167.03 28.037C167.93 29.1263 168.557 31.0206 168.913 33.7201C169.268 36.538 168.534 39.6282 166.711 42.9907C164.959 46.2348 162.508 49.1474 159.359 51.7285C156.091 54.4043 152.646 56.2277 149.024 57.1986C145.022 58.2878 141.293 58.1576 137.836 56.8078C131.799 54.4635 127.774 47.3833 125.761 35.5672C125.122 31.8968 124.731 27.9659 124.589 23.7746L124.553 18.5888C124.411 15.6762 123.263 13.474 121.108 11.9822C120.422 11.5086 119.664 11.1415 118.835 10.881C118.433 10.739 118.066 10.6443 117.734 10.5969C118.468 9.60237 119.51 8.56045 120.86 7.47118C122.091 6.45295 123.346 5.58865 124.624 4.87826Z" stroke="black" stroke-width="4.5" stroke-linecap="round" stroke-linejoin="round"/>
<path d="M84.2495 16.0963V16.1213L84.2202 16.1462L84.1911 16.1961L84.1618 16.2211C84.1618 16.2377 84.1618 16.2544 84.1618 16.271C84.1423 16.271 84.1326 16.2793 84.1326 16.2959C84.1326 16.3126 84.1228 16.3209 84.1034 16.3209C84.1034 16.3375 84.1034 16.3542 84.1034 16.3708L84.0741 16.3958C84.0741 16.4124 84.0644 16.4207 84.0449 16.4207C84.0449 16.4374 84.0449 16.454 84.0449 16.4706L84.0157 16.4956C84.0157 16.5122 84.006 16.5289 83.9865 16.5455V16.5954C83.9865 16.612 83.9767 16.6204 83.9572 16.6204C83.9572 16.637 83.9572 16.6537 83.9572 16.6703L83.928 16.6952C83.928 16.7119 83.928 16.7285 83.928 16.7452V16.7701L83.8988 16.7951V16.8949C83.8988 16.9115 83.8988 16.9282 83.8988 16.9448L83.8695 16.9698V16.9947C83.8695 17.0114 83.8598 17.028 83.8403 17.0446V17.0945C83.8403 17.1112 83.8403 17.1278 83.8403 17.1445V17.1694C83.8403 17.1861 83.8403 17.2027 83.8403 17.2193V17.3691C83.8403 17.3857 83.8403 17.4024 83.8403 17.419V17.4939C83.8403 17.5105 83.8403 17.5271 83.8403 17.5438V17.5937C83.8403 17.6103 83.8403 17.627 83.8403 17.6436C83.8598 17.6436 83.8695 17.6519 83.8695 17.6686C83.8695 17.6852 83.8695 17.7018 83.8695 17.7185C83.889 17.7185 83.8988 17.7268 83.8988 17.7435V17.7934C83.8988 17.81 83.8988 17.8266 83.8988 17.8433V17.8682C83.9183 17.8849 83.928 17.9015 83.928 17.9181V17.968C83.928 17.9847 83.9377 17.993 83.9572 17.993V18.0429L83.9865 18.0679C83.9865 18.0845 83.9865 18.1012 83.9865 18.1178V18.1428C84.006 18.1428 84.0157 18.1511 84.0157 18.1677C84.0351 18.1843 84.0449 18.201 84.0449 18.2176V18.2426L84.0741 18.2675C84.0741 18.2842 84.0839 18.3008 84.1034 18.3174V18.3424C84.1228 18.359 84.1326 18.3757 84.1326 18.3923L84.1618 18.4173V18.4422C84.1618 18.4589 84.1716 18.4672 84.1911 18.4672C84.1911 18.4838 84.2008 18.4922 84.2202 18.4922C84.2202 18.5254 84.23 18.5421 84.2495 18.5421C84.2495 18.5587 84.2495 18.5753 84.2495 18.592C84.269 18.592 84.2884 18.6003 84.3079 18.6169V18.6419L84.3372 18.6668C84.3567 18.6835 84.3761 18.7001 84.3956 18.7167V18.7417C84.4151 18.7584 84.4346 18.7667 84.4541 18.7667C84.4541 18.7833 84.4638 18.7999 84.4833 18.8166L84.5125 18.8415C84.532 18.8582 84.5418 18.8748 84.5418 18.8915C84.5613 18.8915 84.571 18.8998 84.571 18.9164C84.5905 18.9331 84.61 18.9414 84.6295 18.9414C84.6295 18.958 84.6392 18.9663 84.6587 18.9663C84.6587 18.983 84.6684 18.9996 84.6879 19.0162C84.7074 19.0329 84.7269 19.0412 84.7464 19.0412C84.7658 19.0578 84.7756 19.0745 84.7756 19.0911C84.7951 19.0911 84.8146 19.0994 84.8341 19.1161C84.8535 19.1327 84.873 19.141 84.8925 19.141C84.8925 19.1577 84.912 19.166 84.9509 19.166C84.9509 19.1993 84.9607 19.2159 84.9802 19.2159L85.0386 19.2409C85.0776 19.2575 85.1068 19.2741 85.1263 19.2908C85.1458 19.2908 85.1653 19.2991 85.1848 19.3157C85.2043 19.3157 85.2335 19.324 85.2725 19.3407C85.292 19.3573 85.3114 19.374 85.3309 19.3906C85.3504 19.4072 85.3796 19.4156 85.4186 19.4156C85.4381 19.4322 85.4673 19.4405 85.5063 19.4405C85.5453 19.4571 85.5842 19.4738 85.6232 19.4904C85.6622 19.4904 85.7012 19.4987 85.7401 19.5154C85.7596 19.5154 85.7888 19.5237 85.8278 19.5403C85.8473 19.5403 85.857 19.5486 85.857 19.5653H85.9155C85.935 19.5653 85.9642 19.5653 86.0032 19.5653C86.0227 19.5653 86.0421 19.5736 86.0616 19.5902C86.0811 19.5902 86.1103 19.5902 86.1493 19.5902C86.1688 19.5902 86.2077 19.5902 86.2662 19.5902C86.3441 19.6069 86.4221 19.6152 86.5 19.6152C86.5975 19.6152 86.6852 19.6069 86.7631 19.5902C86.8021 19.5902 86.841 19.5902 86.88 19.5902C86.8995 19.5902 86.9287 19.5902 86.9677 19.5902C86.9872 19.5736 87.0067 19.5653 87.0261 19.5653C87.0456 19.5653 87.0749 19.5653 87.1138 19.5653H87.143C87.1625 19.5486 87.1821 19.5403 87.2015 19.5403C87.221 19.5237 87.2502 19.5154 87.2892 19.5154C87.3281 19.4987 87.3671 19.4904 87.4061 19.4904C87.4451 19.4738 87.4743 19.4571 87.4938 19.4405C87.5328 19.4405 87.5717 19.4322 87.6107 19.4156C87.6302 19.4156 87.6594 19.4072 87.6984 19.3906C87.7179 19.374 87.7374 19.3573 87.7568 19.3407C87.7763 19.324 87.8056 19.3157 87.8445 19.3157C87.8445 19.2991 87.8542 19.2908 87.8737 19.2908C87.9127 19.2741 87.9419 19.2575 87.9614 19.2409C87.9809 19.2409 88.0004 19.2325 88.0199 19.2159C88.0393 19.2159 88.0589 19.1993 88.0784 19.166C88.0979 19.166 88.1076 19.1577 88.1076 19.141C88.1465 19.141 88.166 19.1327 88.166 19.1161C88.1855 19.0994 88.205 19.0911 88.2245 19.0911C88.244 19.0745 88.2635 19.0578 88.283 19.0412L88.3121 19.0162C88.3316 18.9996 88.3512 18.983 88.3707 18.9663C88.3901 18.9663 88.3998 18.958 88.3998 18.9414C88.4193 18.9414 88.4291 18.9331 88.4291 18.9164C88.4486 18.8998 88.468 18.8915 88.4875 18.8915C88.4875 18.8748 88.4973 18.8582 88.5168 18.8415C88.5168 18.8249 88.5265 18.8166 88.546 18.8166C88.5655 18.7999 88.5752 18.7833 88.5752 18.7667C88.5947 18.7667 88.6044 18.7584 88.6044 18.7417L88.6337 18.7167C88.6532 18.7001 88.6629 18.6835 88.6629 18.6668L88.7214 18.6169C88.7214 18.6003 88.7311 18.592 88.7506 18.592C88.7506 18.5753 88.7506 18.5587 88.7506 18.5421C88.77 18.5421 88.7896 18.5254 88.8091 18.4922V18.4672C88.8286 18.4672 88.8383 18.4589 88.8383 18.4422C88.8383 18.4256 88.848 18.4173 88.8675 18.4173C88.8675 18.4006 88.8772 18.3923 88.8967 18.3923C88.8967 18.3757 88.8967 18.359 88.8967 18.3424V18.3174C88.9162 18.3008 88.926 18.2842 88.926 18.2675L88.9844 18.2176C88.9844 18.201 88.9844 18.1843 88.9844 18.1677C88.9844 18.1511 88.9942 18.1428 89.0137 18.1428V18.1178C89.0331 18.1012 89.0428 18.0845 89.0428 18.0679V18.0429L89.0721 17.993V17.9431C89.0721 17.9265 89.0819 17.9181 89.1013 17.9181C89.1013 17.9015 89.1013 17.8849 89.1013 17.8682V17.8433C89.1208 17.8266 89.1305 17.81 89.1305 17.7934V17.7435C89.1305 17.7268 89.1403 17.7185 89.1598 17.7185C89.1598 17.7018 89.1598 17.6852 89.1598 17.6686V17.6436C89.1598 17.627 89.1598 17.6103 89.1598 17.5937V17.5438C89.1598 17.5271 89.1598 17.5105 89.1598 17.4939V17.419C89.1598 17.4024 89.1598 17.3857 89.1598 17.3691V17.2193C89.1598 17.2027 89.1598 17.1861 89.1598 17.1694V17.1445C89.1598 17.1278 89.1598 17.1112 89.1598 17.0945V17.0446C89.1598 17.028 89.1598 17.0114 89.1598 16.9947V16.9698L89.1305 16.9448C89.1305 16.9282 89.1305 16.9115 89.1305 16.8949V16.87L89.1013 16.82V16.7701L89.0721 16.7452C89.0721 16.7285 89.0721 16.7119 89.0721 16.6952V16.6703C89.0526 16.6537 89.0428 16.637 89.0428 16.6204V16.5954L89.0137 16.5705V16.5455C88.9942 16.5289 88.9844 16.5122 88.9844 16.4956V16.4706C88.9649 16.454 88.9552 16.4374 88.9552 16.4207C88.9357 16.4207 88.926 16.4124 88.926 16.3958L88.8967 16.3708C88.8967 16.3542 88.8967 16.3375 88.8967 16.3209V16.2959L88.8675 16.271C88.848 16.2544 88.8383 16.2377 88.8383 16.2211L88.8091 16.1961V16.1462C88.7896 16.1462 88.77 16.1379 88.7506 16.1213V16.0963L88.7214 16.0713C88.7214 16.0547 88.7116 16.0464 88.6921 16.0464C88.6726 16.0297 88.6629 16.0131 88.6629 15.9965C88.6629 15.9798 88.6532 15.9715 88.6337 15.9715C88.6142 15.9549 88.6044 15.9382 88.6044 15.9216L88.5752 15.8966C88.5752 15.88 88.5655 15.8717 88.546 15.8717C88.5265 15.855 88.5168 15.8384 88.5168 15.8218L88.4875 15.7968C88.468 15.7802 88.4486 15.7719 88.4291 15.7719C88.4291 15.7552 88.4193 15.7386 88.3998 15.7219L88.3707 15.697C88.3512 15.697 88.3316 15.6803 88.3121 15.6471C88.2927 15.6471 88.283 15.6388 88.283 15.6221C88.2635 15.6055 88.244 15.5971 88.2245 15.5971C88.205 15.5805 88.1855 15.5722 88.166 15.5722C88.166 15.5555 88.1465 15.5389 88.1076 15.5223L88.0784 15.4973C88.0589 15.4807 88.0393 15.464 88.0199 15.4474C88.0004 15.4474 87.9809 15.4391 87.9614 15.4224C87.9419 15.4224 87.9127 15.4141 87.8737 15.3975L87.8445 15.3725C87.8056 15.3559 87.7763 15.3393 87.7568 15.3226C87.7374 15.306 87.7179 15.2977 87.6984 15.2977C87.6594 15.281 87.6302 15.2644 87.6107 15.2478C87.5717 15.2478 87.5328 15.2394 87.4938 15.2228C87.4743 15.2228 87.4451 15.2145 87.4061 15.1978C87.3671 15.1812 87.3281 15.1646 87.2892 15.1479C87.2502 15.1479 87.221 15.1479 87.2015 15.1479C87.1821 15.1479 87.1625 15.1396 87.143 15.123H87.1138C87.0749 15.1063 87.0456 15.098 87.0261 15.098C87.0067 15.098 86.9872 15.098 86.9677 15.098C86.9287 15.098 86.8995 15.0897 86.88 15.073C86.841 15.073 86.8021 15.073 86.7631 15.073C86.6852 15.0564 86.6072 15.0481 86.5293 15.0481H86.5V15.073C86.4221 15.073 86.3441 15.073 86.2662 15.073C86.2077 15.073 86.1688 15.073 86.1493 15.073C86.1103 15.0897 86.0811 15.098 86.0616 15.098C86.0421 15.098 86.0227 15.098 86.0032 15.098C85.9642 15.098 85.935 15.1063 85.9155 15.123H85.857C85.857 15.1396 85.8473 15.1479 85.8278 15.1479C85.7888 15.1479 85.7596 15.1479 85.7401 15.1479C85.7012 15.1646 85.6622 15.1812 85.6232 15.1978C85.5842 15.2145 85.5453 15.2228 85.5063 15.2228C85.4673 15.2394 85.4381 15.2478 85.4186 15.2478C85.3796 15.2644 85.3504 15.281 85.3309 15.2977C85.3114 15.2977 85.292 15.306 85.2725 15.3226C85.2335 15.3393 85.2043 15.3559 85.1848 15.3725C85.1653 15.3725 85.1458 15.3809 85.1263 15.3975C85.1068 15.4141 85.0776 15.4224 85.0386 15.4224C85.0386 15.4391 85.0192 15.4474 84.9802 15.4474C84.9607 15.464 84.9509 15.4807 84.9509 15.4973L84.8925 15.5223C84.873 15.5389 84.8535 15.5555 84.8341 15.5722C84.8146 15.5722 84.7951 15.5805 84.7756 15.5971L84.7464 15.6221C84.7269 15.6388 84.7074 15.6471 84.6879 15.6471L84.6587 15.697L84.6295 15.7219C84.61 15.7386 84.5905 15.7552 84.571 15.7719L84.5125 15.8218C84.493 15.8384 84.4833 15.855 84.4833 15.8717C84.4638 15.8717 84.4541 15.88 84.4541 15.8966C84.4346 15.9133 84.4151 15.9216 84.3956 15.9216C84.3956 15.9382 84.3956 15.9549 84.3956 15.9715C84.3761 15.9715 84.3567 15.9798 84.3372 15.9965C84.3372 16.0131 84.3274 16.0297 84.3079 16.0464V16.0713C84.2884 16.0713 84.269 16.0796 84.2495 16.0963Z" fill="white"/>
<path d="M96.1523 19.1703C96.1523 21.117 95.4315 22.7808 93.9896 24.1617C92.5477 25.5427 90.8134 26.2331 88.787 26.2331C86.7605 26.2331 85.0263 25.5427 83.5844 24.1617C82.1425 22.7808 81.4216 21.117 81.4216 19.1703C81.4216 17.2237 82.1425 15.5599 83.5844 14.1789C85.0263 12.798 86.7605 12.1075 88.787 12.1075C90.8134 12.1075 92.5477 12.798 93.9896 14.1789C95.4315 15.5599 96.1523 17.2237 96.1523 19.1703Z" stroke="black" stroke-width="4.5" stroke-linecap="round" stroke-linejoin="round"/>
<path d="M84.2495 157.762V157.789L84.2202 157.817L84.1911 157.873L84.1618 157.9C84.1618 157.919 84.1618 157.937 84.1618 157.956C84.1423 157.956 84.1326 157.965 84.1326 157.984C84.1326 158.002 84.1228 158.011 84.1034 158.011C84.1034 158.03 84.1034 158.048 84.1034 158.067L84.0741 158.095C84.0741 158.113 84.0644 158.122 84.0449 158.122C84.0449 158.141 84.0449 158.159 84.0449 158.178L84.0157 158.206C84.0157 158.224 84.006 158.243 83.9865 158.261V158.317C83.9865 158.335 83.9767 158.344 83.9572 158.344C83.9572 158.363 83.9572 158.381 83.9572 158.4L83.928 158.428C83.928 158.446 83.928 158.465 83.928 158.483V158.511L83.8988 158.539V158.65C83.8988 158.668 83.8988 158.687 83.8988 158.705L83.8695 158.733V158.761C83.8695 158.779 83.8598 158.798 83.8403 158.816V158.872C83.8403 158.89 83.8403 158.909 83.8403 158.927V158.955C83.8403 158.973 83.8403 158.992 83.8403 159.01V159.177C83.8403 159.195 83.8403 159.214 83.8403 159.232V159.315C83.8403 159.334 83.8403 159.352 83.8403 159.371V159.426C83.8403 159.445 83.8403 159.463 83.8403 159.482C83.8598 159.482 83.8695 159.491 83.8695 159.51C83.8695 159.528 83.8695 159.547 83.8695 159.565C83.889 159.565 83.8988 159.574 83.8988 159.593V159.648C83.8988 159.667 83.8988 159.685 83.8988 159.704V159.732C83.9183 159.75 83.928 159.769 83.928 159.787V159.843C83.928 159.861 83.9377 159.87 83.9572 159.87V159.926L83.9865 159.954C83.9865 159.972 83.9865 159.991 83.9865 160.009V160.037C84.006 160.037 84.0157 160.046 84.0157 160.065C84.0351 160.083 84.0449 160.102 84.0449 160.12V160.148L84.0741 160.176C84.0741 160.194 84.0839 160.213 84.1034 160.231V160.259C84.1228 160.277 84.1326 160.296 84.1326 160.314L84.1618 160.342V160.37C84.1618 160.388 84.1716 160.398 84.1911 160.398C84.1911 160.416 84.2008 160.425 84.2202 160.425C84.2202 160.462 84.23 160.481 84.2495 160.481C84.2495 160.499 84.2495 160.518 84.2495 160.536C84.269 160.536 84.2884 160.546 84.3079 160.564V160.592L84.3372 160.62C84.3567 160.638 84.3761 160.657 84.3956 160.675V160.703C84.4151 160.721 84.4346 160.731 84.4541 160.731C84.4541 160.749 84.4638 160.768 84.4833 160.786L84.5125 160.814C84.532 160.832 84.5418 160.851 84.5418 160.869C84.5613 160.869 84.571 160.879 84.571 160.897C84.5905 160.916 84.61 160.925 84.6295 160.925C84.6295 160.943 84.6392 160.953 84.6587 160.953C84.6587 160.971 84.6684 160.99 84.6879 161.008C84.7074 161.027 84.7269 161.036 84.7464 161.036C84.7658 161.054 84.7756 161.073 84.7756 161.091C84.7951 161.091 84.8146 161.101 84.8341 161.119C84.8535 161.138 84.873 161.147 84.8925 161.147C84.8925 161.165 84.912 161.174 84.9509 161.174C84.9509 161.211 84.9607 161.23 84.9802 161.23L85.0386 161.258C85.0776 161.276 85.1068 161.295 85.1263 161.313C85.1458 161.313 85.1653 161.322 85.1848 161.341C85.2043 161.341 85.2335 161.35 85.2725 161.369C85.292 161.387 85.3114 161.406 85.3309 161.424C85.3504 161.443 85.3796 161.452 85.4186 161.452C85.4381 161.47 85.4673 161.48 85.5063 161.48C85.5453 161.498 85.5842 161.517 85.6232 161.535C85.6622 161.535 85.7012 161.544 85.7401 161.563C85.7596 161.563 85.7888 161.572 85.8278 161.591C85.8473 161.591 85.857 161.6 85.857 161.618H85.9155C85.935 161.618 85.9642 161.618 86.0032 161.618C86.0227 161.618 86.0421 161.628 86.0616 161.646C86.0811 161.646 86.1103 161.646 86.1493 161.646C86.1688 161.646 86.2077 161.646 86.2662 161.646C86.3441 161.665 86.4221 161.674 86.5 161.674C86.5975 161.674 86.6852 161.665 86.7631 161.646C86.8021 161.646 86.841 161.646 86.88 161.646C86.8995 161.646 86.9287 161.646 86.9677 161.646C86.9872 161.628 87.0067 161.618 87.0261 161.618C87.0456 161.618 87.0749 161.618 87.1138 161.618H87.143C87.1625 161.6 87.1821 161.591 87.2015 161.591C87.221 161.572 87.2502 161.563 87.2892 161.563C87.3281 161.544 87.3671 161.535 87.4061 161.535C87.4451 161.517 87.4743 161.498 87.4938 161.48C87.5328 161.48 87.5717 161.47 87.6107 161.452C87.6302 161.452 87.6594 161.443 87.6984 161.424C87.7179 161.406 87.7374 161.387 87.7568 161.369C87.7763 161.35 87.8056 161.341 87.8445 161.341C87.8445 161.322 87.8542 161.313 87.8737 161.313C87.9127 161.295 87.9419 161.276 87.9614 161.258C87.9809 161.258 88.0004 161.248 88.0199 161.23C88.0393 161.23 88.0589 161.211 88.0784 161.174C88.0979 161.174 88.1076 161.165 88.1076 161.147C88.1465 161.147 88.166 161.138 88.166 161.119C88.1855 161.101 88.205 161.091 88.2245 161.091C88.244 161.073 88.2635 161.054 88.283 161.036L88.3121 161.008C88.3316 160.99 88.3512 160.971 88.3707 160.953C88.3901 160.953 88.3998 160.943 88.3998 160.925C88.4193 160.925 88.4291 160.916 88.4291 160.897C88.4486 160.879 88.468 160.869 88.4875 160.869C88.4875 160.851 88.4973 160.832 88.5168 160.814C88.5168 160.795 88.5265 160.786 88.546 160.786C88.5655 160.768 88.5752 160.749 88.5752 160.731C88.5947 160.731 88.6044 160.721 88.6044 160.703L88.6337 160.675C88.6532 160.657 88.6629 160.638 88.6629 160.62L88.7214 160.564C88.7214 160.546 88.7311 160.536 88.7506 160.536C88.7506 160.518 88.7506 160.499 88.7506 160.481C88.77 160.481 88.7896 160.462 88.8091 160.425V160.398C88.8286 160.398 88.8383 160.388 88.8383 160.37C88.8383 160.351 88.848 160.342 88.8675 160.342C88.8675 160.324 88.8772 160.314 88.8967 160.314C88.8967 160.296 88.8967 160.277 88.8967 160.259V160.231C88.9162 160.213 88.926 160.194 88.926 160.176L88.9844 160.12C88.9844 160.102 88.9844 160.083 88.9844 160.065C88.9844 160.046 88.9942 160.037 89.0137 160.037V160.009C89.0331 159.991 89.0428 159.972 89.0428 159.954V159.926L89.0721 159.87V159.815C89.0721 159.796 89.0819 159.787 89.1013 159.787C89.1013 159.769 89.1013 159.75 89.1013 159.732V159.704C89.1208 159.685 89.1305 159.667 89.1305 159.648V159.593C89.1305 159.574 89.1403 159.565 89.1598 159.565C89.1598 159.547 89.1598 159.528 89.1598 159.51V159.482C89.1598 159.463 89.1598 159.445 89.1598 159.426V159.371C89.1598 159.352 89.1598 159.334 89.1598 159.315V159.232C89.1598 159.214 89.1598 159.195 89.1598 159.177V159.01C89.1598 158.992 89.1598 158.973 89.1598 158.955V158.927C89.1598 158.909 89.1598 158.89 89.1598 158.872V158.816C89.1598 158.798 89.1598 158.779 89.1598 158.761V158.733L89.1305 158.705C89.1305 158.687 89.1305 158.668 89.1305 158.65V158.622L89.1013 158.566V158.511L89.0721 158.483C89.0721 158.465 89.0721 158.446 89.0721 158.428V158.4C89.0526 158.381 89.0428 158.363 89.0428 158.344V158.317L89.0137 158.289V158.261C88.9942 158.243 88.9844 158.224 88.9844 158.206V158.178C88.9649 158.159 88.9552 158.141 88.9552 158.122C88.9357 158.122 88.926 158.113 88.926 158.095L88.8967 158.067C88.8967 158.048 88.8967 158.03 88.8967 158.011V157.984L88.8675 157.956C88.848 157.937 88.8383 157.919 88.8383 157.9L88.8091 157.873V157.817C88.7896 157.817 88.77 157.808 88.7506 157.789V157.762L88.7214 157.734C88.7214 157.715 88.7116 157.706 88.6921 157.706C88.6726 157.688 88.6629 157.669 88.6629 157.651C88.6629 157.632 88.6532 157.623 88.6337 157.623C88.6142 157.604 88.6044 157.586 88.6044 157.567L88.5752 157.54C88.5752 157.521 88.5655 157.512 88.546 157.512C88.5265 157.493 88.5168 157.475 88.5168 157.456L88.4875 157.429C88.468 157.41 88.4486 157.401 88.4291 157.401C88.4291 157.382 88.4193 157.364 88.3998 157.345L88.3707 157.318C88.3512 157.318 88.3316 157.299 88.3121 157.262C88.2927 157.262 88.283 157.253 88.283 157.234C88.2635 157.216 88.244 157.207 88.2245 157.207C88.205 157.188 88.1855 157.179 88.166 157.179C88.166 157.16 88.1465 157.142 88.1076 157.124L88.0784 157.096C88.0589 157.077 88.0393 157.059 88.0199 157.04C88.0004 157.04 87.9809 157.031 87.9614 157.013C87.9419 157.013 87.9127 157.003 87.8737 156.985L87.8445 156.957C87.8056 156.939 87.7763 156.92 87.7568 156.902C87.7374 156.883 87.7179 156.874 87.6984 156.874C87.6594 156.855 87.6302 156.837 87.6107 156.818C87.5717 156.818 87.5328 156.809 87.4938 156.791C87.4743 156.791 87.4451 156.781 87.4061 156.763C87.3671 156.744 87.3281 156.726 87.2892 156.707C87.2502 156.707 87.221 156.707 87.2015 156.707C87.1821 156.707 87.1625 156.698 87.143 156.68H87.1138C87.0749 156.661 87.0456 156.652 87.0261 156.652C87.0067 156.652 86.9872 156.652 86.9677 156.652C86.9287 156.652 86.8995 156.643 86.88 156.624C86.841 156.624 86.8021 156.624 86.7631 156.624C86.6852 156.606 86.6072 156.596 86.5293 156.596H86.5V156.624C86.4221 156.624 86.3441 156.624 86.2662 156.624C86.2077 156.624 86.1688 156.624 86.1493 156.624C86.1103 156.643 86.0811 156.652 86.0616 156.652C86.0421 156.652 86.0227 156.652 86.0032 156.652C85.9642 156.652 85.935 156.661 85.9155 156.68H85.857C85.857 156.698 85.8473 156.707 85.8278 156.707C85.7888 156.707 85.7596 156.707 85.7401 156.707C85.7012 156.726 85.6622 156.744 85.6232 156.763C85.5842 156.781 85.5453 156.791 85.5063 156.791C85.4673 156.809 85.4381 156.818 85.4186 156.818C85.3796 156.837 85.3504 156.855 85.3309 156.874C85.3114 156.874 85.292 156.883 85.2725 156.902C85.2335 156.92 85.2043 156.939 85.1848 156.957C85.1653 156.957 85.1458 156.966 85.1263 156.985C85.1068 157.003 85.0776 157.013 85.0386 157.013C85.0386 157.031 85.0192 157.04 84.9802 157.04C84.9607 157.059 84.9509 157.077 84.9509 157.096L84.8925 157.124C84.873 157.142 84.8535 157.16 84.8341 157.179C84.8146 157.179 84.7951 157.188 84.7756 157.207L84.7464 157.234C84.7269 157.253 84.7074 157.262 84.6879 157.262L84.6587 157.318L84.6295 157.345C84.61 157.364 84.5905 157.382 84.571 157.401L84.5125 157.456C84.493 157.475 84.4833 157.493 84.4833 157.512C84.4638 157.512 84.4541 157.521 84.4541 157.54C84.4346 157.558 84.4151 157.567 84.3956 157.567C84.3956 157.586 84.3956 157.604 84.3956 157.623C84.3761 157.623 84.3567 157.632 84.3372 157.651C84.3372 157.669 84.3274 157.688 84.3079 157.706V157.734C84.2884 157.734 84.269 157.743 84.2495 157.762Z" fill="white"/>
<path d="M96.1523 161.207C96.1523 163.372 95.4315 165.221 93.9896 166.757C92.5477 168.292 90.8134 169.06 88.787 169.06C86.7605 169.06 85.0263 168.292 83.5844 166.757C82.1425 165.221 81.4216 163.372 81.4216 161.207C81.4216 159.043 82.1425 157.193 83.5844 155.658C85.0263 154.123 86.7605 153.355 88.787 153.355C90.8134 153.355 92.5477 154.123 93.9896 155.658C95.4315 157.193 96.1523 159.043 96.1523 161.207Z" stroke="black" stroke-width="4.5" stroke-linecap="round" stroke-linejoin="round"/>
</svg>
