<svg width="168" height="219" viewBox="0 0 168 219" fill="none" xmlns="http://www.w3.org/2000/svg">
<path d="M94.2301 174.853C93.9431 174.853 92.5226 175.212 89.9686 175.931C88.6915 176.298 87.4504 176.658 86.2451 177.009V210.267H94.9188L94.2301 174.853Z" fill="black"/>
<path d="M94.2459 174.874L94.9346 210.288H86.261V177.03C87.4663 176.679 88.7074 176.32 89.9844 175.952C92.5384 175.234 93.9589 174.874 94.2459 174.874Z" stroke="black" stroke-width="1.13215" stroke-linecap="round" stroke-linejoin="round"/>
<path d="M107.726 212.443C107.614 210.739 106.655 209.419 104.847 208.483C102.928 207.447 100.297 207.021 96.9544 207.205C92.7481 207.439 89.6933 208.233 87.79 209.586C86.3346 210.622 85.7668 211.716 86.0867 212.869C86.4226 214.089 87.774 215.142 90.1411 216.027C92.3642 216.863 94.8592 217.347 97.6261 217.481C100.553 217.614 102.936 217.297 104.775 216.528C106.87 215.643 107.854 214.281 107.726 212.443Z" fill="black"/>
<path d="M86.0801 212.861C85.7602 211.709 86.328 210.614 87.7834 209.578C89.6866 208.225 92.7414 207.431 96.9476 207.197C100.29 207.014 102.921 207.44 104.84 208.476C106.648 209.411 107.607 210.731 107.719 212.435C107.847 214.273 106.864 215.635 104.768 216.521C102.929 217.289 100.546 217.607 97.6194 217.473C94.8525 217.339 92.3575 216.855 90.1344 216.019C87.7674 215.134 86.416 214.081 86.0801 212.861Z" stroke="black" stroke-width="1.13214" stroke-linecap="round" stroke-linejoin="round"/>
<path d="M89.5658 174.68C87.7079 174.875 85.8806 175.071 84.084 175.266V193.951H96.8544L95.8438 174.064C95.4151 174.064 93.3224 174.269 89.5658 174.68Z" fill="black"/>
<path d="M95.8438 174.064L96.8544 193.951H84.084V175.266C85.8806 175.071 87.7079 174.875 89.5658 174.68C93.3224 174.269 95.4151 174.064 95.8438 174.064Z" stroke="black" stroke-width="1.13215" stroke-linecap="round" stroke-linejoin="round"/>
<path d="M77.9772 175.931C75.4247 175.212 74.0021 174.853 73.7095 174.853L73.0266 210.267H81.7084V177.009C80.4891 176.658 79.2453 176.298 77.9772 175.931Z" fill="black"/>
<path d="M73.7206 174.872L73.0378 210.285H81.7196V177.028C80.5002 176.677 79.2565 176.318 77.9884 175.95C75.4359 175.232 74.0133 174.872 73.7206 174.872Z" stroke="black" stroke-width="1.13214" stroke-linecap="round" stroke-linejoin="round"/>
<path d="M80.0162 209.519C78.113 208.152 75.0582 207.354 70.8519 207.124C67.5092 206.951 64.8782 207.375 62.959 208.397C61.1517 209.332 60.1921 210.655 60.0801 212.367C59.9522 214.208 60.9358 215.568 63.031 216.445C64.8702 217.222 67.2533 217.539 70.1801 217.395C72.947 217.265 75.442 216.783 77.6651 215.949C80.0322 215.057 81.3837 214.007 81.7195 212.799C82.0394 211.648 81.4716 210.554 80.0162 209.519Z" fill="black"/>
<path d="M81.7151 212.814C82.035 211.664 81.4672 210.57 80.0118 209.535C78.1086 208.168 75.0538 207.37 70.8476 207.139C67.5049 206.967 64.874 207.391 62.9548 208.413C61.1475 209.348 60.1879 210.671 60.076 212.383C59.948 214.224 60.9316 215.584 63.0268 216.461C64.866 217.238 67.249 217.554 70.1758 217.411C72.9427 217.281 75.4377 216.799 77.6608 215.965C80.0278 215.073 81.3793 214.023 81.7151 212.814Z" stroke="black" stroke-width="1.13214" stroke-linecap="round" stroke-linejoin="round"/>
<path d="M78.5932 174.668C74.8436 174.265 72.7538 174.064 72.3239 174.064L71.3208 193.939H84.0744V175.273C82.2831 175.076 80.4561 174.875 78.5932 174.668Z" fill="black"/>
<path d="M72.3439 174.079L71.3408 193.954H84.0943V175.289C82.3031 175.092 80.4761 174.89 78.6132 174.684C74.8636 174.281 72.7738 174.079 72.3439 174.079Z" stroke="black" stroke-width="1.13215" stroke-linecap="round" stroke-linejoin="round"/>
<path d="M102.558 139.601C102.151 138.224 100.763 138.538 98.3947 140.542L94.9851 143.943L100.853 175.406L100.369 176.105C99.9858 176.712 99.6747 177.37 99.4355 178.079C98.6698 180.306 98.7237 182.584 99.597 184.912C100.219 186.593 101.266 187.838 102.737 188.648C104.089 189.377 105.549 189.609 107.116 189.346C108.695 189.083 110.005 188.364 111.046 187.19C112.194 185.894 112.793 184.264 112.84 182.3C112.912 179.324 112.135 177.016 110.508 175.376C109.993 174.85 109.425 174.435 108.803 174.131C108.492 173.969 108.235 173.858 108.031 173.797C107.553 161.528 105.728 150.129 102.558 139.601Z" fill="black"/>
<path d="M94.9988 143.922L98.4083 140.52C100.777 138.516 102.165 138.202 102.572 139.579C105.742 150.107 107.566 161.506 108.045 173.775C108.248 173.836 108.505 173.947 108.816 174.109C109.439 174.413 110.007 174.828 110.521 175.354C112.148 176.994 112.926 179.302 112.854 182.278C112.806 184.242 112.208 185.872 111.06 187.168C110.019 188.342 108.709 189.061 107.13 189.324C105.562 189.587 104.103 189.354 102.751 188.626C101.28 187.816 100.233 186.571 99.6107 184.89C98.7373 182.562 98.6835 180.284 99.4492 178.057C99.6884 177.348 99.9995 176.69 100.382 176.083L100.867 175.384L94.9988 143.922Z" stroke="black" stroke-width="1.13215" stroke-linecap="round" stroke-linejoin="round"/>
<path d="M70.9148 141.278C68.8936 139.927 66.8928 140.342 64.9124 142.522C62.2582 152.332 60.7168 162.759 60.288 173.802C60.0839 173.849 59.8287 173.956 59.5224 174.121C58.8895 174.43 58.3178 174.844 57.8074 175.366C56.1741 177.001 55.3983 179.311 55.48 182.297C55.5208 184.264 56.1129 185.887 57.2562 187.167C58.2974 188.351 59.6143 189.074 61.2068 189.335C62.7789 189.595 64.2386 189.359 65.5861 188.624C67.0561 187.818 68.0973 186.574 68.7098 184.892C69.5877 182.569 69.649 180.295 68.8936 178.067C68.6486 177.356 68.3321 176.704 67.9442 176.112L67.4542 175.401L73.3341 143.944C72.7216 142.83 71.9152 141.941 70.9148 141.278Z" fill="black"/>
<path d="M73.3341 143.944C72.7216 142.83 71.9152 141.941 70.9148 141.278C68.8936 139.927 66.8928 140.342 64.9124 142.522C62.2582 152.332 60.7168 162.759 60.288 173.802C60.0839 173.849 59.8287 173.956 59.5224 174.121C58.8895 174.43 58.3178 174.844 57.8074 175.366C56.1741 177.001 55.3983 179.311 55.48 182.297C55.5208 184.264 56.1129 185.887 57.2562 187.167C58.2974 188.351 59.6143 189.074 61.2068 189.335C62.7789 189.595 64.2386 189.359 65.5861 188.624C67.0561 187.818 68.0973 186.574 68.7098 184.892C69.5877 182.569 69.649 180.295 68.8936 178.067C68.6486 177.356 68.3321 176.704 67.9442 176.112L67.4542 175.401L73.3341 143.944Z" stroke="black" stroke-width="1.24628" stroke-linecap="round" stroke-linejoin="round"/>
<path d="M96.029 142.815L95.6615 141.615H72.3255L71.9274 142.815C71.0495 145.679 70.2941 148.497 69.6612 151.268C67.5991 160.139 67.0785 166.937 68.0993 171.661C68.426 173.204 69.6305 174.488 71.713 175.51C74.5509 176.905 78.8179 177.603 84.5141 177.603C90.1286 177.603 94.2221 176.905 96.7946 175.51C98.4891 174.562 99.51 173.279 99.857 171.661C100.898 166.937 100.388 160.139 98.3258 151.268C97.6725 148.497 96.9069 145.679 96.029 142.815Z" fill="black"/>
<path d="M71.9274 142.815C71.0495 145.679 70.2941 148.497 69.6612 151.268C67.5991 160.139 67.0785 166.937 68.0993 171.661C68.426 173.204 69.6305 174.488 71.713 175.51C74.5509 176.905 78.8179 177.603 84.5141 177.603C90.1286 177.603 94.2221 176.905 96.7946 175.51C98.4891 174.562 99.51 173.279 99.857 171.661C100.898 166.937 100.388 160.139 98.3258 151.268C97.6725 148.497 96.9069 145.679 96.029 142.815L95.6615 141.615H72.3255L71.9274 142.815Z" stroke="black" stroke-width="1.1041" stroke-linecap="round" stroke-linejoin="round"/>
<path d="M21.9764 84.6188C18.186 83.9629 14.4704 84.3273 10.8298 85.7119C3.54846 88.4993 0.312322 95.0123 1.12135 105.251C1.90042 115.435 6.51491 121.292 14.9648 122.823C19.1898 123.588 23.3398 123.333 27.4149 122.057L21.9764 84.6188Z" fill="black"/>
<path d="M21.9793 84.6205C18.1888 83.9646 14.4733 84.329 10.8326 85.7136C3.55138 88.5009 0.315256 95.0139 1.12428 105.252C1.90335 115.436 6.51783 121.293 14.9677 122.824C19.1926 123.589 23.3426 123.334 27.4177 122.059L21.9793 84.6205Z" stroke="black" stroke-width="1.13215" stroke-linecap="round" stroke-linejoin="round"/>
<path d="M6.87695 102.139C9.00438 104.215 11.2442 106.566 13.5963 109.189" stroke="black" stroke-width="1.13215" stroke-linecap="round" stroke-linejoin="round"/>
<path d="M157.167 85.7141C153.527 84.3295 149.811 83.9651 146.021 84.621L140.582 122.06C144.657 123.335 148.807 123.59 153.032 122.825C161.482 121.294 166.097 115.437 166.876 105.253C167.685 95.0145 164.449 88.5015 157.167 85.7141Z" fill="black"/>
<path d="M146.023 84.6227C149.813 83.9669 153.529 84.3313 157.17 85.7158C164.451 88.5032 167.687 95.0162 166.878 105.255C166.099 115.439 161.484 121.296 153.035 122.826C148.81 123.591 144.66 123.336 140.584 122.061L146.023 84.6227Z" stroke="black" stroke-width="1.13215" stroke-linecap="round" stroke-linejoin="round"/>
<path d="M160.333 102.139C158.206 104.215 155.966 106.566 153.614 109.189" stroke="black" stroke-width="1.13215" stroke-linecap="round" stroke-linejoin="round"/>
<path d="M74.4617 143.345C74.8419 144.697 75.3457 145.938 75.973 147.067C77.9501 150.659 80.7256 152.455 84.2995 152.455C87.8734 152.455 90.4873 150.659 92.1412 147.067C92.6735 145.938 93.0727 144.697 93.3388 143.345L93.5669 141.651H74.0625L74.4617 143.345Z" fill="black"/>
<path d="M84.3076 152.461C87.8815 152.461 90.4954 150.665 92.1492 147.073C92.6815 145.943 93.0807 144.703 93.3469 143.351L93.575 141.657H74.0708L74.47 143.351C74.8502 144.703 75.354 145.943 75.9813 147.073C77.9583 150.665 80.7338 152.461 84.3076 152.461Z" stroke="black" stroke-width="0.808672" stroke-linecap="round" stroke-linejoin="round"/>
<path d="M138.526 49.8134C134.082 46.2616 127.373 43.8399 118.398 42.5483C110.847 41.472 99.2798 40.9272 83.6974 40.9137C68.0569 40.9272 56.4899 41.4653 48.9964 42.5282C40.0071 43.7928 33.2978 46.1876 28.8686 49.7125C24.3667 53.2913 21.2589 58.767 19.5453 66.1397C18.0349 72.6648 17.2798 82.4391 17.2798 95.4624C17.2798 99.7946 17.926 104.154 19.2185 108.54C21.0048 114.648 23.8947 120.063 27.8883 124.785C38.9688 137.903 57.2668 144.461 82.7825 144.461C108.342 144.461 126.945 137.903 138.592 124.785C142.803 120.036 145.904 114.621 147.893 108.54C149.374 104.019 150.115 99.66 150.115 95.4624C150.115 82.5063 149.36 72.7725 147.85 66.2608C146.136 58.8881 143.028 53.4056 138.526 49.8134Z" fill="black"/>
<path d="M83.7069 40.9386C68.0664 40.9453 56.4994 41.4801 49.0059 42.543C40.0166 43.8076 33.3074 46.2024 28.8781 49.7273C24.3762 53.306 21.2684 58.7817 19.5548 66.1544C18.0445 72.6795 17.2893 82.4537 17.2893 95.477C17.2893 99.8091 17.9355 104.168 19.228 108.554C21.0143 114.662 23.9042 120.077 27.8978 124.8C38.9783 137.917 57.2764 144.476 82.792 144.476C108.351 144.476 126.954 137.917 138.601 124.8C142.812 120.05 145.913 114.635 147.903 108.554C149.384 104.034 150.124 99.6745 150.124 95.477C150.124 82.5209 149.369 72.7871 147.859 66.2755C146.145 58.9028 143.038 53.4204 138.536 49.8282C134.092 46.2764 127.383 43.8547 118.408 42.5632C110.856 41.4868 99.2893 40.9453 83.7069 40.9386Z" stroke="black" stroke-width="1.13215" stroke-linecap="round" stroke-linejoin="round"/>
<path d="M87.4179 110.122C86.6233 108.431 85.406 107.703 83.7658 107.939C82.1904 108.162 80.9194 109.13 79.9526 110.844" stroke="black" stroke-width="0.808672" stroke-linecap="round" stroke-linejoin="round"/>
<path d="M74.7148 120.021C76.9818 123.053 80.0764 124.512 83.9988 124.398C87.772 124.285 90.7027 122.826 92.7906 120.021" stroke="black" stroke-width="0.808675" stroke-linecap="round" stroke-linejoin="round"/>
<path d="M101.789 80.4865C104.274 80.8674 106.699 80.9254 109.063 80.6605C111.991 80.3526 113.663 79.7085 114.079 78.728C114.483 77.735 113.52 76.7132 111.19 75.6626C109.248 74.7813 106.998 74.186 104.44 73.8767C102.14 73.5907 100.223 73.6308 98.6897 73.9972C97.0784 74.3956 96.0718 75.131 95.67 76.2034C95.2711 77.2766 95.6413 78.1896 96.7804 78.9425C97.8835 79.6417 99.553 80.1564 101.789 80.4865Z" fill="black"/>
<path d="M114 78.6314C114.412 77.6963 113.462 76.7339 111.15 75.744C109.223 74.9137 106.991 74.3528 104.454 74.0614C102.173 73.7919 100.266 73.8295 98.7341 74.1742C97.1466 74.55 96.1523 75.2463 95.7513 76.263C95.358 77.2677 95.7263 78.1247 96.8563 78.834C97.9505 79.4929 99.6012 79.9775 101.808 80.2881C104.284 80.6474 106.695 80.7023 109.04 80.4527C111.945 80.1627 113.598 79.5556 114 78.6314Z" stroke="black" stroke-width="0.495496" stroke-linecap="round" stroke-linejoin="round"/>
<path d="M67.6306 79.4301C68.8591 78.6936 69.3086 77.8098 68.979 76.7787C68.6644 75.725 67.7055 75.0169 66.1024 74.6543C64.5293 74.3144 62.5592 74.2974 60.192 74.6033C57.5701 74.9319 55.2254 75.5381 53.1579 76.4218C50.6859 77.4869 49.6371 78.4897 50.0117 79.4301C50.3113 80.3818 51.9518 80.988 54.9333 81.2486C57.3454 81.4979 59.8399 81.4186 62.4168 81.0107C64.7091 80.6595 66.447 80.1326 67.6306 79.4301Z" fill="black"/>
<path d="M50.0324 79.4366C49.6579 78.4962 50.7066 77.4934 53.1787 76.4284C55.2462 75.5446 57.5909 74.9384 60.2127 74.6098C62.5799 74.3039 64.55 74.3209 66.1231 74.6608C67.7262 75.0234 68.6851 75.7315 68.9997 76.7853C69.3293 77.8163 68.8799 78.7001 67.6513 79.4366C66.4677 80.1391 64.7298 80.666 62.4376 81.0172C59.8607 81.4251 57.3661 81.5044 54.954 81.2551C51.9726 80.9945 50.3321 80.3884 50.0324 79.4366Z" stroke="black" stroke-width="0.485206" stroke-linecap="round" stroke-linejoin="round"/>
<path d="M107.137 97.6159C107.042 94.885 106.47 92.5658 105.421 90.6582C104.228 88.5756 102.679 87.5555 100.771 87.598C98.9117 87.6394 97.362 88.7284 96.1222 90.8652C95.0732 92.8194 94.501 95.1641 94.4056 97.8992C94.3579 100.663 94.8347 102.984 95.8361 104.863C97.0282 106.946 98.6733 107.964 100.771 107.917C102.917 107.869 104.562 106.778 105.707 104.643C106.708 102.72 107.185 100.377 107.137 97.6159Z" fill="black"/>
<path d="M100.744 87.6489C98.8841 87.6915 97.3344 88.7722 96.0946 90.8909C95.0456 92.8286 94.4734 95.1528 94.378 97.8636C94.3303 100.603 94.8071 102.903 95.8085 104.764C97.0006 106.827 98.6457 107.835 100.744 107.787C102.89 107.738 104.535 106.655 105.679 104.538C106.681 102.631 107.157 100.309 107.11 97.5722C107.014 94.8657 106.442 92.5677 105.393 90.678C104.201 88.615 102.651 87.6053 100.744 87.6489Z" stroke="black" stroke-width="0.485431" stroke-linecap="round" stroke-linejoin="round"/>
<path d="M73.8469 97.6166C73.7515 94.8857 73.1793 92.5665 72.1302 90.659C70.9381 88.5763 69.3884 87.5563 67.4811 87.5987C65.6214 87.6401 64.0717 88.7292 62.8319 90.8659C61.7829 92.8202 61.2107 95.1649 61.1153 97.9C61.0676 100.664 61.5445 102.985 62.5458 104.864C63.7379 106.947 65.383 107.964 67.4811 107.918C69.6268 107.87 71.2719 106.779 72.4163 104.644C73.4177 102.721 73.8945 100.378 73.8469 97.6166Z" fill="black"/>
<path d="M67.4258 87.6511C65.5661 87.6937 64.0163 88.7744 62.7765 90.8931C61.7275 92.8308 61.1553 95.155 61.0599 97.8658C61.0122 100.605 61.4891 102.905 62.4904 104.766C63.6826 106.829 65.3277 107.837 67.4258 107.789C69.5716 107.74 71.2167 106.657 72.3611 104.54C73.3625 102.633 73.8393 100.311 73.7916 97.5743C73.6963 94.8679 73.1241 92.5699 72.075 90.6802C70.8829 88.6172 69.3332 87.6075 67.4258 87.6511Z" stroke="black" stroke-width="0.485431" stroke-linecap="round" stroke-linejoin="round"/>
<path d="M158.014 67.3807C158.708 64.6038 159.116 61.1426 159.239 56.9968C159.443 48.7053 158.034 41.1081 155.013 34.205C150.786 24.5055 143.61 16.8985 133.484 11.3839C120.846 4.46129 103.941 1 82.7692 1C61.5973 1 44.6517 4.46129 31.9323 11.3839C21.7445 16.8985 14.4763 24.5055 10.1276 34.205C7.02428 41.1081 5.53389 48.7053 5.65639 56.9968C5.71764 61.1426 6.08513 64.6038 6.75887 67.3807C9.88258 67.5763 25.103 67.7718 52.4202 67.9674C58.5451 58.3266 61.6586 53.3302 61.7607 52.9782C61.7811 53.1933 62.2507 55.7648 63.1694 60.6928C63.639 63.1568 64.0984 65.6012 64.5475 68.0261C121.571 67.9283 152.726 67.7131 158.014 67.3807Z" fill="black"/>
<path d="M6.75887 67.3807C6.08513 64.6038 5.71764 61.1426 5.65639 56.9968C5.53389 48.7053 7.02428 41.1081 10.1276 34.205C14.4763 24.5055 21.7445 16.8985 31.9323 11.3839C44.6517 4.46129 61.5973 1 82.7692 1C103.941 1 120.846 4.46129 133.484 11.3839C143.61 16.8985 150.786 24.5055 155.013 34.205C158.034 41.1081 159.443 48.7053 159.239 56.9968C159.116 61.1426 158.708 64.6038 158.014 67.3807C152.726 67.7131 121.571 67.9283 64.5475 68.0261C64.0984 65.6012 63.639 63.1568 63.1694 60.6928C62.2507 55.7648 61.7811 53.1933 61.7607 52.9782C61.6586 53.3302 58.5451 58.3266 52.4202 67.9674C25.103 67.7718 9.88258 67.5763 6.75887 67.3807Z" stroke="black" stroke-width="0.808682" stroke-linecap="round" stroke-linejoin="round"/>
<path d="M31.0429 81.2543C35.4529 76.1113 38.3724 69.3353 39.8016 60.9265C40.6795 55.7443 40.9551 50.1906 40.6285 44.2654C35.5039 43.6005 30.9919 44.1578 27.0924 45.9373C23.2132 47.6973 20.1916 50.5622 18.0275 54.5319C13.3317 63.0776 13.1173 75.0259 17.3843 90.3769C22.8764 88.5192 27.4292 85.4783 31.0429 81.2543Z" fill="black"/>
<path d="M40.6285 44.2654C35.5039 43.6005 30.9919 44.1578 27.0923 45.9373C23.2132 47.6973 20.1916 50.5622 18.0275 54.5319C13.3317 63.0776 13.1173 75.0259 17.3843 90.3769C22.8764 88.5192 27.4292 85.4783 31.0429 81.2543C35.4529 76.1113 38.3724 69.3353 39.8016 60.9265C40.6795 55.7443 40.9551 50.1906 40.6285 44.2654Z" stroke="black" stroke-width="1.13215" stroke-linecap="round" stroke-linejoin="round"/>
<path d="M149.377 90.3759C154.053 77.2347 154.41 66.4792 150.449 58.1095C146.325 49.4464 138.22 44.8314 126.133 44.2643C125.806 50.1896 126.082 55.7433 126.96 60.9255C128.389 69.3343 131.309 76.1102 135.719 81.2533C139.312 85.4773 143.865 88.5181 149.377 90.3759Z" fill="black"/>
<path d="M126.133 44.2643C138.22 44.8314 146.325 49.4464 150.449 58.1095C154.41 66.4792 154.053 77.2347 149.377 90.3759C143.865 88.5181 139.312 85.4773 135.719 81.2533C131.309 76.1102 128.389 69.3343 126.96 60.9255C126.082 55.7433 125.806 50.1896 126.133 44.2643Z" stroke="black" stroke-width="1.13215" stroke-linecap="round" stroke-linejoin="round"/>
<path d="M141.838 104.82L127.66 114.392L137.123 123.01" stroke="black" stroke-width="1.13214" stroke-linecap="round" stroke-linejoin="round"/>
<path d="M24.6343 104.82L38.9703 114.392L29.4018 123.01" stroke="black" stroke-width="1.13214" stroke-linecap="round" stroke-linejoin="round"/>
<path d="M123.261 107.25L113.898 114.172L120.147 120.404" stroke="black" stroke-width="1.13214" stroke-linecap="round" stroke-linejoin="round"/>
<path d="M42.8342 107.25L52.3021 114.172L45.9828 120.404" stroke="black" stroke-width="1.13214" stroke-linecap="round" stroke-linejoin="round"/>
</svg>
