<svg width="204" height="233" viewBox="0 0 204 233" fill="none" xmlns="http://www.w3.org/2000/svg">
<path d="M71.472 11.8448C67.2529 11.7607 63.6557 13.2904 60.6805 16.4337C58.5121 18.7029 57.1338 21.3588 56.5455 24.4012C56.2765 24.3676 55.9908 24.3508 55.6882 24.3508C53.7384 24.3004 52.0826 24.998 50.7211 26.4436C49.9478 27.2672 49.3932 28.1917 49.057 29.2171C47.2752 28.6119 45.3926 28.2926 43.4091 28.2589C38.0806 28.1413 33.5421 30.0659 29.7936 34.0329C26.4486 37.546 24.5912 41.7567 24.2214 46.665C23.5491 47.1693 22.9103 47.7492 22.3052 48.4048C19.3299 51.5313 17.8423 55.3554 17.8423 59.877C17.8423 60.1124 17.8508 60.3393 17.8676 60.5578C14.2368 60.7931 11.1019 62.2975 8.46282 65.0711C5.4876 68.2312 4 72.0721 4 76.5938C4 80.4767 5.10096 83.8889 7.30297 86.8305C5.10096 89.7217 4 93.1088 4 96.9917C4 101.513 5.4876 105.396 8.46282 108.64C10.1774 110.523 12.1104 111.885 14.262 112.725C14.1611 113.481 14.1107 114.255 14.1107 115.045C14.1107 119.566 15.5983 123.458 18.5735 126.719C20.4393 128.769 22.5489 130.19 24.9022 130.98C24.3979 132.846 24.1458 134.821 24.1458 136.905C24.1458 142.637 26.0284 147.562 29.7936 151.68C33.5421 155.782 38.0806 157.891 43.4091 158.009C46.586 158.076 49.494 157.421 52.1331 156.042C52.5197 156.614 52.9483 157.16 53.419 157.681C55.7891 160.27 58.655 161.598 62.0168 161.665C63.6809 161.699 65.2358 161.421 66.6814 160.833C66.6814 160.867 66.6814 160.9 66.6814 160.934C66.6814 163.018 67.3622 164.808 68.7237 166.304C70.0853 167.8 71.741 168.565 73.6908 168.599C75.6239 168.649 77.2796 167.952 78.6579 166.506C80.0195 165.06 80.7003 163.296 80.7003 161.211C80.7003 160.858 80.6835 160.514 80.6498 160.177C80.7003 160.177 80.7507 160.177 80.8011 160.177C81.5743 161.539 82.5156 162.816 83.625 164.01C87.3903 168.128 91.9372 170.238 97.2657 170.339C102.342 170.456 106.704 168.725 110.352 165.145C112.604 166.153 115.033 166.683 117.638 166.733C122.984 166.834 127.531 164.909 131.279 160.959C131.296 160.959 131.313 160.951 131.33 160.934C132.691 162.396 134.33 163.144 136.246 163.178C138.179 163.211 139.835 162.514 141.213 161.085C141.902 160.345 142.424 159.53 142.777 158.639C144.962 159.614 147.34 160.127 149.912 160.177C155.241 160.295 159.787 158.37 163.553 154.403C166.595 151.21 168.411 147.419 168.999 143.032C172.596 142.763 175.706 141.242 178.328 138.468C181.303 135.342 182.791 131.518 182.791 126.996C182.791 124.088 182.177 121.441 180.95 119.054C182.06 119.339 183.228 119.491 184.455 119.508C188.674 119.592 192.271 118.07 195.246 114.944C198.222 111.801 199.709 107.968 199.709 103.446C199.709 98.9247 198.222 95.0418 195.246 91.7976C193.162 89.4948 190.767 87.982 188.06 87.2592C189.069 85.427 189.573 83.3594 189.573 81.0566C189.573 77.5771 188.422 74.5766 186.119 72.0553C185.363 71.2484 184.556 70.5592 183.699 69.9877C185.648 66.794 186.623 63.1296 186.623 58.9945C186.623 53.2794 184.741 48.3627 180.975 44.2445C177.21 40.143 172.663 38.0335 167.335 37.9158C166.242 37.899 165.183 37.9662 164.158 38.1175C163.99 37.7477 163.889 37.151 163.855 36.3274C163.805 35.2348 163.738 34.4615 163.654 34.0077C163.284 31.8729 162.023 29.9735 159.871 28.3094C156.611 25.7712 153.173 24.6618 149.559 24.9812C148.416 25.082 147.281 25.3258 146.155 25.7124C145.197 26.0822 144.659 26.2755 144.542 26.2923C144.995 24.9307 145.222 23.4767 145.222 21.9303C145.222 18.4508 144.071 15.4504 141.768 12.929C139.482 10.4412 136.717 9.16372 133.473 9.09648C130.229 9.02925 127.455 10.1975 125.152 12.6012C124.85 12.9374 124.564 13.2736 124.295 13.6098C123.555 11.9625 122.547 10.4328 121.269 9.02085C118.277 5.75987 114.68 4.08735 110.478 4.0033C106.259 3.91925 102.661 5.44049 99.6862 8.567C98.9634 9.34022 98.3247 10.1471 97.77 10.9875C95.3326 9.18893 92.5507 8.25603 89.4242 8.1888C85.2051 8.10475 81.608 9.62597 78.6328 12.7525C78.4142 12.9878 78.1957 13.2399 77.9772 13.5089C76.0105 12.4499 73.8421 11.8952 71.472 11.8448Z" fill="black"/>
<path d="M62.0168 161.665C58.655 161.598 55.7891 160.27 53.419 157.681C52.9483 157.16 52.5197 156.614 52.1331 156.042C49.494 157.421 46.586 158.076 43.4091 158.009C38.0806 157.891 33.5421 155.782 29.7936 151.68C26.0284 147.562 24.1458 142.637 24.1458 136.905C24.1458 134.821 24.3979 132.846 24.9022 130.98C22.5489 130.19 20.4393 128.769 18.5735 126.719C15.5983 123.458 14.1107 119.566 14.1107 115.045C14.1107 114.255 14.1611 113.481 14.262 112.725C12.1104 111.885 10.1774 110.523 8.46282 108.64C5.4876 105.396 4 101.513 4 96.9917C4 93.1088 5.10096 89.7217 7.30297 86.8305C5.10096 83.8889 4 80.4767 4 76.5937C4 72.0721 5.4876 68.2312 8.46282 65.0711C11.1019 62.2975 14.2368 60.7931 17.8676 60.5578C17.8508 60.3393 17.8423 60.1124 17.8423 59.877C17.8423 55.3554 19.3299 51.5313 22.3052 48.4048C22.9103 47.7492 23.5491 47.1693 24.2214 46.665C24.5912 41.7567 26.4486 37.546 29.7936 34.0329C33.5421 30.0659 38.0806 28.1413 43.4091 28.2589C45.3926 28.2926 47.2752 28.6119 49.057 29.2171C49.3932 28.1917 49.9478 27.2672 50.7211 26.4436C52.0826 24.998 53.7384 24.3004 55.6882 24.3508C55.9908 24.3508 56.2765 24.3676 56.5455 24.4012C57.1338 21.3588 58.5121 18.7029 60.6805 16.4337C63.6557 13.2904 67.2529 11.7607 71.472 11.8448C73.8421 11.8952 76.0105 12.4499 77.9772 13.5089C78.1957 13.2399 78.4142 12.9878 78.6327 12.7525C81.608 9.62597 85.2051 8.10475 89.4242 8.18879C92.5507 8.25603 95.3326 9.18893 97.77 10.9875C98.3247 10.1471 98.9634 9.34022 99.6862 8.567C102.661 5.44049 106.259 3.91925 110.478 4.0033C114.68 4.08735 118.277 5.75987 121.269 9.02085C122.547 10.4328 123.555 11.9625 124.295 13.6098C124.564 13.2736 124.85 12.9374 125.152 12.6012C127.455 10.1975 130.229 9.02925 133.473 9.09648C136.717 9.16372 139.482 10.4412 141.768 12.929C144.071 15.4504 145.222 18.4508 145.222 21.9303C145.222 23.4767 144.995 24.9307 144.542 26.2923C144.659 26.2755 145.197 26.0822 146.155 25.7124C147.281 25.3258 148.416 25.082 149.559 24.9812C153.173 24.6618 156.611 25.7712 159.871 28.3094C162.023 29.9735 163.284 31.8729 163.654 34.0077C163.738 34.4615 163.805 35.2348 163.855 36.3274C163.889 37.151 163.99 37.7477 164.158 38.1175C165.183 37.9662 166.242 37.899 167.335 37.9158C172.663 38.0335 177.21 40.143 180.975 44.2445C184.741 48.3627 186.623 53.2794 186.623 58.9945C186.623 63.1296 185.648 66.794 183.698 69.9877C184.556 70.5592 185.363 71.2484 186.119 72.0553C188.422 74.5766 189.573 77.5771 189.573 81.0566C189.573 83.3594 189.069 85.427 188.06 87.2592C190.767 87.982 193.162 89.4948 195.246 91.7976C198.222 95.0418 199.709 98.9247 199.709 103.446C199.709 107.968 198.222 111.801 195.246 114.944C192.271 118.07 188.674 119.592 184.455 119.508C183.228 119.491 182.06 119.339 180.95 119.054C182.177 121.441 182.791 124.088 182.791 126.996C182.791 131.518 181.303 135.342 178.328 138.468C175.706 141.242 172.596 142.763 168.999 143.032C168.411 147.419 166.595 151.21 163.553 154.403C159.787 158.37 155.241 160.295 149.912 160.177C147.34 160.127 144.962 159.614 142.777 158.639C142.424 159.53 141.902 160.345 141.213 161.085C139.835 162.514 138.179 163.211 136.246 163.178C134.33 163.144 132.691 162.396 131.33 160.934C131.313 160.951 131.296 160.959 131.279 160.959C127.531 164.909 122.984 166.834 117.638 166.733C115.033 166.683 112.604 166.153 110.352 165.145C106.704 168.725 102.342 170.456 97.2657 170.339C91.9372 170.238 87.3903 168.128 83.625 164.01C82.5156 162.816 81.5743 161.539 80.8011 160.177C80.7507 160.177 80.7003 160.177 80.6498 160.177C80.6835 160.514 80.7003 160.858 80.7003 161.211C80.7003 163.295 80.0195 165.06 78.6579 166.506C77.2796 167.952 75.6239 168.649 73.6908 168.599C71.741 168.565 70.0853 167.8 68.7237 166.304C67.3622 164.808 66.6814 163.018 66.6814 160.934C66.6814 160.9 66.6814 160.867 66.6814 160.833C65.2358 161.421 63.6809 161.699 62.0168 161.665Z" stroke="black" stroke-width="7" stroke-linecap="round" stroke-linejoin="round"/>
<path d="M115.871 145.55C114.275 144.111 112.664 143.835 111.036 144.723C110.233 145.172 109.588 145.764 109.099 146.499L114.959 177.179L114.389 177.684C113.934 178.113 113.548 178.572 113.234 179.062C112.235 180.623 112.083 182.175 112.778 183.716C113.277 184.838 114.275 185.701 115.773 186.303C117.173 186.864 118.703 187.104 120.363 187.023C122.067 186.941 123.477 186.543 124.595 185.828C125.843 185.043 126.489 183.996 126.532 182.69C126.597 180.71 125.648 179.021 123.684 177.623C122.707 176.918 121.725 176.413 120.737 176.107C120.542 171.871 119.891 166.345 118.784 159.527C117.71 152.852 116.739 148.193 115.871 145.55Z" fill="black"/>
<path d="M109.105 146.512C109.594 145.777 110.239 145.185 111.042 144.736C112.67 143.848 114.281 144.124 115.876 145.563C116.745 148.206 117.716 152.865 118.79 159.54C119.897 166.358 120.548 171.884 120.743 176.12C121.731 176.426 122.713 176.931 123.689 177.635C125.654 179.034 126.603 180.723 126.538 182.703C126.495 184.009 125.849 185.055 124.601 185.841C123.483 186.555 122.073 186.954 120.369 187.035C118.709 187.117 117.179 186.877 115.779 186.316C114.281 185.713 113.283 184.851 112.784 183.728C112.089 182.187 112.241 180.636 113.24 179.074C113.554 178.585 113.939 178.125 114.395 177.697L114.965 177.191L109.105 146.512Z" stroke="black" stroke-width="6.99996" stroke-linecap="round" stroke-linejoin="round"/>
<path d="M115.348 141.156C114.632 139.88 113.894 138.768 113.134 137.818L112.174 136.777L105.728 139.38L109.504 156.021C113.064 156.807 116.558 156.746 119.987 155.837C119.151 150.122 117.605 145.228 115.348 141.156Z" fill="black"/>
<path d="M119.991 155.85C116.562 156.759 113.068 156.82 109.508 156.034L105.732 139.393L112.178 136.79L113.138 137.831C113.898 138.781 114.636 139.893 115.352 141.169C117.609 145.241 119.155 150.135 119.991 155.85Z" stroke="black" stroke-width="6.99996" stroke-linecap="round" stroke-linejoin="round"/>
<path d="M89.1697 144.723C87.542 143.835 85.9306 144.111 84.3354 145.55C83.4673 148.193 82.496 152.852 81.4217 159.527C80.3149 166.345 79.6638 171.871 79.4685 176.107C78.481 176.413 77.4989 176.918 76.5223 177.623C74.5582 179.021 73.6087 180.71 73.6738 182.69C73.7172 183.996 74.3628 185.043 75.6108 185.828C76.7285 186.543 78.1392 186.941 79.8429 187.023C81.5031 187.104 83.0332 186.864 84.433 186.303C85.9305 185.701 86.9289 184.838 87.4281 183.716C88.1226 182.175 87.9706 180.623 86.9723 179.062C86.6576 178.572 86.2724 178.113 85.8166 177.684L85.2469 177.179L91.1067 146.499C90.6184 145.764 89.9727 145.172 89.1697 144.723Z" fill="black"/>
<path d="M91.1068 146.512C90.6185 145.777 89.9728 145.185 89.1698 144.736C87.5421 143.848 85.9307 144.124 84.3355 145.563C83.4674 148.206 82.4962 152.865 81.4219 159.54C80.3151 166.358 79.664 171.884 79.4687 176.12C78.4812 176.426 77.4991 176.931 76.5225 177.635C74.5584 179.034 73.6089 180.723 73.674 182.703C73.7174 184.009 74.3631 185.055 75.611 185.841C76.7287 186.555 78.1394 186.954 79.8431 187.035C81.5033 187.117 83.0334 186.877 84.4332 186.316C85.9307 185.713 86.929 184.851 87.4282 183.728C88.1227 182.187 87.9708 180.636 86.9724 179.074C86.6577 178.585 86.2725 178.125 85.8168 177.697L85.2471 177.191L91.1068 146.512Z" stroke="black" stroke-width="6.99996" stroke-linecap="round" stroke-linejoin="round"/>
<path d="M89.779 156.059L93.5412 139.421L87.0867 136.816L86.14 137.867C85.381 138.812 84.6455 139.924 83.9335 141.204C81.6613 145.272 80.1145 150.163 79.2932 155.876C82.7119 156.79 86.2071 156.851 89.779 156.059Z" fill="black"/>
<path d="M79.3025 155.876C82.7212 156.789 86.2164 156.85 89.7883 156.059L93.5505 139.421L87.096 136.815L86.1493 137.867C85.3903 138.811 84.6548 139.924 83.9428 141.203C81.6706 145.271 80.1238 150.162 79.3025 155.876Z" stroke="black" stroke-width="7.02805" stroke-linecap="round" stroke-linejoin="round"/>
<path d="M94.5744 159.794C92.326 158.457 91.0729 157.789 90.8151 157.789L90.2136 223.682H97.861V161.799C96.787 161.146 95.6914 160.478 94.5744 159.794Z" fill="black"/>
<path d="M90.8203 157.735L90.2189 223.627H97.8662V161.745C96.7921 161.092 95.6966 160.424 94.5796 159.74C92.3312 158.403 91.0781 157.735 90.8203 157.735Z" stroke="black" stroke-width="6.9999" stroke-linecap="round" stroke-linejoin="round"/>
<path d="M90.4806 210.82L90.2271 223.681H97.8769V211.058C97.3274 211.216 96.6089 211.322 95.7214 211.375C93.9322 211.498 92.1853 211.313 90.4806 210.82Z" fill="black"/>
<path d="M90.2285 223.661H97.8782V211.038C97.3288 211.196 96.6103 211.302 95.7228 211.355C93.9336 211.478 92.1867 211.293 90.4821 210.8L90.2285 223.661Z" stroke="black" stroke-width="6.99997" stroke-linecap="round" stroke-linejoin="round"/>
<path d="M108.884 157.789C108.631 157.789 107.38 158.457 105.13 159.794C104.005 160.478 102.912 161.146 101.85 161.799V223.682H109.491L108.884 157.789Z" fill="black"/>
<path d="M108.882 157.735L109.489 223.627H101.849V161.745C102.91 161.092 104.004 160.424 105.129 159.74C107.378 158.403 108.63 157.735 108.882 157.735Z" stroke="black" stroke-width="6.99988" stroke-linecap="round" stroke-linejoin="round"/>
<path d="M109.499 223.681L109.246 210.82C108.034 211.19 106.442 211.34 104.47 211.269L101.871 211.058V223.681H109.499Z" fill="black"/>
<path d="M109.5 223.661H101.872V211.038L104.471 211.249C106.443 211.319 108.035 211.17 109.247 210.8L109.5 223.661Z" stroke="black" stroke-width="6.99997" stroke-linecap="round" stroke-linejoin="round"/>
<path d="M85.9514 178.269C89.9058 180.387 94.4277 181.447 99.5172 181.446C104.629 181.447 108.891 180.387 112.304 178.269L110.179 160.151H88.0766L85.9514 178.269Z" fill="black"/>
<path d="M88.0439 160.161H110.146L112.271 178.279C108.858 180.398 104.602 181.457 99.502 181.456C94.4008 181.457 89.873 180.398 85.9187 178.279L88.0439 160.161Z" stroke="black" stroke-width="6.99992" stroke-linecap="round" stroke-linejoin="round"/>
<path d="M90.5979 139.613C89.9914 141.487 89.2594 145.953 88.402 153.013C87.9733 156.543 87.6073 159.884 87.3041 163.037L87.9001 163.482C88.4647 163.848 89.1549 164.185 89.9705 164.493C92.5741 165.453 95.9516 165.933 100.103 165.933C104.264 165.933 107.511 165.453 109.843 164.493C111.004 164.002 111.751 163.517 112.086 163.037C111.783 159.895 111.417 156.565 110.988 153.047C110.141 145.999 109.414 141.521 108.808 139.613H90.5979Z" fill="black"/>
<path d="M90.609 139.628C90.0025 141.501 89.2705 145.968 88.4131 153.027C87.9844 156.557 87.6184 159.898 87.3152 163.051L87.9112 163.497C88.4758 163.862 89.166 164.199 89.9816 164.508C92.5852 165.467 95.9627 165.947 100.114 165.947C104.276 165.947 107.522 165.467 109.854 164.508C111.015 164.016 111.762 163.531 112.097 163.051C111.794 159.91 111.428 156.58 110.999 153.061C110.152 146.013 109.425 141.535 108.819 139.628H90.609Z" stroke="black" stroke-width="6.99996" stroke-linecap="round" stroke-linejoin="round"/>
<path d="M50.055 95.8113C47.0186 95.2997 44.0422 95.5839 41.1258 96.664C35.2931 98.8382 32.7007 103.919 33.3488 111.905C33.9729 119.849 37.6694 124.418 44.4383 125.612C47.8227 126.209 51.1472 126.01 54.4116 125.015L50.055 95.8113Z" fill="black"/>
<path d="M50.063 95.8278C47.0266 95.3162 44.0502 95.6005 41.1339 96.6805C35.3011 98.8548 32.7088 103.935 33.3569 111.922C33.9809 119.866 37.6774 124.434 44.4462 125.628C47.8307 126.225 51.1551 126.026 54.4195 125.031L50.063 95.8278Z" stroke="black" stroke-width="6.99998" stroke-linecap="round" stroke-linejoin="round"/>
<path d="M37.9653 108.659C39.6696 110.279 41.4638 112.112 43.348 114.158" stroke="black" stroke-width="6.99998" stroke-linecap="round" stroke-linejoin="round"/>
<path d="M158.627 95.8319C155.71 94.7519 152.734 94.4677 149.698 94.9793L145.341 124.183C148.605 125.178 151.93 125.377 155.314 124.78C162.083 123.586 165.78 119.017 166.404 111.073C167.052 103.087 164.459 98.0062 158.627 95.8319Z" fill="black"/>
<path d="M149.705 94.995C152.741 94.4834 155.718 94.7676 158.634 95.8477C164.467 98.0219 167.059 103.102 166.411 111.089C165.787 119.033 162.09 123.602 155.322 124.795C151.937 125.392 148.613 125.193 145.348 124.199L149.705 94.995Z" stroke="black" stroke-width="6.99998" stroke-linecap="round" stroke-linejoin="round"/>
<path d="M161.119 108.659C159.415 110.279 157.62 112.112 155.736 114.158" stroke="black" stroke-width="6.99998" stroke-linecap="round" stroke-linejoin="round"/>
<path d="M99.5929 50.3953C86.5322 50.3953 75.6084 53.0879 66.8215 58.4733C53.2101 66.7905 46.4044 80.8182 46.4044 100.556C46.4044 105.524 46.6559 109.579 47.1586 112.719C48.1044 118.559 49.9839 123.656 52.7971 128.01C54.924 131.283 57.5637 134.123 60.7161 136.53C64.7984 138.284 71.4244 140.143 80.5944 142.106C89.4053 143.982 95.4987 144.921 98.8746 144.921C102.358 144.921 108.5 144.001 117.298 142.161C126.648 140.223 133.358 138.346 137.428 136.53C140.676 134.123 143.423 131.283 145.67 128.01C148.651 123.643 150.698 118.546 151.812 112.719C152.47 109.248 152.799 105.193 152.799 100.556C152.799 80.9163 145.994 66.9193 132.382 58.5653C123.524 53.1186 112.594 50.3953 99.5929 50.3953Z" fill="black"/>
<path d="M99.5816 50.407C86.5209 50.407 75.5971 53.0996 66.8103 58.485C53.199 66.8022 46.3933 80.8298 46.3933 100.568C46.3933 105.536 46.6447 109.59 47.1475 112.731C48.0932 118.57 49.9727 123.667 52.786 128.022C54.9129 131.294 57.5525 134.134 60.7049 136.542C64.7871 138.296 71.4132 140.154 80.5832 142.117C89.394 143.994 95.4874 144.932 98.8633 144.932C102.347 144.932 108.488 144.012 117.287 142.172C126.637 140.234 133.349 138.357 137.426 136.542C140.667 134.134 143.412 131.294 145.659 128.022C148.64 123.655 150.687 118.558 151.8 112.731C152.459 109.259 152.788 105.205 152.788 100.568C152.788 80.9279 145.982 66.931 132.371 58.577C123.512 53.1303 112.582 50.407 99.5816 50.407Z" stroke="black" stroke-width="6.99997" stroke-linecap="round" stroke-linejoin="round"/>
<path d="M96.3256 222.248C94.6491 221.096 91.9583 220.423 88.2531 220.228C85.3087 220.083 82.9912 220.441 81.3006 221.302C79.7086 222.09 78.8634 223.206 78.7647 224.65C78.652 226.202 79.5184 227.348 81.364 228.088C82.9841 228.743 85.0833 229.01 87.6614 228.889C90.0986 228.78 92.2964 228.373 94.2546 227.67C96.3397 226.918 97.5301 226.032 97.826 225.013C98.1077 224.043 97.6076 223.121 96.3256 222.248Z" fill="black"/>
<path d="M97.8414 225.015C98.1232 224.045 97.623 223.123 96.341 222.25C94.6645 221.097 91.9737 220.424 88.2686 220.23C85.3242 220.085 83.0066 220.442 81.3161 221.304C79.7241 222.092 78.8789 223.208 78.7802 224.651C78.6675 226.204 79.5339 227.35 81.3795 228.09C82.9996 228.745 85.0988 229.012 87.6769 228.89C90.1141 228.781 92.3118 228.375 94.2701 227.671C96.3551 226.919 97.5456 226.034 97.8414 225.015Z" stroke="black" stroke-width="6.99996" stroke-linecap="round" stroke-linejoin="round"/>
<path d="M120.733 224.727C120.635 223.29 119.789 222.178 118.197 221.389C116.507 220.515 114.189 220.156 111.245 220.311C107.54 220.508 104.849 221.177 103.172 222.318C101.89 223.192 101.39 224.115 101.672 225.087C101.968 226.115 103.158 227.003 105.243 227.749C107.202 228.454 109.399 228.862 111.837 228.975C114.415 229.088 116.514 228.82 118.134 228.172C119.98 227.425 120.846 226.277 120.733 224.727Z" fill="black"/>
<path d="M101.687 225.068C101.406 224.096 101.906 223.173 103.188 222.299C104.864 221.158 107.555 220.489 111.26 220.292C114.205 220.137 116.522 220.496 118.213 221.37C119.805 222.158 120.65 223.271 120.749 224.708C120.861 226.258 119.995 227.406 118.149 228.153C116.529 228.801 114.43 229.069 111.852 228.956C109.415 228.843 107.217 228.435 105.259 227.73C103.174 226.984 101.983 226.096 101.687 225.068Z" stroke="black" stroke-width="6.99999" stroke-linecap="round" stroke-linejoin="round"/>
<path d="M103.106 118.189C102.186 116.031 100.969 114.997 99.4576 115.087C98.0069 115.171 96.9187 116.2 96.1931 118.175" stroke="black" stroke-width="5.0201" stroke-linecap="round" stroke-linejoin="round"/>
<path d="M92.4784 124.435C94.2853 126.863 96.752 128.031 99.8784 127.941C102.886 127.85 105.222 126.682 106.886 124.435" stroke="black" stroke-width="4.99997" stroke-linecap="round" stroke-linejoin="round"/>
<path d="M64.0777 115.765C62.4005 115.391 60.8826 115.389 59.524 115.76C58.0319 116.195 57.1171 117.029 56.7797 118.262C56.4507 119.465 56.8173 120.635 57.8792 121.773C58.8667 122.759 60.1821 123.5 61.8255 123.998C63.4954 124.469 64.9964 124.532 66.3285 124.187C67.8207 123.753 68.7523 122.857 69.1235 121.5C69.503 120.113 69.1534 118.881 68.0745 117.805C67.0967 116.854 65.7644 116.174 64.0777 115.765Z" fill="black"/>
<path d="M135.95 115.765C137.628 115.391 139.145 115.389 140.504 115.76C141.996 116.195 142.911 117.029 143.248 118.262C143.577 119.465 143.211 120.635 142.149 121.773C141.161 122.759 139.846 123.5 138.202 123.998C136.533 124.469 135.032 124.532 133.7 124.187C132.207 123.753 131.276 122.857 130.905 121.5C130.525 120.113 130.875 118.881 131.953 117.805C132.931 116.854 134.264 116.174 135.95 115.765Z" fill="black"/>
<path d="M137.494 112.383C138.044 111.067 138.359 109.154 138.437 106.644C138.542 103.556 138.162 100.71 137.297 98.1058C134.861 90.6822 129.247 87.1046 120.456 87.3731C112.962 87.5879 107.716 90.9372 104.715 97.4212C103.589 99.8241 102.901 102.428 102.652 105.234C102.429 107.651 102.547 109.644 103.006 111.215C103.805 113.993 105.469 116.208 107.997 117.86C111.089 119.873 115.275 120.88 120.554 120.88C125.742 120.88 129.784 119.981 132.679 118.182C134.828 116.839 136.433 114.906 137.494 112.383Z" fill="black"/>
<path d="M103.005 111.217C103.804 113.996 105.468 116.211 107.996 117.862C111.088 119.876 115.274 120.883 120.553 120.883C125.741 120.883 129.783 119.983 132.678 118.184C134.827 116.842 136.431 114.909 137.493 112.385C138.043 111.07 138.357 109.157 138.436 106.646C138.541 103.559 138.161 100.713 137.296 98.1085C134.859 90.6849 129.246 87.1073 120.455 87.3758C112.961 87.5906 107.715 90.9399 104.714 97.4238C103.588 99.8268 102.9 102.431 102.651 105.237C102.428 107.653 102.546 109.647 103.005 111.217Z" stroke="black" stroke-width="3.99998" stroke-linecap="round" stroke-linejoin="round"/>
<path d="M118.556 105.939C118.48 103.425 118.023 101.294 117.186 99.5447C116.234 97.6354 114.998 96.7067 113.476 96.7587C111.992 96.8093 110.755 97.8224 109.766 99.7979C108.928 101.604 108.472 103.767 108.396 106.285C108.358 108.83 108.738 110.964 109.537 112.687C110.489 114.596 111.801 115.522 113.476 115.465C115.188 115.407 116.501 114.391 117.414 112.418C118.213 110.641 118.594 108.481 118.556 105.939Z" fill="black"/>
<path d="M113.427 96.716C111.943 96.7667 110.706 97.7797 109.717 99.7552C108.88 101.561 108.423 103.724 108.347 106.242C108.309 108.787 108.689 110.921 109.488 112.644C110.44 114.553 111.753 115.479 113.427 115.422C115.139 115.364 116.452 114.348 117.365 112.375C118.164 110.598 118.545 108.438 118.507 105.896C118.431 103.382 117.974 101.251 117.137 99.502C116.186 97.5927 114.949 96.6641 113.427 96.716Z" stroke="black" stroke-width="3.00168" stroke-linecap="round" stroke-linejoin="round"/>
<path d="M97.0367 105.235C96.79 102.431 96.1003 99.8282 94.9676 97.4264C91.9733 90.9336 86.7248 87.5838 79.2223 87.3769C70.4412 87.1011 64.8283 90.675 62.3835 98.0987C61.5199 100.707 61.1442 103.557 61.2564 106.648C61.3349 109.154 61.6489 111.067 62.1984 112.389C63.2526 114.905 64.8563 116.836 67.0095 118.18C69.9029 119.973 73.9458 120.869 79.1381 120.869C84.409 120.869 88.5921 119.864 91.6873 117.853C94.2106 116.21 95.876 113.997 96.6835 111.216C97.1433 109.642 97.261 107.648 97.0367 105.235Z" fill="black"/>
<path d="M96.6936 111.221C95.8862 114.002 94.2208 116.214 91.6975 117.857C88.6023 119.868 84.4192 120.874 79.1483 120.874C73.956 120.874 69.913 119.978 67.0196 118.185C64.8664 116.84 63.2628 114.91 62.2086 112.393C61.6591 111.072 61.345 109.158 61.2665 106.653C61.1544 103.562 61.5301 100.712 62.3936 98.1033C64.8384 90.6797 70.4513 87.1058 79.2324 87.3816C86.735 87.5884 91.9835 90.9382 94.9778 97.431C96.1105 99.8328 96.8002 102.436 97.0469 105.24C97.2712 107.653 97.1534 109.647 96.6936 111.221Z" stroke="black" stroke-width="3.99999" stroke-linecap="round" stroke-linejoin="round"/>
<path d="M91.9551 105.934C91.879 103.421 91.4224 101.289 90.5852 99.5404C89.6339 97.6311 88.3972 96.7024 86.8751 96.7544C85.391 96.805 84.1543 97.8181 83.165 99.7936C82.3278 101.6 81.8712 103.762 81.7951 106.281C81.757 108.826 82.1375 110.959 82.9366 112.683C83.888 114.592 85.2008 115.518 86.8751 115.461C88.5875 115.402 89.9003 114.387 90.8135 112.414C91.6126 110.636 91.9932 108.476 91.9551 105.934Z" fill="black"/>
<path d="M86.825 96.7094C85.3409 96.7601 84.1042 97.7731 83.1149 99.7486C82.2777 101.555 81.8211 103.717 81.745 106.236C81.707 108.781 82.0875 110.914 82.8866 112.637C83.8379 114.547 85.1507 115.473 86.825 115.416C88.5373 115.357 89.85 114.342 90.7633 112.369C91.5624 110.591 91.9429 108.431 91.9048 105.889C91.8287 103.376 91.3721 101.244 90.535 99.4954C89.5837 97.5861 88.347 96.6575 86.825 96.7094Z" stroke="black" stroke-width="3.0017" stroke-linecap="round" stroke-linejoin="round"/>
<path d="M125.851 85.3916C127.775 85.7985 129.634 85.8858 131.428 85.6534C133.65 85.3856 134.891 84.7701 135.152 83.807C135.403 82.8313 134.606 81.8103 132.76 80.744C131.222 79.8496 129.465 79.2339 127.49 78.8968C125.713 78.5859 124.249 78.6018 123.097 78.9446C121.888 79.3182 121.161 80.0321 120.916 81.0861C120.674 82.141 121.012 83.0472 121.928 83.8048C122.813 84.5091 124.121 85.038 125.851 85.3916Z" fill="black"/>
<path d="M135.139 83.7995C135.399 82.8244 134.606 81.8037 132.76 80.7373C131.222 79.843 129.465 79.2272 127.49 78.8901C125.713 78.5792 124.244 78.5949 123.084 78.9371C121.883 79.3112 121.16 80.0287 120.914 81.0894C120.674 82.1376 121.011 83.0405 121.927 83.7981C122.813 84.5024 124.116 85.031 125.838 85.384C127.771 85.7916 129.634 85.8791 131.428 85.6467C133.65 85.379 134.887 84.7632 135.139 83.7995Z" stroke="black" stroke-width="3.02604" stroke-linecap="round" stroke-linejoin="round"/>
<path d="M75.9437 83.7285C76.8633 82.9816 77.1998 82.0852 76.953 81.0395C76.7175 79.9707 75.9998 79.2525 74.7998 78.8848C73.6223 78.54 72.1476 78.5228 70.3756 78.8331C68.4131 79.1663 66.658 79.7811 65.1104 80.6775C63.2599 81.7577 62.4749 82.7747 62.7553 83.7285C62.9796 84.6938 64.2076 85.3086 66.4393 85.5729C68.2449 85.8258 70.1121 85.7453 72.041 85.3316C73.7569 84.9754 75.0578 84.441 75.9437 83.7285Z" fill="black"/>
<path d="M62.7665 83.739C62.4862 82.7852 63.2711 81.7682 65.1216 80.688C66.6692 79.7916 68.4243 79.1768 70.3868 78.8436C72.1588 78.5333 73.6335 78.5505 74.8111 78.8953C76.011 79.263 76.7288 79.9812 76.9643 81.0499C77.211 82.0957 76.8745 82.992 75.9549 83.739C75.069 84.4515 73.7681 84.9858 72.0523 85.3421C70.1233 85.7558 68.2561 85.8362 66.4505 85.5834C64.2188 85.3191 62.9908 84.7043 62.7665 83.739Z" stroke="black" stroke-width="3" stroke-linecap="round" stroke-linejoin="round"/>
<path d="M133.572 41.0859L128.696 36.5479C120.906 32.0901 111.694 30.0152 101.058 30.3231C90.7165 30.6042 80.9211 33.054 71.6715 37.6723C61.5265 42.7459 54.4482 51.2665 50.4368 63.2341C49.1488 67.1028 48.2655 71.0786 47.7871 75.1615C47.4559 77.9861 47.3577 79.8535 47.4927 80.7638L49.5536 80.7839C51.2342 80.65 52.8596 80.235 54.4298 79.5389C59.4471 77.3168 62.9311 72.685 64.8816 65.6437C67.1265 67.4375 69.6168 68.4214 72.3524 68.5954C75.6645 68.7962 79.265 67.7922 83.1537 65.5834L83.0433 66.7079C83.031 67.6048 83.1843 68.4548 83.5033 69.258C84.5092 71.8283 86.9443 73.3878 90.8085 73.9366C90.0725 72.5444 89.5327 70.9314 89.1892 69.0974C88.5268 65.4295 89.2015 62.4978 91.2133 60.3024L92.9062 62.21C94.3415 63.6423 95.8565 64.7802 97.4512 65.6236C102.554 68.3277 107.461 67.578 112.172 63.3746L114.325 64.8204C116.079 65.8511 117.784 66.5472 119.44 66.9087C122.372 67.5512 125.372 66.8284 128.438 64.7401C129.96 63.6959 131.192 62.5848 132.137 61.4068L132.891 64.9208C133.615 67.665 134.548 70.0679 135.688 72.1295C139.344 78.729 144.404 80.6567 150.869 77.9125C155.077 72.2366 152.642 63.6357 143.564 52.1098C140.73 48.5088 137.4 44.8342 133.572 41.0859Z" fill="black"/>
<path d="M47.502 80.7737L49.5628 80.7938C51.2434 80.6599 52.8688 80.2449 54.439 79.5488C59.4564 77.3267 62.9403 72.6949 64.8908 65.6536C67.1357 67.4474 69.6259 68.4313 72.3615 68.6054C75.6737 68.8061 79.2741 67.8022 83.1628 65.5934L83.0524 66.7179C83.0402 67.6148 83.1935 68.4648 83.5125 69.268C84.5184 71.8382 86.9534 73.3977 90.8176 73.9465C90.0816 72.5544 89.5418 70.9413 89.1983 69.1073C88.5359 65.4394 89.2106 62.5078 91.2224 60.3124L92.9153 62.22C94.3505 63.6524 95.8656 64.7902 97.4603 65.6336C102.563 68.3376 107.47 67.588 112.181 63.3846L114.334 64.8304C116.088 65.8611 117.793 66.5572 119.449 66.9187C122.381 67.5612 125.381 66.8383 128.447 64.75C129.969 63.7059 131.201 62.5948 132.146 61.4168L132.9 64.9308C133.624 67.675 134.556 70.0779 135.697 72.1394C139.353 78.7389 144.413 80.6666 150.878 77.9224C155.086 72.2465 152.651 63.6457 143.573 52.1199C140.739 48.5189 137.409 44.8443 133.581 41.0961L128.705 36.5581C120.915 32.1004 111.703 30.0255 101.067 30.3334C90.7256 30.6145 80.9302 33.0642 71.6807 37.6826C61.5357 42.756 54.4575 51.2765 50.4461 63.2441C49.158 67.1128 48.2747 71.0886 47.7963 75.1714C47.4651 77.996 47.367 79.8634 47.502 80.7737Z" stroke="black" stroke-width="6.99996" stroke-linecap="round" stroke-linejoin="round"/>
</svg>
