<svg width="169" height="217" viewBox="0 0 169 217" fill="none" xmlns="http://www.w3.org/2000/svg">
<path d="M163.576 49.7012C159.235 39.0021 152.529 31.0592 143.458 25.8724C136.492 21.8793 129.46 20.0237 122.363 20.3059C116.895 12.9923 108.507 7.72956 97.2 4.51767C86.2188 1.41428 74.5214 0.784907 62.1079 2.62958C49.065 4.56105 37.5738 8.93402 27.6343 15.7485C16.6097 23.3224 8.8512 33.0775 4.35888 45.0136C-0.936405 59.1199 0.0293335 76.2645 7.2561 96.4473C10.8803 106.517 15.0254 115.187 19.6913 122.457L18.6822 125.387C18.0094 127.818 17.6405 130.248 17.5754 132.679C17.3584 140.513 20.3207 146.915 26.4624 151.885C31.2151 155.748 39.2557 158.71 50.5841 160.772C60.9143 162.638 72.5357 163.528 85.4484 163.441C98.1007 163.333 109.483 162.291 119.596 160.316C130.404 158.233 137.772 155.433 141.7 151.918C147.191 146.991 150.229 140.535 150.815 132.549C151.01 130.053 150.945 127.546 150.619 125.029L150.034 122.034C154.374 115.089 158.183 106.875 161.46 97.3913C168.057 78.3804 168.762 62.4837 163.576 49.7012Z" fill="black"/>
<path d="M163.576 49.7012C168.762 62.4837 168.057 78.3804 161.46 97.3913C158.183 106.875 154.374 115.089 150.034 122.034L150.619 125.029C150.945 127.546 151.01 130.053 150.815 132.549C150.229 140.535 147.191 146.991 141.7 151.918C137.772 155.433 130.404 158.233 119.596 160.316C109.483 162.291 98.1007 163.333 85.4484 163.441C72.5357 163.528 60.9143 162.638 50.5841 160.772C39.2557 158.71 31.2151 155.748 26.4624 151.885C20.3207 146.915 17.3584 140.513 17.5754 132.679C17.6405 130.248 18.0094 127.818 18.6822 125.387L19.6913 122.457C15.0254 115.187 10.8803 106.517 7.2561 96.4473C0.0293335 76.2645 -0.936405 59.1199 4.35888 45.0136C8.8512 33.0775 16.6097 23.3224 27.6343 15.7485C37.5738 8.93402 49.065 4.56105 62.1079 2.62958C74.5214 0.784907 86.2188 1.41428 97.2 4.51767C108.507 7.72956 116.895 12.9923 122.363 20.3059C129.46 20.0237 136.491 21.8793 143.458 25.8724C152.529 31.0592 159.235 39.0021 163.576 49.7012Z" stroke="#000018" stroke-width="1.95318" stroke-linecap="round" stroke-linejoin="round"/>
<path d="M119.669 148.993C119.149 147.848 117.373 148.109 114.341 149.776L109.978 152.604L117.487 178.768L116.867 179.349C116.377 179.854 115.979 180.401 115.673 180.99C114.693 182.842 114.762 184.736 115.88 186.672C116.676 188.07 118.016 189.105 119.899 189.779C121.629 190.385 123.497 190.578 125.502 190.36C127.523 190.141 129.2 189.543 130.532 188.566C132.002 187.489 132.767 186.134 132.828 184.501C132.92 182.026 131.925 180.106 129.843 178.743C129.184 178.305 128.457 177.96 127.661 177.707C127.263 177.572 126.934 177.48 126.674 177.429C126.061 167.227 123.726 157.748 119.669 148.993Z" fill="#FFCC99"/>
<path d="M110 152.614L114.364 149.785C117.395 148.118 119.171 147.857 119.692 149.002C123.749 157.757 126.084 167.236 126.696 177.438C126.956 177.489 127.285 177.581 127.683 177.716C128.48 177.969 129.207 178.314 129.865 178.751C131.947 180.115 132.943 182.034 132.851 184.509C132.789 186.142 132.024 187.498 130.554 188.575C129.222 189.552 127.546 190.149 125.525 190.368C123.519 190.587 121.651 190.394 119.921 189.787C118.038 189.114 116.698 188.079 115.902 186.681C114.785 184.745 114.716 182.851 115.696 180.999C116.002 180.41 116.4 179.863 116.89 179.358L117.51 178.777L110 152.614Z" stroke="#000018" stroke-width="4.55739" stroke-linecap="round" stroke-linejoin="round"/>
<path d="M118.177 141.341L116.822 140.179L106.189 143.058L109.794 161.444C115.352 162.319 120.917 162.252 126.49 161.241C126 154.928 124.239 149.524 121.208 145.028C120.259 143.614 119.248 142.385 118.177 141.341Z" fill="#66FF99"/>
<path d="M126.513 161.251C120.94 162.261 115.375 162.328 109.817 161.453L106.212 143.068L116.845 140.189L118.2 141.351C119.271 142.395 120.282 143.624 121.231 145.038C124.262 149.533 126.023 154.937 126.513 161.251Z" stroke="#000018" stroke-width="4.55739" stroke-linecap="round" stroke-linejoin="round"/>
<path d="M57.6998 150.382C55.1277 149.271 52.5709 149.616 50.0294 151.417C46.6306 159.583 44.6555 168.254 44.1044 177.429C43.8441 177.48 43.5149 177.572 43.1169 177.707C42.3207 177.96 41.5935 178.305 40.9352 178.743C38.853 180.106 37.8578 182.026 37.9497 184.5C38.0109 186.134 38.7764 187.489 40.2462 188.566C41.5782 189.543 43.2547 190.141 45.2756 190.359C47.2812 190.578 49.1491 190.385 50.8791 189.779C52.7623 189.105 54.1019 188.07 54.8981 186.672C56.0157 184.736 56.0846 182.842 55.1048 180.99C54.7986 180.401 54.4005 179.854 53.9106 179.349L53.2905 178.768L60.8002 152.604C60.0193 151.678 58.9859 150.938 57.6998 150.382Z" fill="#FFCC99"/>
<path d="M60.8135 152.614C60.0327 151.688 58.9993 150.947 57.7132 150.391C55.1411 149.28 52.5843 149.625 50.0428 151.427C46.644 159.592 44.669 168.263 44.1178 177.438C43.8575 177.489 43.5283 177.581 43.1303 177.716C42.3342 177.969 41.6069 178.314 40.9486 178.751C38.8664 180.115 37.8712 182.034 37.9631 184.509C38.0243 186.142 38.7898 187.498 40.2596 188.575C41.5916 189.552 43.2681 190.149 45.289 190.368C47.2946 190.587 49.1625 190.394 50.8925 189.787C52.7757 189.114 54.1153 188.079 54.9115 186.681C56.0291 184.745 56.098 182.851 55.1181 180.999C54.8119 180.41 54.4139 179.863 53.924 179.358L53.3039 178.777L60.8135 152.614Z" stroke="#000018" stroke-width="4.55739" stroke-linecap="round" stroke-linejoin="round"/>
<path d="M60.4148 161.354L64.0203 142.968L53.3874 140.09L52.0325 141.251C50.9607 142.295 49.9503 143.524 49.001 144.938C45.9696 149.434 44.2089 154.838 43.719 161.151C49.2843 162.161 54.8495 162.228 60.4148 161.354Z" fill="#66FF99"/>
<path d="M43.7131 161.171C49.2784 162.181 54.8436 162.248 60.4089 161.373L64.0144 142.989L53.3815 140.11L52.0266 141.271C50.9548 142.315 49.9444 143.544 48.9951 144.958C45.9637 149.454 44.2031 154.858 43.7131 161.171Z" stroke="#000018" stroke-width="4.55739" stroke-linecap="round" stroke-linejoin="round"/>
<path d="M74.9647 174.963C70.1006 174.282 67.3897 173.941 66.832 173.941L65.5308 207.517H82.075V175.985C79.7514 175.652 77.3813 175.312 74.9647 174.963Z" fill="#FF3300"/>
<path d="M66.8281 173.949L65.5269 207.525H82.0709V175.993C79.7473 175.66 77.3772 175.319 74.9607 174.971C70.0966 174.29 67.3857 173.949 66.8281 173.949Z" stroke="#000018" stroke-width="4.55738" stroke-linecap="round" stroke-linejoin="round"/>
<path d="M66.1396 193.774L65.5911 207.321H82.1403V194.025C80.9517 194.192 79.3973 194.303 77.4772 194.359C73.6066 194.488 69.8274 194.294 66.1396 193.774Z" fill="white"/>
<path d="M65.573 207.314H82.1222V194.018C80.9335 194.185 79.3792 194.296 77.4591 194.351C73.5885 194.481 69.8093 194.287 66.1216 193.767L65.573 207.314Z" stroke="#000018" stroke-width="4.55739" stroke-linecap="round" stroke-linejoin="round"/>
<path d="M79.6707 204.685C77.1497 203.071 73.1034 202.129 67.5318 201.857C63.1042 201.653 59.6193 202.154 57.0772 203.36C54.6833 204.465 53.4122 206.028 53.2639 208.049C53.0944 210.224 54.3973 211.829 57.1725 212.866C59.6087 213.783 62.7653 214.157 66.6421 213.987C70.307 213.834 73.6118 213.265 76.5565 212.28C79.6919 211.226 81.482 209.986 81.9269 208.559C82.3506 207.2 81.5985 205.909 79.6707 204.685Z" fill="#470000"/>
<path d="M81.9134 208.57C82.3371 207.211 81.585 205.92 79.6572 204.696C77.1362 203.082 73.09 202.14 67.5184 201.868C63.0908 201.664 59.6059 202.165 57.0637 203.371C54.6698 204.476 53.3988 206.039 53.2505 208.06C53.081 210.235 54.3839 211.84 57.159 212.877C59.5953 213.794 62.7518 214.168 66.6286 213.998C70.2936 213.845 73.5984 213.276 76.5431 212.291C79.6784 211.237 81.4685 209.997 81.9134 208.57Z" stroke="#000018" stroke-width="4.55741" stroke-linecap="round" stroke-linejoin="round"/>
<path d="M97.2113 174.934C94.7935 175.288 92.4199 175.628 90.0906 175.954V207.49H106.632L105.327 173.914C104.782 173.914 102.076 174.254 97.2113 174.934Z" fill="#FF3300"/>
<path d="M105.316 173.92L106.62 207.495H90.0793V175.96C92.4087 175.634 94.7822 175.294 97.2 174.94C102.065 174.26 104.77 173.92 105.316 173.92Z" stroke="#000018" stroke-width="4.55738" stroke-linecap="round" stroke-linejoin="round"/>
<path d="M94.8008 194.293C92.8695 194.237 91.3142 194.123 90.1348 193.953V207.256H106.676L106.123 193.698C102.438 194.222 98.6634 194.421 94.8008 194.293Z" fill="white"/>
<path d="M106.665 207.262H90.1235V193.959C91.3029 194.129 92.8583 194.242 94.7895 194.299C98.6521 194.426 102.426 194.228 106.112 193.704L106.665 207.262Z" stroke="#000018" stroke-width="4.55738" stroke-linecap="round" stroke-linejoin="round"/>
<path d="M90.234 208.462C90.668 209.894 92.4584 211.132 95.6052 212.173C98.535 213.171 101.834 213.747 105.501 213.898C109.386 214.072 112.544 213.703 114.974 212.792C117.752 211.75 119.054 210.133 118.881 207.941C118.75 205.945 117.481 204.393 115.072 203.286C112.533 202.071 109.05 201.572 104.622 201.789C99.045 202.049 94.9975 202.982 92.4801 204.588C90.5486 205.804 89.7999 207.095 90.234 208.462Z" fill="#470000"/>
<path d="M90.234 208.462C89.7999 207.095 90.5486 205.804 92.4801 204.588C94.9975 202.982 99.045 202.049 104.622 201.789C109.05 201.572 112.533 202.071 115.072 203.286C117.481 204.393 118.75 205.945 118.881 207.941C119.054 210.133 117.752 211.75 114.974 212.792C112.544 213.703 109.386 214.072 105.501 213.898C101.834 213.747 98.535 213.171 95.6052 212.173C92.4584 211.132 90.668 209.894 90.234 208.462Z" stroke="#000018" stroke-width="4.55742" stroke-linecap="round" stroke-linejoin="round"/>
<path d="M54.6554 150.943C53.5276 153.319 52.7028 156.273 52.181 159.805C51.676 163.178 51.5414 166.512 51.777 169.807C51.9959 173.212 52.5682 175.968 53.494 178.074C54.1673 179.642 54.9163 180.854 55.7411 181.709C56.7679 182.77 58.1735 183.602 59.9578 184.203C63.6778 185.439 70.5372 185.993 80.5359 185.866C83.145 185.835 86.3096 185.843 90.0296 185.89C100.028 186.017 106.888 185.462 110.608 184.227C112.392 183.625 113.798 182.794 114.824 181.733C115.649 180.877 116.398 179.666 117.072 178.098C117.997 175.991 118.578 173.235 118.814 169.83C119.033 166.536 118.889 163.202 118.384 159.829C117.863 156.297 117.038 153.343 115.91 150.967C114.614 148.338 113.082 146.731 111.315 146.145C110.355 145.828 101.863 145.63 85.8382 145.551C69.5609 145.456 60.7068 145.646 59.276 146.121C57.4918 146.707 55.9515 148.314 54.6554 150.943Z" fill="#66FF99"/>
<path d="M111.3 146.162C113.067 146.748 114.599 148.356 115.895 150.985C117.023 153.361 117.848 156.314 118.37 159.846C118.875 163.22 119.018 166.554 118.799 169.848C118.563 173.253 117.983 176.009 117.057 178.115C116.384 179.683 115.634 180.895 114.81 181.75C113.783 182.811 112.377 183.643 110.593 184.245C106.873 185.48 100.014 186.034 90.015 185.908C86.295 185.86 83.1304 185.852 80.5214 185.884C70.5227 186.011 63.6634 185.456 59.9433 184.221C58.1591 183.619 56.7535 182.788 55.7267 181.727C54.9019 180.871 54.1529 179.66 53.4796 178.092C52.5538 175.985 51.9814 173.229 51.7626 169.824C51.527 166.53 51.6616 163.196 52.1666 159.823C52.6884 156.291 53.5132 153.337 54.641 150.961C55.9371 148.332 57.4773 146.725 59.2616 146.139C60.6924 145.663 69.5464 145.473 85.8237 145.568C101.848 145.648 110.341 145.846 111.3 146.162Z" stroke="black" stroke-width="4.5574" stroke-linecap="round" stroke-linejoin="round"/>
<path d="M24.6836 101.747C20.9619 101.217 17.3138 101.511 13.7392 102.629C6.59009 104.88 3.41269 110.139 4.20704 118.406C4.97197 126.629 9.50272 131.358 17.7993 132.594C21.9475 133.212 26.0222 133.006 30.0234 131.976L24.6836 101.747Z" fill="#FFCC99"/>
<path d="M24.6705 101.757C20.9489 101.227 17.3008 101.522 13.7262 102.64C6.57713 104.89 3.39976 110.149 4.1941 118.416C4.95903 126.639 9.48973 131.368 17.7862 132.604C21.9345 133.222 26.0092 133.016 30.0103 131.986L24.6705 101.757Z" stroke="#000018" stroke-width="4.55739" stroke-linecap="round" stroke-linejoin="round"/>
<path d="M9.84302 115.9C11.9319 117.577 14.131 119.475 16.4405 121.593" stroke="#000018" stroke-width="4.55739" stroke-linecap="round" stroke-linejoin="round"/>
<path d="M156.526 102.629C152.951 101.511 149.303 101.217 145.581 101.747L140.241 131.976C144.243 133.006 148.317 133.212 152.466 132.594C160.762 131.358 165.293 126.629 166.058 118.406C166.852 110.139 163.675 104.88 156.526 102.629Z" fill="#FFCC99"/>
<path d="M145.571 101.757C149.293 101.227 152.941 101.522 156.515 102.64C163.664 104.89 166.842 110.149 166.047 118.416C165.282 126.639 160.752 131.368 152.455 132.604C148.307 133.222 144.232 133.016 140.231 131.986L145.571 101.757Z" stroke="#000018" stroke-width="4.55739" stroke-linecap="round" stroke-linejoin="round"/>
<path d="M159.591 115.9C157.502 117.577 155.303 119.475 152.994 121.593" stroke="#000018" stroke-width="4.55739" stroke-linecap="round" stroke-linejoin="round"/>
<path d="M124.609 59.9988C113.743 53.9211 100.348 50.8823 84.4243 50.8823C68.4013 50.8823 55.0063 53.8857 44.2393 59.8925C27.5505 69.1578 19.2061 84.7912 19.2061 106.793C19.2061 111.227 19.8436 115.697 21.1186 120.202C22.8612 126.464 25.6946 132.01 29.6189 136.841C40.4992 150.3 58.4631 157.029 83.5105 157.029C108.615 157.029 126.883 150.3 138.316 136.841C142.453 131.982 145.499 126.435 147.454 120.202C148.913 115.569 149.643 111.099 149.643 106.793C149.643 84.9045 141.298 69.3066 124.609 59.9988Z" fill="#FFCC99"/>
<path d="M84.4173 50.8984C68.3945 50.8984 54.9996 53.9018 44.2327 59.9086C27.544 69.1738 19.1997 84.807 19.1997 106.808C19.1997 111.243 19.8372 115.712 21.1122 120.217C22.8548 126.479 25.6882 132.026 29.6124 136.856C40.4927 150.315 58.4564 157.044 83.5036 157.044C108.607 157.044 126.876 150.315 138.308 136.856C142.445 131.997 145.491 126.451 147.446 120.217C148.905 115.585 149.635 111.115 149.635 106.808C149.635 84.9203 141.291 69.3225 124.602 60.0148C113.736 53.9372 100.341 50.8984 84.4173 50.8984Z" stroke="black" stroke-width="4.55738" stroke-linecap="round" stroke-linejoin="round"/>
<path d="M87.1604 122.377C85.6894 120.7 84.189 120.177 82.6591 120.81C81.1881 121.413 80.3202 122.766 80.0554 124.87" stroke="black" stroke-width="3.25528" stroke-linecap="round" stroke-linejoin="round"/>
<path d="M76.9497 130.994C78.9394 134.102 81.6556 135.597 85.0983 135.481C88.4101 135.365 90.9823 133.87 92.8149 130.994" stroke="black" stroke-width="3.25528" stroke-linecap="round" stroke-linejoin="round"/>
<path d="M44.8873 127.242C45.3865 125.485 44.9307 123.911 43.5201 122.522C42.2397 121.307 40.5035 120.428 38.3116 119.885C36.098 119.408 34.0906 119.408 32.2893 119.885C30.3578 120.45 29.1642 121.513 28.7085 123.076C28.2744 124.616 28.7519 126.125 30.1408 127.6C31.4429 128.859 33.1791 129.803 35.3493 130.433C37.5195 131.04 39.4835 131.127 41.2414 130.693C43.1946 130.129 44.4099 128.979 44.8873 127.242Z" fill="#FFB098"/>
<path d="M123.405 122.522C121.995 123.911 121.539 125.485 122.038 127.242C122.515 128.979 123.731 130.129 125.684 130.693C127.442 131.127 129.406 131.04 131.576 130.433C133.746 129.803 135.482 128.859 136.784 127.6C138.173 126.125 138.651 124.616 138.217 123.076C137.761 121.513 136.567 120.45 134.636 119.885C132.835 119.408 130.827 119.408 128.614 119.885C126.422 120.428 124.686 121.307 123.405 122.522Z" fill="#FFB098"/>
<path d="M72.7171 78.563C68.1874 75.294 62.4579 73.7266 55.5286 73.8608C48.5695 73.9956 42.84 75.7653 38.3401 79.17C31.4348 84.4016 27.9822 93.127 27.9822 105.346C27.9822 107.558 28.3681 110.025 29.14 112.747C30.0974 116.132 31.4917 119.176 33.3227 121.878C38.3072 129.232 45.5806 132.816 55.1427 132.631C64.7228 132.445 72.1248 128.577 77.3486 121.025C79.2814 118.234 80.7654 115.135 81.8006 111.727C82.6503 108.926 83.0751 106.444 83.0751 104.279C83.0751 92.1227 79.6225 83.5506 72.7171 78.563Z" fill="white" fill-opacity="0.498039"/>
<path d="M55.5278 73.8608C48.5687 73.9956 42.8392 75.7654 38.3394 79.1701C31.4341 84.4017 27.9814 93.1271 27.9814 105.346C27.9814 107.558 28.3674 110.025 29.1393 112.747C30.0967 116.132 31.4909 119.176 33.322 121.877C38.3065 129.232 45.5798 132.816 55.1419 132.631C64.7219 132.445 72.1238 128.576 77.3477 121.025C79.2805 118.234 80.7644 115.135 81.7996 111.727C82.6493 108.926 83.0742 106.444 83.0742 104.279C83.0742 92.1226 79.6215 83.5506 72.7162 78.563C68.1865 75.294 62.457 73.7266 55.5278 73.8608Z" stroke="black" stroke-width="3.2559" stroke-linecap="round" stroke-linejoin="round"/>
<path d="M130.336 78.563C125.806 75.294 120.077 73.7266 113.148 73.8608C106.188 73.9956 100.459 75.7653 95.959 79.17C89.0537 84.4016 85.6011 93.127 85.6011 105.346C85.6011 107.558 85.987 110.025 86.7589 112.747C87.7163 116.132 89.1106 119.176 90.9416 121.878C95.9261 129.232 103.199 132.816 112.762 132.631C122.342 132.445 129.744 128.577 134.968 121.025C136.9 118.234 138.384 115.135 139.419 111.727C140.269 108.926 140.694 106.444 140.694 104.279C140.694 92.1227 137.241 83.5506 130.336 78.563Z" fill="white" fill-opacity="0.498039"/>
<path d="M113.141 73.8592C106.182 73.994 100.453 75.7638 95.9529 79.1685C89.0476 84.4001 85.595 93.1254 85.595 105.345C85.595 107.556 85.9809 110.023 86.7528 112.745C87.7102 116.131 89.1045 119.174 90.9355 121.876C95.92 129.23 103.193 132.814 112.755 132.629C122.335 132.444 129.737 128.575 134.961 121.023C136.894 118.233 138.378 115.133 139.413 111.725C140.263 108.925 140.688 106.442 140.688 104.277C140.688 92.1209 137.235 83.549 130.33 78.5613C125.8 75.2924 120.071 73.725 113.141 73.8592Z" stroke="black" stroke-width="3.2559" stroke-linecap="round" stroke-linejoin="round"/>
<path d="M108.511 107.243C108.417 104.158 107.855 101.542 106.825 99.395C105.654 97.0514 104.132 95.9115 102.258 95.9753C100.432 96.0374 98.9098 97.2809 97.6921 99.7057C96.6618 101.923 96.0998 104.577 96.0061 107.668C95.9593 110.792 96.4276 113.411 97.4111 115.526C98.582 117.87 100.198 119.006 102.258 118.936C104.366 118.864 105.982 117.618 107.106 115.196C108.089 113.014 108.557 110.363 108.511 107.243Z" fill="#000018"/>
<path d="M102.236 95.9408C100.41 96.003 98.8875 97.2465 97.6699 99.6712C96.6396 101.888 96.0776 104.542 95.9839 107.634C95.9371 110.757 96.4054 113.376 97.3889 115.491C98.5597 117.835 100.175 118.971 102.236 118.901C104.344 118.83 105.959 117.583 107.083 115.161C108.067 112.98 108.535 110.328 108.488 107.208C108.395 104.123 107.833 101.507 106.802 99.3604C105.631 97.0169 104.109 95.877 102.236 95.9408Z" stroke="#000018" stroke-width="1.95427" stroke-linecap="round" stroke-linejoin="round"/>
<path d="M74.9164 107.243C74.8228 104.158 74.2607 101.542 73.2304 99.3949C72.0596 97.0514 70.5375 95.9115 68.6642 95.9752C66.8377 96.0374 65.3156 97.2808 64.0979 99.7056C63.0676 101.923 62.5056 104.577 62.4119 107.668C62.3651 110.792 62.8334 113.411 63.8169 115.526C64.9877 117.87 66.6035 119.006 68.6642 118.936C70.7717 118.864 72.3874 117.618 73.5114 115.196C74.4949 113.014 74.9633 110.363 74.9164 107.243Z" fill="#000018"/>
<path d="M68.6271 95.9568C66.8007 96.019 65.2786 97.2625 64.061 99.6872C63.0307 101.904 62.4687 104.558 62.375 107.65C62.3282 110.773 62.7965 113.392 63.78 115.507C64.9508 117.851 66.5665 118.987 68.6271 118.917C70.7346 118.846 72.3503 117.599 73.4743 115.177C74.4578 112.996 74.9261 110.344 74.8793 107.224C74.7856 104.139 74.2236 101.523 73.1933 99.3764C72.0225 97.0329 70.5004 95.893 68.6271 95.9568Z" stroke="#000018" stroke-width="1.95427" stroke-linecap="round" stroke-linejoin="round"/>
<path d="M79.4375 48.1386L81.279 50.1569C82.5872 51.893 83.4526 53.6835 83.8752 55.5281C85.2236 61.4094 81.8325 66.7806 73.7017 71.6419C93.5859 74.8104 103.951 66.824 104.796 47.6829L79.4375 48.1386Z" fill="black"/>
<path d="M79.4369 48.1386L81.2784 50.1569C82.5866 51.893 83.452 53.6835 83.8746 55.5281C85.223 61.4094 81.8319 66.7806 73.7012 71.6419C93.5852 74.8104 103.95 66.824 104.795 47.6829L79.4369 48.1386Z" stroke="#000018" stroke-width="3.25528" stroke-linecap="round" stroke-linejoin="round"/>
<path d="M26.9007 102.642C26.2775 102.77 25.5999 102.834 24.8679 102.834" stroke="#000018" stroke-width="5.20844" stroke-linecap="round" stroke-linejoin="round"/>
<path d="M143.841 102.642C143.218 102.77 142.54 102.834 141.808 102.834" stroke="#000018" stroke-width="5.20844" stroke-linecap="round" stroke-linejoin="round"/>
</svg>
