<svg width="174" height="272" viewBox="0 0 174 272" fill="none" xmlns="http://www.w3.org/2000/svg">
<path d="M105.248 152.223C103.335 150.149 101.403 149.752 99.451 151.031C98.4881 151.679 97.7139 152.532 97.1284 153.591L104.155 197.807L103.472 198.535C102.925 199.153 102.463 199.815 102.086 200.521C100.889 202.772 100.707 205.007 101.539 207.229C102.138 208.847 103.335 210.09 105.131 210.957C106.809 211.766 108.644 212.112 110.635 211.994C112.677 211.877 114.369 211.303 115.709 210.273C117.205 209.141 117.98 207.633 118.032 205.75C118.11 202.897 116.971 200.462 114.616 198.447C113.445 197.432 112.268 196.704 111.083 196.263C110.849 190.158 110.069 182.193 108.741 172.367C107.453 162.747 106.289 156.033 105.248 152.223Z" fill="black"/>
<path d="M97.1138 153.592C97.6993 152.533 98.4735 151.68 99.4363 151.033C101.388 149.753 103.32 150.15 105.233 152.224C106.274 156.034 107.438 162.749 108.727 172.369C110.054 182.195 110.835 190.16 111.069 196.264C112.253 196.705 113.43 197.433 114.601 198.448C116.956 200.464 118.095 202.898 118.017 205.752C117.965 207.634 117.191 209.142 115.694 210.275C114.354 211.304 112.663 211.878 110.62 211.996C108.629 212.113 106.794 211.768 105.116 210.959C103.32 210.091 102.123 208.848 101.525 207.23C100.692 205.009 100.874 202.773 102.071 200.522C102.449 199.816 102.91 199.155 103.457 198.537L104.14 197.809L97.1138 153.592Z" stroke="black" stroke-width="6.99997" stroke-linecap="round" stroke-linejoin="round"/>
<path d="M104.621 145.89C103.762 144.052 102.878 142.448 101.967 141.08L100.815 139.58L93.0862 143.331L97.6143 167.314C101.882 168.447 106.072 168.359 110.184 167.05C109.182 158.812 107.328 151.759 104.621 145.89Z" fill="black"/>
<path d="M110.166 167.051C106.055 168.36 101.865 168.448 97.5971 167.316L93.0691 143.332L100.798 139.581L101.95 141.082C102.86 142.45 103.745 144.053 104.604 145.892C107.31 151.761 109.164 158.814 110.166 167.051Z" stroke="black" stroke-width="6.99997" stroke-linecap="round" stroke-linejoin="round"/>
<path d="M72.3247 151.031C70.373 149.752 68.4407 150.149 66.528 152.223C65.4871 156.033 64.3225 162.747 63.0343 172.367C61.7071 182.193 60.9264 190.158 60.6922 196.263C59.5082 196.704 58.3306 197.432 57.1596 198.447C54.8044 200.462 53.6659 202.897 53.744 205.75C53.796 207.633 54.5702 209.141 56.0666 210.273C57.4068 211.303 59.0983 211.877 61.1411 211.994C63.1319 212.112 64.9666 211.766 66.6451 210.957C68.4407 210.09 69.6378 208.847 70.2363 207.229C71.0691 205.007 70.8869 202.772 69.6898 200.521C69.3125 199.815 68.8506 199.153 68.3041 198.535L67.621 197.807L74.6473 153.591C74.0618 152.532 73.2876 151.679 72.3247 151.031Z" fill="black"/>
<path d="M74.6362 153.592C74.0506 152.533 73.2765 151.68 72.3136 151.033C70.3619 149.753 68.4296 150.15 66.5169 152.224C65.476 156.034 64.3115 162.749 63.0233 172.369C61.6961 182.195 60.9154 190.16 60.6812 196.264C59.4972 196.705 58.3196 197.433 57.1485 198.448C54.7934 200.464 53.6549 202.898 53.733 205.752C53.7851 207.634 54.5592 209.142 56.0556 210.275C57.3958 211.304 59.0873 211.878 61.1301 211.996C63.1209 212.113 64.9555 211.768 66.634 210.959C68.4296 210.091 69.6267 208.848 70.2252 207.23C71.058 205.009 70.8758 202.773 69.6788 200.522C69.3014 199.816 68.8395 199.155 68.293 198.537L67.6099 197.809L74.6362 153.592Z" stroke="black" stroke-width="6.99997" stroke-linecap="round" stroke-linejoin="round"/>
<path d="M72.9642 167.329L77.4754 143.35L69.736 139.595L68.6008 141.11C67.6908 142.472 66.8088 144.075 65.955 145.919C63.2305 151.782 61.3758 158.831 60.391 167.065C64.4902 168.382 68.6813 168.47 72.9642 167.329Z" fill="black"/>
<path d="M60.3953 167.045C64.4945 168.362 68.6856 168.45 72.9685 167.309L77.4798 143.33L69.7405 139.575L68.6053 141.09C67.6952 142.452 66.8133 144.055 65.9595 145.899C63.2349 151.762 61.3802 158.811 60.3953 167.045Z" stroke="black" stroke-width="7.01942" stroke-linecap="round" stroke-linejoin="round"/>
<path d="M79.712 174.876C77.016 173.058 75.5135 172.149 75.2044 172.149L74.4832 261.764H83.653V177.603C82.3651 176.715 81.0514 175.806 79.712 174.876Z" fill="black"/>
<path d="M75.2185 172.126L74.4973 261.739H83.6671V177.58C82.3792 176.692 81.0655 175.783 79.7261 174.853C77.0302 173.035 75.5276 172.126 75.2185 172.126Z" stroke="black" stroke-width="6.99988" stroke-linecap="round" stroke-linejoin="round"/>
<path d="M74.7425 246.411L74.4385 261.832H83.6112V246.696C82.9524 246.886 82.0909 247.013 81.0266 247.076C78.8813 247.224 76.7866 247.002 74.7425 246.411Z" fill="black"/>
<path d="M74.4478 261.807H83.6205V246.672C82.9616 246.862 82.1001 246.988 81.0359 247.052C78.8905 247.199 76.7958 246.978 74.7518 246.387L74.4478 261.807Z" stroke="black" stroke-width="6.99997" stroke-linecap="round" stroke-linejoin="round"/>
<path d="M96.8404 172.149C96.5373 172.149 95.037 173.058 92.3393 174.876C90.9905 175.806 89.6795 176.715 88.4065 177.603V261.764H97.5679L96.8404 172.149Z" fill="black"/>
<path d="M96.8435 172.126L97.5709 261.739H88.4097V177.58C89.6827 176.692 90.9936 175.783 92.3424 174.853C95.04 173.035 96.5404 172.126 96.8435 172.126Z" stroke="black" stroke-width="6.99986" stroke-linecap="round" stroke-linejoin="round"/>
<path d="M97.5477 261.832L97.2437 246.411C95.7909 246.854 93.8821 247.034 91.5171 246.949L88.4004 246.696V261.832H97.5477Z" fill="black"/>
<path d="M97.5571 261.807H88.4097V246.672L91.5264 246.925C93.8913 247.009 95.8002 246.83 97.253 246.387L97.5571 261.807Z" stroke="black" stroke-width="6.99997" stroke-linecap="round" stroke-linejoin="round"/>
<path d="M72.5435 178.73V203.37C77.1328 204.95 81.7221 204.95 86.3114 203.37V178.73H72.5435Z" fill="black"/>
<path d="M72.5256 178.732H86.2936V203.371C81.7042 204.952 77.1149 204.952 72.5256 203.371V178.732Z" stroke="black" stroke-width="6.99998" stroke-linecap="round" stroke-linejoin="round"/>
<path d="M86.1787 178.73V203.37C90.768 204.95 95.3573 204.95 99.9467 203.37V178.73H86.1787Z" fill="black"/>
<path d="M86.1604 178.732H99.9283V203.371C95.339 204.952 90.7497 204.952 86.1604 203.371V178.732Z" stroke="black" stroke-width="6.99998" stroke-linecap="round" stroke-linejoin="round"/>
<path d="M72.7715 143.826C71.9036 146.876 70.8561 154.145 69.6291 165.636C69.0156 171.381 68.4918 176.819 68.0579 181.951L68.9108 182.676C69.7189 183.271 70.7065 183.819 71.8737 184.321C75.5997 185.883 80.4331 186.664 86.3738 186.664C92.3295 186.664 96.9758 185.883 100.313 184.321C101.974 183.522 103.044 182.732 103.523 181.951C103.089 176.838 102.565 171.418 101.951 165.691C100.739 154.22 99.6993 146.931 98.8313 143.826H72.7715Z" fill="black"/>
<path d="M72.7793 143.816C71.9114 146.865 70.8639 154.135 69.6369 165.625C69.0234 171.37 68.4996 176.809 68.0657 181.94L68.9186 182.665C69.7267 183.26 70.7143 183.809 71.8815 184.311C75.6075 185.873 80.4409 186.653 86.3816 186.653C92.3373 186.653 96.9836 185.873 100.321 184.311C101.982 183.511 103.051 182.721 103.53 181.94C103.096 176.827 102.573 171.407 101.959 165.681C100.747 154.209 99.7071 146.921 98.8392 143.816H72.7793Z" stroke="black" stroke-width="6.99999" stroke-linecap="round" stroke-linejoin="round"/>
<path d="M24.6463 88.1299C20.9154 87.5165 17.2584 87.8573 13.675 89.1523C6.50834 91.7594 3.32315 97.8512 4.11944 107.428C4.88625 116.953 9.42811 122.431 17.745 123.863C21.9034 124.578 25.9882 124.34 29.9991 123.147L24.6463 88.1299Z" fill="black"/>
<path d="M24.6593 88.1436C20.9285 87.5302 17.2715 87.871 13.6882 89.166C6.52152 91.7731 3.33633 97.8649 4.13263 107.441C4.89943 116.967 9.44127 122.445 17.7581 123.876C21.9165 124.592 26.0012 124.353 30.0122 123.161L24.6593 88.1436Z" stroke="black" stroke-width="6.99998" stroke-linecap="round" stroke-linejoin="round"/>
<path d="M9.79517 103.529C11.8891 105.471 14.0937 107.67 16.4088 110.123" stroke="black" stroke-width="6.99998" stroke-linecap="round" stroke-linejoin="round"/>
<path d="M157.887 88.1544C154.304 86.8594 150.647 86.5186 146.916 87.132L141.563 122.149C145.574 123.342 149.659 123.58 153.817 122.865C162.134 121.433 166.676 115.955 167.443 106.43C168.239 96.8533 165.054 90.7615 157.887 88.1544Z" fill="black"/>
<path d="M146.922 87.1448C150.653 86.5313 154.31 86.8721 157.893 88.1672C165.06 90.7743 168.245 96.866 167.449 106.442C166.682 115.968 162.14 121.446 153.823 122.878C149.665 123.593 145.58 123.355 141.569 122.162L146.922 87.1448Z" stroke="black" stroke-width="6.99998" stroke-linecap="round" stroke-linejoin="round"/>
<path d="M160.972 103.529C158.878 105.471 156.674 107.67 154.358 110.123" stroke="black" stroke-width="6.99998" stroke-linecap="round" stroke-linejoin="round"/>
<path d="M150.937 93.7672C150.937 70.2223 142.575 53.4427 125.852 43.4284C114.961 36.9005 101.532 33.6292 85.5667 33.6143C69.5154 33.6292 56.0869 36.8634 45.2812 43.3171C28.5581 53.287 20.1965 70.1037 20.1965 93.7672C20.1965 99.7313 20.511 104.598 21.1399 108.366C22.2976 115.354 24.606 121.459 28.065 126.681C37.9416 141.532 56.8087 148.957 84.6662 148.957C112.567 148.957 131.734 141.532 142.168 126.681C145.841 121.444 148.357 115.339 149.715 108.366C150.53 104.197 150.937 99.3307 150.937 93.7672Z" fill="black"/>
<path d="M85.5739 33.6251C69.5227 33.6325 56.0942 36.863 45.2886 43.3167C28.5656 53.2865 20.2041 70.1031 20.2041 93.7666C20.2041 99.7306 20.5185 104.597 21.1474 108.365C22.3052 115.353 24.6135 121.458 28.0725 126.68C37.9491 141.531 56.816 148.957 84.6734 148.957C112.574 148.957 131.741 141.531 142.175 126.68C145.848 121.443 148.364 115.338 149.722 108.365C150.536 104.196 150.944 99.3301 150.944 93.7666C150.944 70.2218 142.582 53.4423 125.859 43.428C114.968 36.9001 101.539 33.6325 85.5739 33.6251Z" stroke="black" stroke-width="6.99997" stroke-linecap="round" stroke-linejoin="round"/>
<path d="M88.5231 110.452C86.9406 108.648 85.3265 108.086 83.6807 108.767C82.0982 109.416 81.1645 110.872 80.8796 113.135" stroke="black" stroke-width="4.99996" stroke-linecap="round" stroke-linejoin="round"/>
<path d="M74.4329 121.659C77.3576 124.05 81.3503 125.201 86.4108 125.111C91.279 125.022 95.06 123.871 97.7538 121.659" stroke="black" stroke-width="4.99996" stroke-linecap="round" stroke-linejoin="round"/>
<path d="M133.755 107.53C135.684 107.103 137.38 107.256 138.844 107.988C140.448 108.836 141.348 110.265 141.545 112.273C141.736 114.231 141.155 116.066 139.801 117.778C138.553 119.255 136.975 120.307 135.065 120.935C133.13 121.518 131.444 121.465 130.005 120.777C128.402 119.929 127.492 118.4 127.276 116.191C127.055 113.932 127.626 111.996 128.989 110.385C130.221 108.964 131.81 108.012 133.755 107.53Z" fill="black"/>
<path d="M128.188 104.486C128.804 103.142 129.155 101.189 129.243 98.6245C129.36 95.4709 128.935 92.564 127.968 89.904C125.243 82.3217 118.964 78.6676 109.131 78.9418C100.75 79.1612 94.8809 82.5822 91.5253 89.2048C90.2651 91.6591 89.4958 94.3191 89.2174 97.1848C88.9683 99.6528 89.1002 101.689 89.613 103.293C90.5069 106.131 92.3678 108.394 95.1959 110.08C98.6541 112.137 103.336 113.165 109.241 113.165C115.044 113.165 119.565 112.247 122.803 110.409C125.206 109.038 127.001 107.064 128.188 104.486Z" fill="black"/>
<path d="M89.6116 103.303C90.5054 106.141 92.3664 108.403 95.1945 110.09C98.6527 112.147 103.334 113.175 109.24 113.175C115.042 113.175 119.563 112.256 122.801 110.419C125.205 109.048 127 107.073 128.186 104.496C128.802 103.152 129.154 101.198 129.242 98.634C129.359 95.4804 128.934 92.5736 127.967 89.9136C125.241 82.3313 118.962 78.6772 109.13 78.9514C100.748 79.1708 94.8794 82.5918 91.5238 89.2143C90.2636 91.6687 89.4943 94.3287 89.2159 97.1943C88.9668 99.6624 89.0987 101.698 89.6116 103.303Z" stroke="black" stroke-width="3.99998" stroke-linecap="round" stroke-linejoin="round"/>
<path d="M81.9649 97.1491C81.6889 94.2852 80.9175 91.6267 79.6505 89.1736C76.3013 82.5421 70.4307 79.1207 62.0389 78.9094C52.217 78.6277 45.9387 82.278 43.2042 89.8602C42.2383 92.5246 41.8181 95.4354 41.9435 98.5927C42.0313 101.151 42.3825 103.106 42.9972 104.455C44.1763 107.026 45.9701 108.998 48.3785 110.371C51.6149 112.202 56.1369 113.118 61.9448 113.118C67.8404 113.118 72.5193 112.091 75.9814 110.037C78.8038 108.358 80.6666 106.099 81.5697 103.258C82.084 101.65 82.2157 99.6139 81.9649 97.1491Z" fill="black"/>
<path d="M81.5708 103.257C80.6677 106.097 78.8049 108.357 75.9825 110.035C72.5204 112.089 67.8415 113.116 61.9459 113.116C56.1381 113.116 51.616 112.201 48.3797 110.37C45.9713 108.997 44.1775 107.025 42.9984 104.454C42.3837 103.104 42.0325 101.15 41.9447 98.5915C41.8193 95.4342 42.2395 92.5234 43.2054 89.8591C45.9399 82.2769 52.2181 78.6266 62.04 78.9083C70.4318 79.1196 76.3024 82.541 79.6516 89.1725C80.9185 91.6255 81.69 94.284 81.9659 97.1479C82.2168 99.6127 82.0851 101.649 81.5708 103.257Z" stroke="black" stroke-width="3.99998" stroke-linecap="round" stroke-linejoin="round"/>
<path d="M106.614 97.7623C106.531 95.0996 106.039 92.8417 105.135 90.9887C104.109 88.9661 102.774 87.9822 101.132 88.0372C99.5305 88.0909 98.1961 89.1641 97.1285 91.2569C96.2251 93.1704 95.7324 95.4613 95.6503 98.1296C95.6092 100.825 96.0198 103.086 96.8821 104.911C97.9086 106.934 99.3252 107.915 101.132 107.855C102.98 107.793 104.396 106.717 105.382 104.627C106.244 102.744 106.655 100.455 106.614 97.7623Z" fill="black"/>
<path d="M101.093 88.0267C99.4917 88.0804 98.1572 89.1536 97.0896 91.2464C96.1863 93.1599 95.6936 95.4508 95.6114 98.119C95.5704 100.815 95.981 103.075 96.8432 104.901C97.8698 106.923 99.2864 107.905 101.093 107.844C102.941 107.782 104.357 106.706 105.343 104.616C106.205 102.733 106.616 100.445 106.575 97.7517C106.492 95.089 106 92.8312 105.096 90.9782C104.07 88.9555 102.735 87.9717 101.093 88.0267Z" stroke="black" stroke-width="3.00166" stroke-linecap="round" stroke-linejoin="round"/>
<path d="M77.9224 97.7625C77.8403 95.0997 77.3475 92.8418 76.4442 90.9889C75.4177 88.9662 74.0832 87.9824 72.4407 88.0374C70.8394 88.091 69.5049 89.1642 68.4373 91.2571C67.534 93.1705 67.0412 95.4614 66.9591 98.1297C66.918 100.826 67.3286 103.086 68.1909 104.911C69.2174 106.934 70.6341 107.915 72.4407 107.855C74.2885 107.793 75.7051 106.717 76.6906 104.627C77.5528 102.744 77.9635 100.456 77.9224 97.7625Z" fill="black"/>
<path d="M72.4126 88.0216C70.8112 88.0753 69.4768 89.1485 68.4092 91.2414C67.5059 93.1548 67.0131 95.4457 66.931 98.1139C66.89 100.81 67.3006 103.07 68.1628 104.896C69.1894 106.918 70.6059 107.899 72.4126 107.839C74.2603 107.777 75.6769 106.701 76.6624 104.611C77.5246 102.728 77.9352 100.44 77.8942 97.7467C77.812 95.0839 77.3193 92.8261 76.416 90.9731C75.3895 88.9505 74.055 87.9666 72.4126 88.0216Z" stroke="black" stroke-width="3.00166" stroke-linecap="round" stroke-linejoin="round"/>
<path d="M117.778 76.3695C119.718 76.8482 121.593 76.9508 123.402 76.6773C125.644 76.3622 126.896 75.6382 127.159 74.5052C127.411 73.3575 126.607 72.1565 124.746 70.9021C123.195 69.8501 121.423 69.1258 119.43 68.7293C117.638 68.3637 116.161 68.3825 114.999 68.7857C113.78 69.2252 113.046 70.065 112.8 71.3049C112.556 72.5458 112.896 73.6119 113.82 74.5031C114.713 75.3315 116.032 75.9536 117.778 76.3695Z" fill="black"/>
<path d="M127.156 74.5013C127.418 73.3544 126.618 72.1537 124.757 70.8993C123.205 69.8473 121.433 69.123 119.441 68.7265C117.648 68.3609 116.167 68.3793 114.997 68.7819C113.786 69.2221 113.056 70.0661 112.809 71.3139C112.566 72.5469 112.907 73.6091 113.831 74.5002C114.724 75.3286 116.039 75.9504 117.776 76.3657C119.725 76.845 121.604 76.9479 123.413 76.6745C125.654 76.3594 126.902 75.635 127.156 74.5013Z" stroke="black" stroke-width="3.01259" stroke-linecap="round" stroke-linejoin="round"/>
<path d="M55.5748 74.4666C56.5023 73.5879 56.8417 72.5335 56.5928 71.3033C56.3553 70.0461 55.6313 69.2012 54.421 68.7687C53.2333 68.3631 51.7458 68.3428 49.9586 68.7078C47.9791 69.0999 46.2088 69.8231 44.6478 70.8775C42.7814 72.1482 41.9896 73.3446 42.2724 74.4666C42.4986 75.6021 43.7372 76.3253 45.9882 76.6363C47.8094 76.9337 49.6928 76.839 51.6383 76.3524C53.369 75.9333 54.6812 75.3047 55.5748 74.4666Z" fill="black"/>
<path d="M42.2838 74.4683C42.0011 73.3463 42.7929 72.15 44.6593 70.8793C46.2202 69.8248 47.9905 69.1016 49.97 68.7096C51.7572 68.3446 53.2447 68.3649 54.4324 68.7704C55.6427 69.203 56.3667 70.0479 56.6042 71.3051C56.853 72.5352 56.5137 73.5896 55.5862 74.4683C54.6925 75.3065 53.3804 75.9351 51.6498 76.3541C49.7042 76.8408 47.8208 76.9354 45.9997 76.638C43.7487 76.3271 42.5101 75.6039 42.2838 74.4683Z" stroke="black" stroke-width="2.99998" stroke-linecap="round" stroke-linejoin="round"/>
<path d="M81.7216 260.114C79.7114 258.732 76.4849 257.925 72.0422 257.692C68.5116 257.517 65.7328 257.947 63.7057 258.979C61.7968 259.925 60.7832 261.263 60.665 262.993C60.5298 264.855 61.5687 266.229 63.7817 267.117C65.7243 267.902 68.2413 268.222 71.3327 268.076C74.2551 267.946 76.8904 267.458 79.2384 266.615C81.7385 265.713 83.166 264.651 83.5207 263.43C83.8586 262.266 83.2589 261.161 81.7216 260.114Z" fill="black"/>
<path d="M83.541 263.431C83.8788 262.268 83.2791 261.163 81.7419 260.115C79.7317 258.734 76.5052 257.927 72.0624 257.694C68.5319 257.519 65.753 257.948 63.7259 258.981C61.8171 259.926 60.8035 261.264 60.6853 262.995C60.5501 264.857 61.589 266.231 63.8019 267.118C65.7446 267.904 68.2616 268.223 71.3529 268.078C74.2754 267.947 76.9106 267.46 79.2587 266.616C81.7588 265.715 83.1862 264.653 83.541 263.431Z" stroke="black" stroke-width="6.99996" stroke-linecap="round" stroke-linejoin="round"/>
<path d="M110.988 263.087C110.87 261.364 109.856 260.029 107.947 259.083C105.92 258.036 103.141 257.605 99.6109 257.791C95.1681 258.027 91.9416 258.83 89.9314 260.198C88.3942 261.245 87.7945 262.352 88.1323 263.517C88.4871 264.751 89.9145 265.815 92.4146 266.71C94.7627 267.555 97.3979 268.045 100.32 268.18C103.412 268.315 105.929 267.994 107.871 267.217C110.084 266.322 111.123 264.945 110.988 263.087Z" fill="black"/>
<path d="M88.1526 263.495C87.8147 262.329 88.4144 261.223 89.9517 260.175C91.9619 258.807 95.1884 258.005 99.6311 257.768C103.162 257.582 105.941 258.013 107.968 259.06C109.877 260.006 110.89 261.341 111.008 263.064C111.143 264.922 110.105 266.299 107.892 267.194C105.949 267.971 103.432 268.292 100.341 268.157C97.4182 268.022 94.7829 267.532 92.4349 266.687C89.9348 265.792 88.5073 264.728 88.1526 263.495Z" stroke="black" stroke-width="6.99999" stroke-linecap="round" stroke-linejoin="round"/>
<path d="M42.5837 110.403C41.3481 108.976 39.7595 108.02 37.8179 107.535C35.8909 107.108 34.192 107.255 32.7211 107.976C31.1178 108.844 30.2205 110.278 30.0293 112.279C29.838 114.235 30.4117 116.066 31.7503 117.773C33.0153 119.258 34.5965 120.317 36.494 120.95C38.4357 121.524 40.1272 121.472 41.5688 120.795C43.1574 119.928 44.062 118.39 44.2826 116.184C44.5033 113.919 43.937 111.992 42.5837 110.403Z" fill="black"/>
<path d="M136.54 12.5312C131.231 12.3047 124.699 11.5969 116.943 10.4079C107.843 8.87903 100.974 7.74657 96.3381 7.01047C88.096 5.67982 81.1417 4.80216 75.4752 4.37749C67.9486 3.81126 61.1803 3.88204 55.1704 4.58982C40.5893 6.30267 28.6053 12.0358 19.2184 21.7891C14.11 27.1117 10.6114 33.5101 8.7226 40.9843C7.10565 47.3828 6.7336 54.2058 7.60646 61.4536C8.37916 67.7529 9.95318 73.5356 12.3285 78.8015C14.5464 83.7277 16.8717 86.9765 19.3043 88.5478C24.5558 83.8056 28.4121 76.7489 30.8733 67.3778C31.6317 64.4476 32.2112 61.4607 32.6119 58.4172L32.9768 54.7225L43.258 55.8267C51.772 56.6194 60.2144 57.1856 68.5853 57.5254C95.3579 58.6154 116.321 57.2069 131.474 53.2999C130.931 61.9774 132.433 69.6781 135.982 76.4021C139.273 82.6165 143.373 86.481 148.281 87.9957C150.599 85.5043 152.423 82.0927 153.754 77.761C154.942 73.9248 155.657 69.671 155.9 64.9996C156.115 60.6821 155.907 56.6336 155.278 52.854C154.648 49.0885 153.725 46.3069 152.509 44.5091C157.646 39.498 161.76 34.0976 164.851 28.3078C169.272 20.055 170.846 12.1844 169.573 4.69599C161.603 10.514 150.592 13.1258 136.54 12.5312Z" fill="black"/>
<path d="M19.213 21.8046C28.5998 12.0513 40.5838 6.31824 55.1648 4.60539C61.1747 3.8976 67.9429 3.82682 75.4696 4.39305C81.136 4.81772 88.0903 5.69539 96.3324 7.02603C100.969 7.76213 107.837 8.89459 116.938 10.4234C124.693 11.6125 131.225 12.3203 136.534 12.5468C150.586 13.1413 161.597 10.5296 169.567 4.71157C170.84 12.2 169.266 20.0706 164.845 28.3234C161.754 34.1131 157.64 39.5135 152.503 44.5247C153.719 46.3224 154.642 49.1041 155.272 52.8695C155.902 56.6491 156.109 60.6976 155.894 65.0151C155.651 69.6865 154.936 73.9404 153.748 77.7766C152.417 82.1082 150.593 85.5198 148.275 88.0112C143.367 86.4965 139.267 82.632 135.976 76.4176C132.427 69.6936 130.925 61.9929 131.469 53.3154C116.315 57.2224 95.3522 58.6309 68.5797 57.5409C60.2088 57.2012 51.7664 56.6349 43.2525 55.8422L32.9713 54.738L32.6064 58.4327C32.2058 61.4762 31.6262 64.4631 30.8678 67.3933C28.4067 76.7644 24.5503 83.8211 19.2989 88.5633C16.8663 86.992 14.5411 83.7432 12.3231 78.817C9.94781 73.551 8.37379 67.7684 7.60109 61.4691C6.72823 54.2214 7.10027 47.3983 8.71721 40.9999C10.606 33.5256 14.1046 27.1272 19.213 21.8046Z" stroke="black" stroke-width="6.99999" stroke-linecap="round" stroke-linejoin="round"/>
<path d="M142.785 49.5814C145.174 48.743 147.766 47.3529 150.561 45.4113C152.979 43.7345 154.818 42.19 156.078 40.7779" stroke="black" stroke-width="6.99998" stroke-linecap="round" stroke-linejoin="round"/>
</svg>
