<svg width="174" height="205" viewBox="0 0 174 205" fill="none" xmlns="http://www.w3.org/2000/svg">
<path d="M17.3643 155.705L23.5427 144.378L25.6354 157.997C26.034 158.108 27.3516 158.341 29.5883 158.695C32.7107 159.182 35.9217 159.592 39.2213 159.924L48.2565 140.924L53.7374 160.921C70.5233 161.585 80.7763 161.928 84.4967 161.95C92.8896 161.95 101.05 161.74 108.978 161.319C117.194 160.898 124.347 160.289 130.436 159.492L132.562 142.186L140.867 157.798C140.933 157.776 142.184 157.455 144.62 156.835C147.499 156.038 150.101 155.163 152.426 154.211C159.778 151.155 163.067 147.833 162.292 144.245C156.955 132.265 153.434 118.591 151.729 103.222C150.909 95.8255 150.289 82.1621 149.869 62.2316H20.4203C19.9996 82.1621 19.3795 95.8255 18.5601 103.222C16.8549 118.591 13.3339 132.265 7.99694 144.245C7.22187 146.991 7.3548 149.162 8.39562 150.756C9.72431 152.771 12.7139 154.421 17.3643 155.705Z" fill="black"/>
<path d="M149.869 62.2316H20.4203C19.9996 82.1621 19.3795 95.8255 18.5601 103.222C16.8549 118.591 13.3339 132.265 7.99694 144.245C7.22187 146.991 7.3548 149.162 8.39562 150.756C9.72431 152.771 12.7139 154.421 17.3643 155.705L23.5427 144.378L25.6354 157.997C26.034 158.108 27.3516 158.341 29.5883 158.695C32.7107 159.182 35.9217 159.592 39.2213 159.924L48.2565 140.924L53.7374 160.921C70.5233 161.585 80.7763 161.928 84.4967 161.95C92.8896 161.95 101.05 161.74 108.978 161.319C117.194 160.898 124.347 160.289 130.436 159.492L132.562 142.186L140.867 157.798C140.933 157.776 142.184 157.455 144.62 156.835C147.499 156.038 150.101 155.163 152.426 154.211C159.778 151.155 163.067 147.833 162.292 144.245C156.955 132.265 153.434 118.591 151.729 103.222C150.909 95.8255 150.289 82.1621 149.869 62.2316Z" stroke="black" stroke-width="5" stroke-linecap="round" stroke-linejoin="round"/>
<path d="M141.359 30.0666C126.255 18.4518 108.017 12.6444 86.6451 12.6444C65.2736 12.6444 47.0269 18.4518 31.9051 30.0666C16.8003 41.6813 9.24792 55.6978 9.24792 72.1159C9.24792 88.534 16.8003 102.55 31.9051 114.165C47.0269 125.78 65.2736 131.587 86.6451 131.587C108.017 131.587 126.255 125.78 141.359 114.165C156.481 102.55 164.042 88.534 164.042 72.1159C164.042 55.6978 156.481 41.6813 141.359 30.0666Z" fill="black"/>
<path d="M164.056 72.1318C164.056 88.5498 156.496 102.566 141.374 114.181C126.269 125.796 108.031 131.603 86.6597 131.603C65.2884 131.603 47.0418 125.796 31.92 114.181C16.8153 102.566 9.26294 88.5498 9.26294 72.1318C9.26294 55.7137 16.8153 41.6974 31.92 30.0827C47.0418 18.4679 65.2884 12.6606 86.6597 12.6606C108.031 12.6606 126.269 18.4679 141.374 30.0827C156.496 41.6974 164.056 55.7137 164.056 72.1318Z" stroke="black" stroke-width="4.99998" stroke-linecap="round" stroke-linejoin="round"/>
<path d="M110.931 136.113C110.55 134.944 109.193 135.211 106.859 136.911L103.494 139.798L108.858 166.495L108.377 167.088C107.997 167.603 107.686 168.161 107.445 168.763C106.672 170.652 106.699 172.585 107.524 174.561C108.112 175.987 109.118 177.043 110.545 177.73C111.855 178.349 113.276 178.546 114.808 178.323C116.351 178.1 117.637 177.49 118.666 176.494C119.801 175.394 120.403 174.011 120.472 172.345C120.577 169.819 119.844 167.861 118.276 166.469C117.78 166.022 117.231 165.67 116.627 165.413C116.326 165.275 116.076 165.181 115.878 165.129C115.552 154.718 113.903 145.046 110.931 136.113Z" fill="black"/>
<path d="M103.491 139.811L106.856 136.925C109.189 135.224 110.547 134.958 110.928 136.126C113.9 145.06 115.549 154.732 115.875 165.143C116.073 165.194 116.322 165.289 116.624 165.426C117.227 165.684 117.777 166.036 118.273 166.483C119.841 167.874 120.573 169.833 120.469 172.358C120.4 174.025 119.798 175.407 118.662 176.507C117.634 177.503 116.348 178.113 114.804 178.337C113.272 178.56 111.851 178.362 110.541 177.744C109.115 177.057 108.108 176 107.52 174.574C106.695 172.599 106.669 170.666 107.441 168.776C107.683 168.175 107.994 167.617 108.374 167.101L108.855 166.508L103.491 139.811Z" stroke="black" stroke-width="7.0006" stroke-linecap="round" stroke-linejoin="round"/>
<path d="M109.814 128.304L108.781 127.119L100.677 130.057L103.425 148.817C107.661 149.71 111.903 149.642 116.151 148.611C115.777 142.168 114.435 136.654 112.125 132.067C111.401 130.624 110.631 129.369 109.814 128.304Z" fill="black"/>
<path d="M116.153 148.624C111.905 149.655 107.663 149.724 103.427 148.83L100.679 130.07L108.783 127.133L109.816 128.318C110.633 129.383 111.403 130.637 112.127 132.08C114.438 136.667 115.78 142.182 116.153 148.624Z" stroke="black" stroke-width="6.99997" stroke-linecap="round" stroke-linejoin="round"/>
<path d="M69.6294 137.53C67.6688 136.396 65.72 136.748 63.7828 138.587C61.192 146.919 59.6866 155.766 59.2665 165.129C59.0681 165.181 58.8172 165.275 58.5138 165.413C57.907 165.67 57.3527 166.023 56.8509 166.469C55.2638 167.861 54.5052 169.819 54.5752 172.345C54.6219 174.011 55.2054 175.394 56.3257 176.494C57.341 177.49 58.6188 178.1 60.1593 178.323C61.688 178.547 63.1117 178.349 64.4304 177.731C65.8658 177.043 66.8869 175.987 67.4938 174.561C68.3457 172.585 68.3982 170.653 67.6513 168.763C67.4179 168.162 67.1145 167.603 66.7411 167.088L66.2684 166.495L71.9925 139.798C71.3973 138.853 70.6096 138.097 69.6294 137.53Z" fill="black"/>
<path d="M72.0007 139.812C71.4055 138.867 70.6178 138.111 69.6375 137.544C67.677 136.41 65.7281 136.762 63.7909 138.6C61.2002 146.932 59.6948 155.78 59.2747 165.143C59.0763 165.194 58.8254 165.289 58.522 165.426C57.9151 165.684 57.3608 166.036 56.859 166.483C55.2719 167.874 54.5134 169.833 54.5834 172.358C54.6301 174.025 55.2136 175.408 56.3339 176.507C57.3492 177.504 58.627 178.113 60.1674 178.337C61.6962 178.56 63.1199 178.363 64.4386 177.744C65.8739 177.057 66.8951 176 67.5019 174.574C68.3538 172.599 68.4064 170.666 67.6595 168.776C67.4261 168.175 67.1227 167.617 66.7492 167.101L66.2766 166.509L72.0007 139.812Z" stroke="black" stroke-width="6.99997" stroke-linecap="round" stroke-linejoin="round"/>
<path d="M71.6613 148.725L74.4096 129.965L66.3049 127.027L65.2721 128.213C64.4552 129.278 63.685 130.532 62.9615 131.975C60.6509 136.562 59.3089 142.077 58.9354 148.519C63.1774 149.549 67.4194 149.618 71.6613 148.725Z" fill="black"/>
<path d="M58.9451 148.518C63.1871 149.548 67.4291 149.617 71.6712 148.725L74.4194 129.964L66.3147 127.027L65.2818 128.212C64.4649 129.277 63.6947 130.531 62.9712 131.974C60.6605 136.561 59.3185 142.076 58.9451 148.518Z" stroke="black" stroke-width="6.99997" stroke-linecap="round" stroke-linejoin="round"/>
<path d="M81.275 162.613C77.4701 161.918 75.3496 161.57 74.9134 161.57L73.8955 195.831H86.8368V163.655C85.0192 163.316 83.1653 162.968 81.275 162.613Z" fill="black"/>
<path d="M74.9347 161.571L73.9169 195.832H86.858V163.656C85.0404 163.317 83.1864 162.969 81.2961 162.614C77.4914 161.919 75.3709 161.571 74.9347 161.571Z" stroke="black" stroke-width="6.99997" stroke-linecap="round" stroke-linejoin="round"/>
<path d="M84.9452 193.89C82.9732 192.722 79.808 192.04 75.4497 191.843C71.9863 191.696 69.2603 192.058 67.2717 192.931C65.3991 193.73 64.4048 194.861 64.2888 196.323C64.1562 197.897 65.1754 199.058 67.3462 199.808C69.252 200.472 71.7211 200.742 74.7537 200.619C77.6206 200.508 80.2058 200.097 82.5092 199.384C84.9618 198.622 86.3621 197.725 86.7101 196.692C87.0415 195.709 86.4532 194.775 84.9452 193.89Z" fill="black"/>
<path d="M86.7152 196.704C87.0467 195.721 86.4583 194.787 84.9503 193.902C82.9783 192.734 79.8131 192.052 75.4548 191.856C71.9914 191.708 69.2654 192.071 67.2768 192.943C65.4042 193.742 64.4099 194.873 64.2939 196.336C64.1613 197.909 65.1805 199.07 67.3514 199.82C69.2571 200.484 71.7263 200.754 74.7588 200.631C77.6257 200.521 80.2109 200.109 82.5143 199.396C84.9669 198.634 86.3672 197.737 86.7152 196.704Z" stroke="black" stroke-width="6.99996" stroke-linecap="round" stroke-linejoin="round"/>
<path d="M93.9114 162.583C92.3201 162.944 90.7579 163.291 89.2249 163.624V195.803H100.112L99.2528 161.542C98.8938 161.542 97.1133 161.889 93.9114 162.583Z" fill="black"/>
<path d="M99.2604 161.542L100.119 195.803H89.2324V163.624C90.7655 163.291 92.3277 162.944 93.9189 162.583C97.1209 161.889 98.9014 161.542 99.2604 161.542Z" stroke="black" stroke-width="6.99996" stroke-linecap="round" stroke-linejoin="round"/>
<path d="M105.67 192.869C104.001 191.988 101.711 191.624 98.8003 191.778C95.1326 191.972 92.4691 192.654 90.8099 193.822C89.5389 194.704 89.044 195.636 89.3254 196.62C89.6165 197.656 90.7954 198.552 92.8621 199.311C94.793 200.028 96.9664 200.443 99.3824 200.556C101.934 200.679 104.011 200.407 105.612 199.741C107.436 198.993 108.295 197.83 108.188 196.251C108.091 194.796 107.252 193.669 105.67 192.869Z" fill="black"/>
<path d="M89.331 196.628C89.0496 195.644 89.5444 194.712 90.8155 193.83C92.4747 192.662 95.1382 191.98 98.806 191.785C101.717 191.632 104.007 191.996 105.676 192.877C107.257 193.676 108.097 194.804 108.194 196.259C108.3 197.838 107.442 199.001 105.617 199.749C104.016 200.415 101.94 200.687 99.3881 200.564C96.972 200.451 94.7986 200.036 92.8677 199.319C90.801 198.56 89.6221 197.663 89.331 196.628Z" stroke="black" stroke-width="6.99998" stroke-linecap="round" stroke-linejoin="round"/>
<path d="M102.634 133.649L72.2728 133.583L69.7815 147.933C68.2978 158.296 68.01 165.482 68.9179 169.491C69.2501 170.996 71.3206 172.181 75.1296 173.045C78.5399 173.842 82.6478 174.241 87.4532 174.241C92.2366 174.241 96.3555 173.853 99.8101 173.078C103.619 172.192 105.69 170.996 106.022 169.491C106.93 165.482 106.631 158.307 105.125 147.966L102.634 133.649Z" fill="black"/>
<path d="M102.634 133.649L105.125 147.966C106.631 158.307 106.93 165.482 106.022 169.491C105.69 170.996 103.619 172.192 99.8101 173.078C96.3555 173.853 92.2366 174.241 87.4532 174.241C82.6478 174.241 78.5399 173.842 75.1296 173.045C71.3206 172.181 69.2501 170.996 68.9179 169.491C68.01 165.482 68.2978 158.296 69.7815 147.933L72.2728 133.583L102.634 133.649Z" stroke="black" stroke-width="7" stroke-linecap="round" stroke-linejoin="round"/>
<path d="M25.016 84.6133C21.2184 84.0729 17.4958 84.3731 13.8483 85.5139C6.55327 87.8105 3.31102 93.1767 4.12158 101.613C4.90212 110.003 9.52532 114.829 17.9912 116.09C22.2241 116.721 26.3819 116.51 30.4648 115.46L25.016 84.6133Z" fill="black"/>
<path d="M25.0282 84.6133C21.2306 84.0729 17.5081 84.3731 13.8605 85.5139C6.56552 87.8105 3.32323 93.1767 4.13379 101.612C4.91433 110.003 9.53754 114.829 18.0034 116.09C22.2363 116.72 26.3942 116.51 30.477 115.46L25.0282 84.6133Z" stroke="black" stroke-width="6.99996" stroke-linecap="round" stroke-linejoin="round"/>
<path d="M9.89807 99.0457C12.0295 100.757 14.2736 102.693 16.6303 104.855" stroke="black" stroke-width="6.99996" stroke-linecap="round" stroke-linejoin="round"/>
<path d="M160.148 85.5139C156.5 84.3731 152.777 84.0729 148.98 84.6133L143.531 115.46C147.614 116.51 151.772 116.721 156.005 116.09C164.471 114.829 169.094 110.003 169.874 101.613C170.685 93.1767 167.443 87.8105 160.148 85.5139Z" fill="black"/>
<path d="M148.984 84.6133C152.782 84.0729 156.504 84.3731 160.152 85.5139C167.447 87.8105 170.689 93.1767 169.878 101.612C169.098 110.003 164.475 114.829 156.009 116.09C151.776 116.72 147.618 116.51 143.535 115.46L148.984 84.6133Z" stroke="black" stroke-width="6.99996" stroke-linecap="round" stroke-linejoin="round"/>
<path d="M163.311 99.0457C161.18 100.757 158.936 102.693 156.579 104.855" stroke="black" stroke-width="6.99996" stroke-linecap="round" stroke-linejoin="round"/>
<path d="M127.578 42.0466C116.49 35.8449 102.821 32.744 86.5726 32.744C70.2226 32.744 56.5543 35.8087 45.5675 41.9382C28.5381 51.3926 20.0233 67.3451 20.0233 89.7956C20.0233 94.3204 20.6738 98.8814 21.9749 103.478C23.753 109.868 26.6443 115.528 30.6487 120.457C41.7511 134.191 60.0816 141.058 85.6402 141.058C111.257 141.058 129.898 134.191 141.564 120.457C145.785 115.499 148.894 109.839 150.888 103.478C152.377 98.7513 153.122 94.1903 153.122 89.7956C153.122 67.4607 144.607 51.5444 127.578 42.0466Z" fill="black"/>
<path d="M86.5755 32.752C70.2256 32.752 56.5574 35.8167 45.5708 41.9461C28.5414 51.4004 20.0267 67.3527 20.0267 89.8031C20.0267 94.3279 20.6773 98.8888 21.9783 103.486C23.7564 109.875 26.6477 115.535 30.652 120.465C41.7543 134.198 60.0847 141.065 85.6432 141.065C111.259 141.065 129.901 134.198 141.567 120.465C145.788 115.506 148.896 109.847 150.891 103.486C152.38 98.7587 153.124 94.1978 153.124 89.8031C153.124 67.4684 144.61 51.5522 127.58 42.0545C116.493 35.8528 102.824 32.752 86.5755 32.752Z" stroke="black" stroke-width="6.99994" stroke-linecap="round" stroke-linejoin="round"/>
<path d="M80.4004 108.552C80.4004 110.498 81.2419 112.067 82.9249 113.26C84.461 114.327 86.3177 114.881 88.4949 114.923C90.6989 114.965 92.5556 114.463 94.065 113.417C95.748 112.245 96.5895 110.623 96.5895 108.552" stroke="black" stroke-width="4.99996" stroke-linecap="round" stroke-linejoin="round"/>
<path d="M48.3636 97.8249C46.1188 97.3366 44.0871 97.3345 42.2687 97.8187C40.2714 98.3866 39.047 99.4761 38.5954 101.087C38.1551 102.658 38.6456 104.186 40.0671 105.673C41.3888 106.961 43.1495 107.929 45.3491 108.579C47.5842 109.194 49.5933 109.277 51.3763 108.827C53.3735 108.259 54.6205 107.089 55.1173 105.317C55.6253 103.504 55.1573 101.895 53.7133 100.489C52.4045 99.2479 50.6213 98.3597 48.3636 97.8249Z" fill="black"/>
<path d="M67.0322 95.2248C69.715 95.451 72.1068 95.5076 74.2078 95.3945C76.3896 95.249 77.5047 94.942 77.5532 94.4733C75.1452 93.4228 71.7675 92.5905 67.4201 91.9764C62.9757 91.3138 59.3475 91.1602 56.5354 91.5158C56.6 93.3258 60.099 94.5622 67.0322 95.2248Z" fill="black"/>
<path d="M56.5464 91.5329C56.611 93.343 60.1099 94.5793 67.0431 95.2419C69.7259 95.4682 72.1177 95.5248 74.2187 95.4116C76.4005 95.2662 77.5156 94.9591 77.5641 94.4904C75.1561 93.4399 71.7783 92.6076 67.431 91.9935C62.9866 91.3309 59.3584 91.1774 56.5464 91.5329Z" stroke="black" stroke-width="2.99999" stroke-linecap="round" stroke-linejoin="round"/>
<path d="M134.934 101.083C134.481 99.4668 133.253 98.3759 131.249 97.8103C129.439 97.3254 127.411 97.3254 125.164 97.8103C122.918 98.3436 121.132 99.2325 119.807 100.477C118.368 101.867 117.9 103.475 118.401 105.301C118.902 107.063 120.154 108.234 122.158 108.816C123.936 109.269 125.948 109.18 128.195 108.549C130.376 107.903 132.13 106.941 133.455 105.665C134.894 104.178 135.386 102.651 134.934 101.083Z" fill="black"/>
<path d="M92.2086 101.89C91.2914 99.7859 89.9838 98.8043 88.2859 98.9455C86.6549 99.0763 85.3804 100.131 84.4623 102.111" stroke="black" stroke-width="4.99999" stroke-linecap="round" stroke-linejoin="round"/>
<path d="M108.171 91.9764C103.823 92.5905 100.446 93.4228 98.0377 94.4733C98.0862 94.942 99.2013 95.249 101.383 95.3945C103.484 95.5076 105.876 95.451 108.559 95.2248C115.492 94.5622 118.991 93.3258 119.055 91.5158C116.243 91.1602 112.615 91.3138 108.171 91.9764Z" fill="black"/>
<path d="M119.067 91.5329C119.002 93.343 115.503 94.5793 108.57 95.2419C105.887 95.4682 103.495 95.5248 101.394 95.4116C99.2124 95.2662 98.0973 94.9591 98.0488 94.4904C100.457 93.4399 103.835 92.6076 108.182 91.9935C112.626 91.3309 116.254 91.1774 119.067 91.5329Z" stroke="black" stroke-width="2.99999" stroke-linecap="round" stroke-linejoin="round"/>
<path d="M85.8201 3C65.2408 3 48.4968 7.08581 35.5882 15.2574C25.2657 21.7732 17.6169 30.7513 12.6419 42.1916C9.09151 50.3632 7.06426 59.3412 6.56019 69.1257C6.29719 74.0287 6.39586 78.1145 6.8561 81.3831C20.4661 82.5228 34.0431 83.383 47.5873 83.9636L54.2937 67.6741L56.3647 84.2217C74.1169 84.7808 91.2992 84.8561 107.912 84.4475L112.81 60.0294L121.39 84.0282C135.614 83.469 149.815 82.5874 163.995 81.3831C164.477 78.1145 164.62 74.0287 164.423 69.1257C164.006 59.3412 162.067 50.3632 158.604 42.1916C153.76 30.7513 146.21 21.7732 135.953 15.2574C123.111 7.08581 106.399 3 85.8201 3Z" fill="black"/>
<path d="M6.8613 81.4C6.40106 78.1313 6.30246 74.0455 6.56546 69.1426C7.06953 59.3582 9.09676 50.3802 12.6472 42.2087C17.6222 30.7685 25.2709 21.7905 35.5935 15.2748C48.5021 7.10318 65.246 3.0174 85.8253 3.0174C106.405 3.0174 123.116 7.10318 135.959 15.2748C146.215 21.7905 153.765 30.7685 158.609 42.2087C162.072 50.3802 164.011 59.3582 164.428 69.1426C164.625 74.0455 164.482 78.1313 164 81.4C149.821 82.6042 135.619 83.4859 121.395 84.045L112.815 60.0464L107.917 84.4643C91.3044 84.8729 74.1221 84.7976 56.37 84.2385L54.2989 67.6911L47.5925 83.9805C34.0483 83.3998 20.4712 82.5397 6.8613 81.4Z" stroke="black" stroke-width="4.99998" stroke-linecap="round" stroke-linejoin="round"/>
<path d="M144.444 34.642C142.28 30.5563 138.357 26.4705 132.673 22.3848C121.277 14.2133 106.737 10.1275 89.052 10.1275C71.3669 10.1275 56.0043 14.2133 42.9641 22.3848C38.8674 24.927 35.2612 27.7416 32.1454 30.8286L28.6833 34.642C49.9747 26.4705 70.4438 22.5361 90.0907 22.8387C108.266 23.1111 126.384 27.0455 144.444 34.642Z" fill="black"/>
<path d="M144.394 34.6125C142.23 30.5268 138.306 26.4411 132.623 22.3553C121.228 14.1838 106.687 10.0981 89.0025 10.0981C71.3176 10.0981 55.9552 14.1838 42.9152 22.3553C38.8185 24.8976 35.2123 27.7122 32.0966 30.7992L28.6346 34.6125C49.9257 26.4411 70.3945 22.5066 90.0411 22.8093C108.216 23.0817 126.334 27.0161 144.394 34.6125Z" stroke="black" stroke-width="4.99996" stroke-linecap="round" stroke-linejoin="round"/>
</svg>
