<svg width="170" height="205" viewBox="0 0 170 205" fill="none" xmlns="http://www.w3.org/2000/svg">
<path d="M51.6653 13.0968C43.5231 18.6303 37.573 25.6312 33.8151 34.0996C30.8353 32.9218 27.5423 32.8938 23.9362 34.0154C20.5958 35.0436 17.3218 36.9504 14.1143 39.7358C10.9637 42.4651 8.32555 45.6525 6.19984 49.2978C3.96026 53.1114 2.59373 56.925 2.10026 60.7385C0.885567 70.2725 2.75504 78.1894 7.7087 84.4893C10.195 87.6486 12.8047 89.8451 15.5378 91.0789C20.4724 96.2198 23.3004 101.884 24.0216 108.072C24.7618 114.334 23.3099 120.859 19.6658 127.644C16.8379 132.972 16.0312 138.403 17.2459 143.936C18.9161 151.451 24.3253 157.639 33.4734 162.499C44.5385 168.351 60.7186 171.314 82.0136 171.388C91.0858 171.426 99.8639 170.874 108.348 169.734C116.737 168.612 123.655 167.07 129.102 165.107C140.129 161.163 147.104 154.882 150.027 146.264C151.166 142.88 151.536 139.45 151.137 135.973C150.757 132.851 149.837 130.224 148.376 128.093C145.206 123.513 143.906 117.849 144.475 111.1C145.026 104.464 147.123 99.3137 150.767 95.6496C159.441 86.9382 164.859 77.7501 167.023 68.0853C170.914 50.812 163.265 34.9782 144.077 20.5838C134.037 13.0688 123.19 7.79706 111.536 4.76863C100.566 1.92714 89.7667 1.27285 79.1382 2.80576C68.7374 4.30128 59.5798 7.73164 51.6653 13.0968Z" fill="black"/>
<path d="M33.8346 34.0996C30.8548 32.9218 27.5618 32.8938 23.9558 34.0154C20.6154 35.0436 17.3414 36.9504 14.1339 39.7358C10.9833 42.4651 8.34516 45.6525 6.21947 49.2978C3.97989 53.1114 2.61338 56.925 2.11991 60.7385C0.905225 70.2725 2.77468 78.1894 7.72832 84.4893C10.2146 87.6486 12.8243 89.8451 15.5573 91.0789C20.492 96.2198 23.32 101.884 24.0412 108.072C24.7814 114.334 23.3294 120.859 19.6854 127.644C16.8574 132.972 16.0508 138.403 17.2655 143.936C18.9357 151.451 24.3448 157.639 33.4929 162.499C44.558 168.351 60.738 171.314 82.0329 171.388C91.1051 171.426 99.8831 170.874 108.367 169.734C116.756 168.612 123.674 167.07 129.121 165.107C140.148 161.163 147.123 154.882 150.046 146.264C151.185 142.88 151.555 139.45 151.156 135.973C150.777 132.851 149.856 130.224 148.395 128.093C145.225 123.513 143.925 117.849 144.494 111.1C145.045 104.464 147.142 99.3137 150.786 95.6496C159.46 86.9382 164.878 77.7501 167.042 68.0853C170.933 50.812 163.284 34.9782 144.096 20.5838C134.056 13.0688 123.209 7.79706 111.555 4.76863C100.585 1.92714 89.786 1.27285 79.1575 2.80576C68.7568 4.30128 59.5992 7.73164 51.6847 13.0968C43.5425 18.6303 37.5925 25.6312 33.8346 34.0996Z" stroke="black" stroke-width="2.33984" stroke-linecap="round" stroke-linejoin="round"/>
<path d="M102.088 142.43C101.707 141.439 100.41 141.665 98.1963 143.108L95.0095 145.556L100.494 168.204L100.041 168.707C99.6835 169.144 99.3927 169.617 99.1691 170.128C98.4535 171.731 98.5038 173.37 99.3201 175.046C99.9015 176.256 100.88 177.152 102.255 177.735C103.519 178.26 104.883 178.427 106.348 178.238C107.824 178.048 109.048 177.531 110.021 176.686C111.094 175.753 111.653 174.58 111.698 173.166C111.765 171.024 111.038 169.362 109.518 168.182C109.037 167.803 108.506 167.504 107.924 167.286C107.634 167.169 107.393 167.089 107.203 167.045C106.756 158.213 105.051 150.008 102.088 142.43Z" fill="black"/>
<path d="M95.0225 145.56L98.2092 143.112C100.423 141.669 101.72 141.443 102.1 142.434C105.064 150.013 106.769 158.218 107.216 167.05C107.406 167.093 107.647 167.173 107.937 167.29C108.519 167.509 109.05 167.807 109.531 168.186C111.051 169.367 111.778 171.028 111.711 173.171C111.666 174.584 111.107 175.757 110.034 176.69C109.061 177.535 107.837 178.053 106.361 178.242C104.896 178.432 103.532 178.264 102.268 177.739C100.893 177.156 99.9145 176.26 99.333 175.051C98.5168 173.375 98.4665 171.735 99.1821 170.132C99.4057 169.622 99.6964 169.148 100.054 168.711L100.507 168.208L95.0225 145.56Z" stroke="black" stroke-width="2.33984" stroke-linecap="round" stroke-linejoin="round"/>
<path d="M100.545 135.637L99.5823 134.684L92.0305 137.047L94.5913 152.136C98.5384 152.855 102.491 152.8 106.449 151.97C106.101 146.789 104.851 142.353 102.698 138.664C102.023 137.503 101.306 136.494 100.545 135.637Z" fill="black"/>
<path d="M106.447 151.989C102.489 152.818 98.5367 152.873 94.5896 152.155L92.0289 137.065L99.5806 134.702L100.543 135.656C101.304 136.513 102.022 137.521 102.696 138.682C104.849 142.372 106.099 146.807 106.447 151.989Z" stroke="black" stroke-width="2.33984" stroke-linecap="round" stroke-linejoin="round"/>
<path d="M72.5208 143.632C70.6423 142.67 68.7749 142.969 66.9188 144.528C64.4364 151.597 62.994 159.102 62.5915 167.045C62.4014 167.089 62.161 167.169 61.8702 167.285C61.2888 167.504 60.7577 167.803 60.2768 168.182C58.7561 169.362 58.0293 171.024 58.0964 173.166C58.1411 174.58 58.7002 175.753 59.7737 176.686C60.7465 177.531 61.9709 178.048 63.4469 178.238C64.9117 178.427 66.2758 178.26 67.5394 177.735C68.9147 177.152 69.8931 176.256 70.4745 175.046C71.2908 173.37 71.3411 171.731 70.6255 170.127C70.4019 169.617 70.1111 169.144 69.7533 168.706L69.3005 168.204L74.7851 145.556C74.2148 144.754 73.4601 144.113 72.5208 143.632Z" fill="black"/>
<path d="M74.783 145.56C74.2127 144.759 73.4579 144.118 72.5187 143.637C70.6402 142.675 68.7728 142.973 66.9167 144.533C64.4343 151.601 62.9919 159.107 62.5894 167.049C62.3993 167.093 62.1589 167.173 61.8682 167.29C61.2867 167.509 60.7556 167.807 60.2748 168.186C58.754 169.367 58.0273 171.028 58.0943 173.17C58.1391 174.584 58.6981 175.757 59.7716 176.69C60.7444 177.535 61.9688 178.053 63.4448 178.242C64.9096 178.432 66.2737 178.264 67.5373 177.739C68.9126 177.156 69.891 176.26 70.4724 175.051C71.2887 173.375 71.3391 171.735 70.6234 170.132C70.3998 169.622 70.109 169.148 69.7512 168.711L69.2984 168.208L74.783 145.56Z" stroke="black" stroke-width="2.33984" stroke-linecap="round" stroke-linejoin="round"/>
<path d="M74.6759 152.122L77.2366 137.033L69.6848 134.67L68.7225 135.623C67.9614 136.48 67.2437 137.489 66.5695 138.649C64.4165 142.339 63.1661 146.775 62.8181 151.956C66.7707 152.785 70.7233 152.84 74.6759 152.122Z" fill="black"/>
<path d="M62.8143 151.96C66.7669 152.789 70.7194 152.844 74.6719 152.126L77.2326 137.037L69.681 134.674L68.7187 135.627C67.9575 136.484 67.2398 137.493 66.5657 138.654C64.4127 142.343 63.1623 146.779 62.8143 151.96Z" stroke="black" stroke-width="2.33984" stroke-linecap="round" stroke-linejoin="round"/>
<path d="M75.9324 175.011L75.6869 196.668H83.0942V175.411C82.5621 175.678 81.8664 175.856 81.007 175.945C79.2746 176.152 77.583 175.841 75.9324 175.011Z" fill="black"/>
<path d="M75.7046 196.622H83.1118V175.365C82.5798 175.632 81.8841 175.81 81.0247 175.899C79.2922 176.106 77.6007 175.795 75.9501 174.965L75.7046 196.622Z" stroke="black" stroke-width="2.33984" stroke-linecap="round" stroke-linejoin="round"/>
<path d="M94.3482 196.668L94.1027 175.011C92.9295 175.634 91.3881 175.886 89.4783 175.767L86.9614 175.411V196.668H94.3482Z" fill="black"/>
<path d="M94.3656 196.622H86.9788V175.365L89.4956 175.721C91.4054 175.84 92.9469 175.588 94.1201 174.965L94.3656 196.622Z" stroke="black" stroke-width="2.33984" stroke-linecap="round" stroke-linejoin="round"/>
<path d="M101.78 167.056C98.864 149.344 97.1443 139.431 96.6209 137.319H72.8726C72.3306 139.394 70.6016 149.302 67.6856 167.042L101.78 167.056ZM101.78 167.056C102.278 170.244 102.745 173.324 103.182 176.296C91.1815 181.998 78.8821 181.998 66.2837 176.296C66.7196 173.319 67.1869 170.234 67.6856 167.042" fill="black"/>
<path d="M101.78 167.056C102.278 170.244 102.745 173.324 103.182 176.296C91.1815 181.998 78.8821 181.998 66.2837 176.296C66.7196 173.319 67.1869 170.234 67.6856 167.042M101.78 167.056C98.864 149.344 97.1443 139.431 96.6209 137.319H72.8726C72.3306 139.394 70.6016 149.302 67.6856 167.042L101.78 167.056Z" stroke="black" stroke-width="2.33985" stroke-linecap="round" stroke-linejoin="round"/>
<path d="M67.6857 167.042C68.0658 167.209 68.449 167.368 68.8352 167.519C79.6579 171.762 90.2657 171.772 100.658 167.547C101.033 167.389 101.407 167.225 101.78 167.056" stroke="black" stroke-width="1.33706" stroke-linecap="round" stroke-linejoin="round"/>
<path d="M96.1579 137H73.8684C73.3596 139.051 71.7368 148.843 69 166.376C69.3568 166.541 69.7164 166.698 70.0789 166.848C80.2368 171.042 90.193 171.051 99.9474 166.875C100.299 166.719 100.649 166.553 101 166.376C98.2632 148.88 96.6491 139.088 96.1579 137Z" fill="black"/>
<path d="M93.1444 139.191H76.3496C78.7983 141.77 81.7329 145.378 85.1536 150.016L93.1444 139.191Z" fill="black"/>
<path d="M85.1536 150.016L93.1444 139.191H76.3496C78.7983 141.77 81.7329 145.378 85.1536 150.016Z" stroke="black" stroke-width="1.72834" stroke-linecap="round" stroke-linejoin="round"/>
<path d="M31.5635 91.6564C28.3304 91.1963 25.1612 91.4519 22.056 92.4232C15.8454 94.3786 13.0852 98.9475 13.7753 106.13C14.4398 113.274 18.3757 117.383 25.5829 118.457C29.1866 118.993 32.7263 118.814 36.2022 117.92L31.5635 91.6564Z" fill="black"/>
<path d="M31.5815 91.6569C28.3485 91.1969 25.1793 91.4525 22.074 92.4238C15.8635 94.3791 13.1033 98.9481 13.7933 106.131C14.4578 113.275 18.3937 117.384 25.601 118.457C29.2046 118.994 32.7444 118.815 36.2202 117.92L31.5815 91.6569Z" stroke="black" stroke-width="2.33984" stroke-linecap="round" stroke-linejoin="round"/>
<path d="M18.7002 103.945C20.5148 105.402 22.4252 107.051 24.4315 108.891" stroke="black" stroke-width="2.33984" stroke-linecap="round" stroke-linejoin="round"/>
<path d="M147.149 92.4232C144.044 91.4519 140.875 91.1962 137.642 91.6563L133.003 117.92C136.479 118.814 140.019 118.993 143.622 118.457C150.83 117.383 154.766 113.274 155.43 106.13C156.12 98.9475 153.36 94.3785 147.149 92.4232Z" fill="black"/>
<path d="M137.64 91.6574C140.873 91.1973 144.042 91.4529 147.147 92.4242C153.358 94.3796 156.118 98.9485 155.428 106.131C154.764 113.275 150.828 117.384 143.62 118.458C140.017 118.994 136.477 118.815 133.001 117.921L137.64 91.6574Z" stroke="black" stroke-width="2.33984" stroke-linecap="round" stroke-linejoin="round"/>
<path d="M149.865 103.945C148.05 105.402 146.14 107.051 144.133 108.891" stroke="black" stroke-width="2.33984" stroke-linecap="round" stroke-linejoin="round"/>
<path d="M27.8718 96.9833C27.8718 100.756 28.4232 104.555 29.5261 108.383C31.0401 113.712 33.4981 118.436 36.9001 122.556C46.3582 134.002 61.9661 139.724 83.7237 139.724C105.537 139.724 121.407 134.002 131.332 122.556C134.921 118.418 137.566 113.693 139.267 108.383C140.538 104.446 141.174 100.646 141.174 96.9833C141.174 78.3413 133.921 65.0648 119.416 57.1539C109.977 51.9898 98.3408 49.4077 84.5087 49.4077C70.6018 49.4077 58.966 51.9531 49.6013 57.044C35.115 64.9366 27.8718 78.2497 27.8718 96.9833Z" fill="black"/>
<path d="M84.5087 49.4077C70.6018 49.4077 58.966 51.9531 49.6013 57.044C35.115 64.9366 27.8718 78.2497 27.8718 96.9833C27.8718 100.756 28.4232 104.555 29.5261 108.383C31.0401 113.712 33.4981 118.436 36.9001 122.556C46.3582 134.002 61.9661 139.724 83.7237 139.724C105.537 139.724 121.407 134.002 131.332 122.556C134.921 118.418 137.566 113.693 139.267 108.383C140.538 104.446 141.174 100.646 141.174 96.9833C141.174 78.3413 133.921 65.0648 119.416 57.1539C109.977 51.9898 98.3408 49.4077 84.5087 49.4077Z" stroke="black" stroke-width="2.31584" stroke-linecap="round" stroke-linejoin="round"/>
<path d="M87.6487 110.007L83.0504 107.455L80.7513 111.717" stroke="black" stroke-width="1.67132" stroke-linecap="round" stroke-linejoin="round"/>
<path d="M78.1061 117.085C79.8346 119.785 82.1942 121.084 85.1849 120.984C88.0619 120.883 90.2964 119.583 91.8884 117.085" stroke="black" stroke-width="1.67131" stroke-linecap="round" stroke-linejoin="round"/>
<path d="M44.5975 107.235C42.7273 106.878 41.0201 106.943 39.4761 107.429C37.779 107.994 36.7142 108.994 36.2815 110.428C35.8597 111.826 36.2215 113.156 37.3669 114.419C38.435 115.51 39.8825 116.306 41.7095 116.806C43.5674 117.275 45.2529 117.282 46.766 116.827C48.463 116.262 49.5495 115.19 50.0254 113.613C50.5122 112 50.172 110.598 49.005 109.407C47.9462 108.356 46.477 107.632 44.5975 107.235Z" fill="black"/>
<path d="M126.13 107.235C128 106.878 129.708 106.943 131.252 107.429C132.949 107.994 134.013 108.994 134.446 110.428C134.868 111.826 134.506 113.156 133.361 114.419C132.293 115.51 130.845 116.306 129.018 116.806C127.16 117.275 125.475 117.282 123.962 116.827C122.265 116.262 121.178 115.19 120.702 113.613C120.215 112 120.556 110.598 121.723 109.407C122.781 108.356 124.251 107.632 126.13 107.235Z" fill="black"/>
<path d="M128.057 103.653C128.684 102.19 129.042 100.062 129.132 97.2705C129.251 93.8367 128.818 90.6716 127.833 87.7752C125.057 79.5192 118.66 75.5404 108.643 75.839C100.104 76.0779 94.1257 79.8028 90.7072 87.0138C89.4234 89.6862 88.6396 92.5826 88.356 95.7029C88.1022 98.3902 88.2366 100.607 88.7591 102.354C89.6697 105.444 91.5655 107.908 94.4466 109.744C97.9697 111.984 102.739 113.103 108.755 113.103C114.667 113.103 119.272 112.103 122.571 110.102C125.019 108.61 126.848 106.46 128.057 103.653Z" fill="black"/>
<path d="M88.777 102.371C89.6876 105.462 91.5834 107.925 94.4645 109.761C97.9875 112.001 102.757 113.121 108.773 113.121C114.684 113.121 119.29 112.12 122.589 110.12C125.037 108.627 126.866 106.477 128.075 103.67C128.702 102.207 129.06 100.08 129.15 97.2879C129.269 93.8541 128.836 90.689 127.851 87.7927C125.074 79.5367 118.678 75.558 108.661 75.8566C100.122 76.0954 94.1436 79.8203 90.7251 87.0313C89.4413 89.7037 88.6576 92.6 88.374 95.7202C88.1202 98.4076 88.2545 100.625 88.777 102.371Z" stroke="black" stroke-width="1.33705" stroke-linecap="round" stroke-linejoin="round"/>
<path d="M105.153 96.3954C105.071 93.2435 104.583 90.568 103.688 88.3691C102.671 85.9685 101.349 84.7954 99.7214 84.8497C98.1348 84.9026 96.8125 86.164 95.7548 88.6339C94.8597 90.8926 94.3715 93.6006 94.2901 96.758C94.2494 99.9483 94.6563 102.626 95.5106 104.792C96.5277 107.193 97.9313 108.363 99.7214 108.304C101.552 108.243 102.956 106.978 103.932 104.511C104.787 102.288 105.193 99.583 105.153 96.3954Z" fill="black"/>
<path d="M99.7104 84.8765C98.1237 84.9292 96.8015 86.1831 95.7437 88.6382C94.8487 90.8834 94.3605 93.5752 94.2791 96.7136C94.2385 99.8848 94.6453 102.547 95.4996 104.7C96.5167 107.086 97.9203 108.249 99.7104 108.19C101.541 108.129 102.945 106.873 103.921 104.42C104.775 102.21 105.182 99.5213 105.142 96.3528C105.06 93.2198 104.572 90.5605 103.677 88.3747C102.66 85.9886 101.338 84.8225 99.7104 84.8765Z" stroke="black" stroke-width="1.00357" stroke-linecap="round" stroke-linejoin="round"/>
<path d="M81.9823 95.7321C81.7012 92.6137 80.9153 89.7189 79.6246 87.0479C76.2127 79.827 70.2321 76.1016 61.683 75.8715C51.6772 75.5648 45.2813 79.5395 42.4955 87.7955C41.5115 90.6966 41.0835 93.8661 41.2112 97.304C41.3007 100.09 41.6585 102.218 42.2847 103.688C43.4859 106.487 45.3133 108.634 47.7668 110.129C51.0638 112.123 55.6706 113.12 61.5872 113.12C67.5933 113.12 72.3598 112.001 75.8868 109.765C78.7621 107.937 80.6597 105.477 81.5798 102.384C82.1037 100.633 82.2379 98.4159 81.9823 95.7321Z" fill="black"/>
<path d="M81.5841 102.397C80.6641 105.49 78.7664 107.95 75.8911 109.777C72.3641 112.014 67.5977 113.132 61.5916 113.132C55.675 113.132 51.0682 112.135 47.7712 110.142C45.3177 108.646 43.4903 106.499 42.2891 103.7C41.6629 102.231 41.3051 100.103 41.2156 97.3166C41.0878 93.8787 41.516 90.7092 42.4999 87.8081C45.2857 79.5521 51.6816 75.5774 61.6874 75.8842C70.2365 76.1142 76.217 79.8396 79.6289 87.0605C80.9196 89.7315 81.7055 92.6262 81.9866 95.7446C82.2422 98.4284 82.1081 100.646 81.5841 102.397Z" stroke="black" stroke-width="1.33705" stroke-linecap="round" stroke-linejoin="round"/>
<path d="M76.7222 96.3852C76.6409 93.2333 76.1526 90.5579 75.2576 88.359C74.2405 85.9584 72.9183 84.7853 71.2909 84.8396C69.7042 84.8926 68.382 86.1539 67.3242 88.6238C66.4292 90.8824 65.941 93.5904 65.8596 96.7477C65.8189 99.938 66.2257 102.616 67.0801 104.782C68.0972 107.183 69.5008 108.353 71.2909 108.293C73.1217 108.232 74.5253 106.968 75.5017 104.501C76.3561 102.278 76.7629 99.5727 76.7222 96.3852Z" fill="black"/>
<path d="M71.2265 84.8623C69.6398 84.915 68.3176 86.1689 67.2598 88.624C66.3648 90.8691 65.8766 93.5609 65.7953 96.6993C65.7546 99.8704 66.1614 102.532 67.0157 104.685C68.0328 107.072 69.4364 108.235 71.2265 108.176C73.0572 108.115 74.4608 106.858 75.4372 104.406C76.2916 102.196 76.6984 99.507 76.6577 96.3385C76.5764 93.2055 76.0882 90.5462 75.1931 88.3605C74.176 85.9743 72.8538 84.8083 71.2265 84.8623Z" stroke="black" stroke-width="1.00358" stroke-linecap="round" stroke-linejoin="round"/>
<path d="M114.726 73.734C116.874 74.1701 118.961 74.2445 120.988 73.9571C123.499 73.6239 124.921 72.9093 125.253 71.8133C125.575 70.7032 124.72 69.5555 122.688 68.3702C120.994 67.376 119.043 66.7007 116.834 66.3445C114.848 66.0153 113.201 66.0528 111.891 66.4569C110.515 66.8967 109.668 67.7161 109.35 68.915C109.035 70.1149 109.377 71.1385 110.377 71.9858C111.344 72.773 112.794 73.3557 114.726 73.734Z" fill="black"/>
<path d="M125.199 71.7366C125.529 70.6736 124.685 69.574 122.665 68.4379C120.982 67.4849 119.042 66.8375 116.846 66.4957C114.871 66.18 113.227 66.2153 111.915 66.6017C110.556 67.0234 109.716 67.8123 109.397 68.9683C109.084 70.1107 109.424 71.088 110.418 71.9C111.379 72.6545 112.815 73.2128 114.727 73.5751C116.872 73.9939 118.952 74.0659 120.969 73.7909C123.466 73.4721 124.876 72.7874 125.199 71.7366Z" stroke="black" stroke-width="1.01238" stroke-linecap="round" stroke-linejoin="round"/>
<path d="M57.9182 71.8141C58.966 70.9834 59.3494 69.9865 59.0683 68.8235C58.7999 67.6349 57.9821 66.8362 56.6147 66.4272C55.2729 66.0438 53.5925 66.0246 51.5735 66.3697C49.3372 66.7403 47.3373 67.4241 45.5738 68.4209C43.4653 69.6223 42.5707 70.7533 42.8902 71.8141C43.1458 72.8876 44.5451 73.5714 47.0881 73.8653C49.1455 74.1465 51.2731 74.057 53.4711 73.5969C55.4263 73.2007 56.9086 72.6065 57.9182 71.8141Z" fill="black"/>
<path d="M42.9069 71.8133C42.5875 70.7526 43.4819 69.6215 45.5904 68.4202C47.3539 67.4233 49.3538 66.7396 51.5901 66.369C53.6092 66.0239 55.2896 66.0431 56.6313 66.4265C57.9987 66.8354 58.8166 67.6342 59.0849 68.8227C59.3661 69.9857 58.9827 70.9826 57.9348 71.8133C56.9253 72.6057 55.4429 73.2 53.4877 73.5962C51.2898 74.0563 49.1621 74.1457 47.1047 73.8645C44.5618 73.5706 43.1625 72.8869 42.9069 71.8133Z" stroke="black" stroke-width="1.00279" stroke-linecap="round" stroke-linejoin="round"/>
<path d="M81.6412 195.898C80.0179 194.706 77.4124 194.01 73.8247 193.809C70.9736 193.659 68.7296 194.029 67.0927 194.92C65.5512 195.735 64.7327 196.89 64.6372 198.383C64.5281 199.989 65.367 201.174 67.1541 201.94C68.7228 202.617 70.7554 202.893 73.2518 202.768C75.6117 202.655 77.7398 202.235 79.6359 201.507C81.6548 200.729 82.8075 199.813 83.094 198.759C83.3668 197.755 82.8826 196.802 81.6412 195.898Z" fill="black"/>
<path d="M83.1123 198.77C83.3851 197.766 82.9009 196.812 81.6595 195.909C80.0362 194.717 77.4307 194.021 73.843 193.82C70.9919 193.669 68.7479 194.04 67.111 194.93C65.5695 195.746 64.751 196.9 64.6555 198.393C64.5464 199.999 65.3854 201.185 67.1724 201.951C68.7411 202.628 70.7737 202.904 73.27 202.779C75.63 202.666 77.7581 202.245 79.6542 201.518C81.6731 200.74 82.8258 199.824 83.1123 198.77Z" stroke="black" stroke-width="2.33984" stroke-linecap="round" stroke-linejoin="round"/>
<path d="M105.275 198.404C105.179 196.918 104.361 195.766 102.819 194.95C101.183 194.047 98.9385 193.675 96.0875 193.835C92.4998 194.039 89.8943 194.732 88.2709 195.912C87.0296 196.816 86.5453 197.77 86.8181 198.776C87.1046 199.84 88.2573 200.758 90.2762 201.53C92.1724 202.259 94.3004 202.682 96.6604 202.798C99.1568 202.915 101.189 202.638 102.758 201.968C104.545 201.195 105.384 200.007 105.275 198.404Z" fill="black"/>
<path d="M86.8357 198.791C86.5629 197.785 87.0471 196.831 88.2885 195.927C89.9118 194.746 92.5173 194.054 96.105 193.85C98.9561 193.69 101.2 194.062 102.837 194.965C104.378 195.781 105.197 196.933 105.292 198.419C105.402 200.022 104.563 201.21 102.776 201.982C101.207 202.653 99.1743 202.93 96.678 202.813C94.318 202.697 92.1899 202.274 90.2938 201.545C88.2748 200.773 87.1222 199.855 86.8357 198.791Z" stroke="black" stroke-width="2.33984" stroke-linecap="round" stroke-linejoin="round"/>
<path d="M99.3417 43.2995C96.5224 38.983 91.4014 36.8723 83.9786 36.9674C80.3743 36.8343 76.9484 38.1178 73.7009 40.818C70.3285 43.5752 68.6067 46.7032 68.5353 50.202L68.6691 55.3931C69.0081 59.5575 69.8557 63.332 71.2118 66.7167C75.512 77.5934 83.9607 82.6704 96.5581 81.9479C94.2385 80.4457 92.4185 78.4586 91.0981 75.9866C88.4573 71.0807 89.626 66.2603 94.6042 61.5255C97.138 59.1296 99.0205 56.458 100.252 53.5106L101.322 49.8027C101.411 47.6349 100.751 45.4672 99.3417 43.2995Z" fill="black"/>
<path d="M68.5319 50.208L68.6657 55.3992C69.0047 59.5635 69.8522 63.338 71.2083 66.7227C75.5085 77.5994 83.9572 82.6765 96.5544 81.9539C94.2348 80.4517 92.4148 78.4646 91.0944 75.9926C88.4536 71.0867 89.6224 66.2664 94.6006 61.5316C97.1343 59.1357 99.0167 56.464 100.248 53.5167L101.318 49.8087" stroke="black" stroke-width="2.33984" stroke-linecap="round" stroke-linejoin="round"/>
</svg>
