<svg width="32" height="27" viewBox="0 0 32 27" fill="none" xmlns="http://www.w3.org/2000/svg">
<path d="M28.6875 7.06885C29.9375 6.13135 31.0625 5.00635 31.9375 3.69385C30.8125 4.19385 29.5 4.56885 28.1875 4.69385C29.5625 3.88135 30.5625 2.63135 31.0625 1.06885C29.8125 1.81885 28.375 2.38135 26.9375 2.69385C25.6875 1.38135 24 0.631348 22.125 0.631348C18.5 0.631348 15.5625 3.56885 15.5625 7.19385C15.5625 7.69385 15.625 8.19385 15.75 8.69385C10.3125 8.38135 5.4375 5.75635 2.1875 1.81885C1.625 2.75635 1.3125 3.88135 1.3125 5.13135C1.3125 7.38135 2.4375 9.38135 4.25 10.5688C3.1875 10.5063 2.125 10.2563 1.25 9.75635V9.81885C1.25 13.0063 3.5 15.6313 6.5 16.2563C6 16.3813 5.375 16.5063 4.8125 16.5063C4.375 16.5063 4 16.4438 3.5625 16.3813C4.375 19.0063 6.8125 20.8813 9.6875 20.9438C7.4375 22.6938 4.625 23.7563 1.5625 23.7563C1 23.7563 0.5 23.6938 0 23.6313C2.875 25.5063 6.3125 26.5688 10.0625 26.5688C22.125 26.5688 28.6875 16.6313 28.6875 7.94385C28.6875 7.63135 28.6875 7.38135 28.6875 7.06885Z" fill="white"/>
</svg>
